<?xml version="1.0" encoding="UTF-8"?>
<!DOCTYPE svg PUBLIC "-//W3C//DTD SVG 1.1//EN" "http://www.w3.org/Graphics/SVG/1.1/DTD/svg11.dtd">
<svg xmlns="http://www.w3.org/2000/svg" version="1.1" width="225px" height="225px" style="shape-rendering:geometricPrecision; text-rendering:geometricPrecision; image-rendering:optimizeQuality; fill-rule:evenodd; clip-rule:evenodd" xmlns:xlink="http://www.w3.org/1999/xlink">
<g><path style="opacity:1" fill="#fefefe" d="M -0.5,-0.5 C 74.5,-0.5 149.5,-0.5 224.5,-0.5C 224.5,74.5 224.5,149.5 224.5,224.5C 149.5,224.5 74.5,224.5 -0.5,224.5C -0.5,149.5 -0.5,74.5 -0.5,-0.5 Z"/></g>
<g><path style="opacity:1" fill="#f9982a" d="M 97.5,47.5 C 99.1667,47.5 100.833,47.5 102.5,47.5C 105.535,48.3745 108.535,49.3745 111.5,50.5C 107.488,52.1346 106.821,54.4679 109.5,57.5C 110.768,55.6957 111.435,53.6957 111.5,51.5C 114.609,51.2641 117.609,51.5975 120.5,52.5C 120.337,56.0348 121.67,57.0348 124.5,55.5C 124.833,55.5 125.167,55.5 125.5,55.5C 126.156,56.2778 126.989,56.9444 128,57.5C 129.03,57.1639 129.53,56.4972 129.5,55.5C 130.59,59.3995 133.257,61.2328 137.5,61C 136.833,61.3333 136.167,61.6667 135.5,62C 139.131,64.6244 142.464,67.4577 145.5,70.5C 145.5,70.8333 145.5,71.1667 145.5,71.5C 147.647,73.7435 149.813,76.0769 152,78.5C 152.422,80.3553 152.922,82.1886 153.5,84C 151.765,86.4019 151.432,88.9019 152.5,91.5C 153.243,90.0921 154.077,88.7588 155,87.5C 157.471,94.2192 156.971,100.553 153.5,106.5C 139.339,107.167 125.339,107.833 111.5,108.5C 89.8072,109.156 68.4738,108.489 47.5,106.5C 63.3281,105.669 79.3281,105.169 95.5,105C 81.4946,104.243 67.4946,103.41 53.5,102.5C 53.7093,101.914 54.0426,101.414 54.5,101C 53.1955,100.196 52.5288,99.0293 52.5,97.5C 53.5635,91.644 55.2302,85.9773 57.5,80.5C 59.5668,79.8659 61.4002,78.8659 63,77.5C 63.3173,79.3008 63.984,79.6341 65,78.5C 66.1532,75.2889 66.8198,71.9555 67,68.5C 68.1096,66.9632 69.6096,66.2965 71.5,66.5C 71.5,65.5 71.5,64.5 71.5,63.5C 66.6461,63.812 63.9795,66.4787 63.5,71.5C 62.1779,71.67 61.0113,71.3366 60,70.5C 59.6667,72.1667 59.3333,73.8333 59,75.5C 58.6667,75.1667 58.3333,74.8333 58,74.5C 54.6027,78.691 53.1027,78.3577 53.5,73.5C 63.0872,60.1949 76.0872,52.1949 92.5,49.5C 93.4972,49.4701 94.1639,49.9701 94.5,51C 92.112,52.9003 90.7787,55.4003 90.5,58.5C 92.451,58.2267 93.951,58.8934 95,60.5C 94.9689,55.8766 95.8022,51.5432 97.5,47.5 Z"/></g>
<g><path style="opacity:1" fill="#da7220" d="M 143.5,53.5 C 160.354,59.519 172.187,70.8523 179,87.5C 180.418,92.4285 180.751,97.4285 180,102.5C 178.644,104.409 177.144,106.076 175.5,107.5C 175.5,107.833 175.5,108.167 175.5,108.5C 154.167,108.5 132.833,108.5 111.5,108.5C 125.339,107.833 139.339,107.167 153.5,106.5C 156.971,100.553 157.471,94.2192 155,87.5C 154.077,88.7588 153.243,90.0921 152.5,91.5C 151.432,88.9019 151.765,86.4019 153.5,84C 152.922,82.1886 152.422,80.3553 152,78.5C 149.813,76.0769 147.647,73.7435 145.5,71.5C 146.858,72.6256 148.192,72.6256 149.5,71.5C 149.376,70.8933 149.043,70.56 148.5,70.5C 147.801,68.0052 146.801,65.6719 145.5,63.5C 144.022,63.762 142.689,63.4287 141.5,62.5C 143.844,62.3166 146.177,61.3166 148.5,59.5C 146.469,57.6899 144.802,55.6899 143.5,53.5 Z"/></g>
<g><path style="opacity:1" fill="#543222" d="M 182.5,104.5 C 180.287,105.773 177.954,106.773 175.5,107.5C 177.144,106.076 178.644,104.409 180,102.5C 180.751,97.4285 180.418,92.4285 179,87.5C 172.187,70.8523 160.354,59.519 143.5,53.5C 141.284,51.7675 138.618,50.7675 135.5,50.5C 132.195,50.9869 128.862,50.3202 125.5,48.5C 117.862,47.5025 110.196,47.1692 102.5,47.5C 100.833,47.5 99.1667,47.5 97.5,47.5C 95.302,47.1201 93.6354,47.7868 92.5,49.5C 76.0872,52.1949 63.0872,60.1949 53.5,73.5C 51.7986,74.2114 50.7986,75.5447 50.5,77.5C 44.8588,85.4097 42.8588,94.0764 44.5,103.5C 45.1667,104.833 46.1667,105.833 47.5,106.5C 68.4738,108.489 89.8072,109.156 111.5,108.5C 132.833,108.5 154.167,108.5 175.5,108.5C 175.5,109.5 175.5,110.5 175.5,111.5C 172.5,111.5 169.5,111.5 166.5,111.5C 130.167,111.5 93.8333,111.5 57.5,111.5C 53.774,111.823 50.1073,111.489 46.5,110.5C 44.5414,109.252 43.0414,107.585 42,105.5C 40.9609,106.71 39.7942,107.71 38.5,108.5C 39.9331,79.8263 54.2664,59.993 81.5,49C 111.496,38.8727 139.163,43.2061 164.5,62C 173.54,70.0381 179.706,79.8714 183,91.5C 183.629,95.8706 183.463,100.204 182.5,104.5 Z"/></g>
<g><path style="opacity:1" fill="#f5b253" d="M 47.5,106.5 C 46.1667,105.833 45.1667,104.833 44.5,103.5C 45.4959,103.414 46.3292,103.748 47,104.5C 47.171,99.4671 47.671,94.4671 48.5,89.5C 50.2113,86.1635 51.5447,82.6635 52.5,79C 51.9558,78.2828 51.2891,77.7828 50.5,77.5C 50.7986,75.5447 51.7986,74.2114 53.5,73.5C 53.1027,78.3577 54.6027,78.691 58,74.5C 58.3333,74.8333 58.6667,75.1667 59,75.5C 59.3333,73.8333 59.6667,72.1667 60,70.5C 61.0113,71.3366 62.1779,71.67 63.5,71.5C 63.9795,66.4787 66.6461,63.812 71.5,63.5C 71.5,64.5 71.5,65.5 71.5,66.5C 69.6096,66.2965 68.1096,66.9632 67,68.5C 66.8198,71.9555 66.1532,75.2889 65,78.5C 63.984,79.6341 63.3173,79.3008 63,77.5C 61.4002,78.8659 59.5668,79.8659 57.5,80.5C 55.2302,85.9773 53.5635,91.644 52.5,97.5C 52.5288,99.0293 53.1955,100.196 54.5,101C 54.0426,101.414 53.7093,101.914 53.5,102.5C 67.4946,103.41 81.4946,104.243 95.5,105C 79.3281,105.169 63.3281,105.669 47.5,106.5 Z"/></g>
<g><path style="opacity:1" fill="#d29b5f" d="M 108.5,79.5 C 109.5,79.5 110.5,79.5 111.5,79.5C 111.5,82.5 111.5,85.5 111.5,88.5C 110.167,88.5 108.833,88.5 107.5,88.5C 107.264,85.3915 107.597,82.3915 108.5,79.5 Z"/></g>
<g><path style="opacity:1" fill="#c6bdb4" d="M 89.5,84.5 C 90.6491,84.7911 91.3158,85.6244 91.5,87C 91.1667,87.8333 90.8333,88.6667 90.5,89.5C 89.5481,87.9547 89.2148,86.288 89.5,84.5 Z"/></g>
<g><path style="opacity:1" fill="#f1d8b4" d="M 157.5,83.5 C 159.832,84.1617 160.499,85.495 159.5,87.5C 157.889,86.6798 157.222,85.3464 157.5,83.5 Z"/></g>
<g><path style="opacity:1" fill="#bb99a0" d="M 124.5,83.5 C 125.5,83.5 126.5,83.5 127.5,83.5C 127.5,84.8333 127.5,86.1667 127.5,87.5C 126.167,87.5 124.833,87.5 123.5,87.5C 123.433,86.0413 123.766,84.7079 124.5,83.5 Z"/></g>
<g><path style="opacity:1" fill="#ed982b" d="M 50.5,77.5 C 51.2891,77.7828 51.9558,78.2828 52.5,79C 51.5447,82.6635 50.2113,86.1635 48.5,89.5C 47.671,94.4671 47.171,99.4671 47,104.5C 46.3292,103.748 45.4959,103.414 44.5,103.5C 42.8588,94.0764 44.8588,85.4097 50.5,77.5 Z"/></g>
<g><path style="opacity:1" fill="#bc9f92" d="M 143.5,81.5 C 146.297,81.9666 147.631,83.6333 147.5,86.5C 146.167,86.5 144.833,86.5 143.5,86.5C 143.5,84.8333 143.5,83.1667 143.5,81.5 Z"/></g>
<g><path style="opacity:1" fill="#b88485" d="M 67.5,82.5 C 68.5,82.5 69.5,82.5 70.5,82.5C 70.5,84.1667 70.5,85.8333 70.5,87.5C 69.5,87.5 68.5,87.5 67.5,87.5C 67.5,85.8333 67.5,84.1667 67.5,82.5 Z"/></g>
<g><path style="opacity:1" fill="#d2985f" d="M 129.5,66.5 C 135.955,69.433 136.121,72.7663 130,76.5C 129.502,73.1832 129.335,69.8499 129.5,66.5 Z"/></g>
<g><path style="opacity:1" fill="#e8c1d8" d="M 82.5,73.5 C 83.5,73.5 84.5,73.5 85.5,73.5C 85.5,74.5 85.5,75.5 85.5,76.5C 84.5,76.5 83.5,76.5 82.5,76.5C 82.5,75.5 82.5,74.5 82.5,73.5 Z"/></g>
<g><path style="opacity:1" fill="#f0d6e1" d="M 63.5,72.5 C 65.8075,73.405 65.8075,74.7383 63.5,76.5C 62.7084,75.3002 62.7084,73.9669 63.5,72.5 Z"/></g>
<g><path style="opacity:1" fill="#b68588" d="M 148.5,70.5 C 149.043,70.56 149.376,70.8933 149.5,71.5C 148.192,72.6256 146.858,72.6256 145.5,71.5C 145.5,71.1667 145.5,70.8333 145.5,70.5C 145.369,69.7611 145.536,69.0944 146,68.5C 146.708,69.3805 147.542,70.0472 148.5,70.5 Z"/></g>
<g><path style="opacity:1" fill="#cdd9e5" d="M 97.5,68.5 C 98.6491,68.7911 99.3158,69.6244 99.5,71C 99.1667,71.8333 98.8333,72.6667 98.5,73.5C 97.5481,71.9547 97.2148,70.288 97.5,68.5 Z"/></g>
<g><path style="opacity:1" fill="#e7dbe4" d="M 157.5,67.5 C 159.196,67.6854 160.529,68.5187 161.5,70C 159.055,70.9098 157.722,70.0764 157.5,67.5 Z"/></g>
<g><path style="opacity:1" fill="#c2914d" d="M 113.5,67.5 C 114.833,67.5 116.167,67.5 117.5,67.5C 117.663,69.8568 117.497,72.1902 117,74.5C 115.989,75.3366 114.822,75.67 113.5,75.5C 113.5,72.8333 113.5,70.1667 113.5,67.5 Z"/></g>
<g><path style="opacity:1" fill="#f6eddf" d="M 114.5,68.5 C 115.586,68.62 116.253,69.2867 116.5,70.5C 116.167,71.1667 115.833,71.8333 115.5,72.5C 114.571,71.3112 114.238,69.9778 114.5,68.5 Z"/></g>
<g><path style="opacity:1" fill="#f7e5e9" d="M 78.5,59.5 C 79.8012,61.456 79.3012,63.1226 77,64.5C 76.3872,62.5048 76.8872,60.8381 78.5,59.5 Z"/></g>
<g><path style="opacity:1" fill="#cc7327" d="M 135.5,50.5 C 138.618,50.7675 141.284,51.7675 143.5,53.5C 144.802,55.6899 146.469,57.6899 148.5,59.5C 146.177,61.3166 143.844,62.3166 141.5,62.5C 142.689,63.4287 144.022,63.762 145.5,63.5C 146.801,65.6719 147.801,68.0052 148.5,70.5C 147.542,70.0472 146.708,69.3805 146,68.5C 145.536,69.0944 145.369,69.7611 145.5,70.5C 142.464,67.4577 139.131,64.6244 135.5,62C 136.167,61.6667 136.833,61.3333 137.5,61C 133.257,61.2328 130.59,59.3995 129.5,55.5C 127.775,55.1575 127.275,54.1575 128,52.5C 131.294,54.1382 133.961,56.4716 136,59.5C 137.03,59.1639 137.53,58.4972 137.5,57.5C 136.957,57.44 136.624,57.1067 136.5,56.5C 138.045,55.5481 139.712,55.2148 141.5,55.5C 141.5,54.5 141.5,53.5 141.5,52.5C 138.934,52.3444 136.434,52.6777 134,53.5C 133.5,53.1667 133,52.8333 132.5,52.5C 133.602,51.8243 134.602,51.1577 135.5,50.5 Z"/></g>
<g><path style="opacity:1" fill="#e4e0f0" d="M 137.5,57.5 C 139.093,56.1328 140.426,56.4661 141.5,58.5C 141.167,58.8333 140.833,59.1667 140.5,59.5C 139.482,58.8075 138.482,58.1408 137.5,57.5 Z"/></g>
<g><path style="opacity:1" fill="#c39b82" d="M 111.5,50.5 C 111.5,50.8333 111.5,51.1667 111.5,51.5C 111.435,53.6957 110.768,55.6957 109.5,57.5C 106.821,54.4679 107.488,52.1346 111.5,50.5 Z"/></g>
<g><path style="opacity:1" fill="#e56f1a" d="M 102.5,47.5 C 110.196,47.1692 117.862,47.5025 125.5,48.5C 128.862,50.3202 132.195,50.9869 135.5,50.5C 134.602,51.1577 133.602,51.8243 132.5,52.5C 133,52.8333 133.5,53.1667 134,53.5C 136.434,52.6777 138.934,52.3444 141.5,52.5C 141.5,53.5 141.5,54.5 141.5,55.5C 139.712,55.2148 138.045,55.5481 136.5,56.5C 136.624,57.1067 136.957,57.44 137.5,57.5C 137.53,58.4972 137.03,59.1639 136,59.5C 133.961,56.4716 131.294,54.1382 128,52.5C 127.275,54.1575 127.775,55.1575 129.5,55.5C 129.53,56.4972 129.03,57.1639 128,57.5C 126.989,56.9444 126.156,56.2778 125.5,55.5C 125.5,53.8333 125.5,52.1667 125.5,50.5C 123.219,50.0773 121.552,50.744 120.5,52.5C 117.609,51.5975 114.609,51.2641 111.5,51.5C 111.5,51.1667 111.5,50.8333 111.5,50.5C 108.535,49.3745 105.535,48.3745 102.5,47.5 Z"/></g>
<g><path style="opacity:1" fill="#b37b3e" d="M 125.5,55.5 C 125.167,55.5 124.833,55.5 124.5,55.5C 121.67,57.0348 120.337,56.0348 120.5,52.5C 121.552,50.744 123.219,50.0773 125.5,50.5C 125.5,52.1667 125.5,53.8333 125.5,55.5 Z"/></g>
<g><path style="opacity:1" fill="#c3b4c1" d="M 124.5,55.5 C 121.924,55.2782 121.09,53.9449 122,51.5C 123.706,52.3079 124.539,53.6412 124.5,55.5 Z"/></g>
<g><path style="opacity:1" fill="#cd905c" d="M 97.5,47.5 C 95.8022,51.5432 94.9689,55.8766 95,60.5C 93.951,58.8934 92.451,58.2267 90.5,58.5C 90.7787,55.4003 92.112,52.9003 94.5,51C 94.1639,49.9701 93.4972,49.4701 92.5,49.5C 93.6354,47.7868 95.302,47.1201 97.5,47.5 Z"/></g>
<g><path style="opacity:1" fill="#6fa42b" d="M 57.5,111.5 C 59.3226,112.493 60.6559,113.993 61.5,116C 61.1667,116.5 60.8333,117 60.5,117.5C 59.4495,116.115 58.1161,115.115 56.5,114.5C 55.7025,114.957 55.3691,115.624 55.5,116.5C 50.4925,117.592 45.4925,117.592 40.5,116.5C 38.7711,114.149 38.1044,111.482 38.5,108.5C 39.7942,107.71 40.9609,106.71 42,105.5C 43.0414,107.585 44.5414,109.252 46.5,110.5C 50.1073,111.489 53.774,111.823 57.5,111.5 Z"/></g>
<g><path style="opacity:1" fill="#578616" d="M 57.5,111.5 C 93.8333,111.5 130.167,111.5 166.5,111.5C 163.414,114.913 159.747,117.579 155.5,119.5C 149.933,114.363 143.6,112.863 136.5,115C 133.644,116.701 130.644,118.034 127.5,119C 128.9,120.438 130.567,121.271 132.5,121.5C 131.064,122.429 129.731,123.595 128.5,125C 128.728,125.399 129.062,125.565 129.5,125.5C 129.158,126.338 128.492,126.672 127.5,126.5C 125.5,125.833 123.5,125.167 121.5,124.5C 123.199,124.66 124.866,124.494 126.5,124C 122.833,121.833 119.167,119.667 115.5,117.5C 114.614,116.675 114.281,115.675 114.5,114.5C 111.813,114.336 109.146,114.503 106.5,115C 104.557,116.555 102.39,117.722 100,118.5C 96.7078,116.438 93.2078,114.771 89.5,113.5C 85.9522,115.482 82.2855,115.816 78.5,114.5C 75.393,116.72 72.0597,118.387 68.5,119.5C 65.2757,116.51 62.6091,116.843 60.5,120.5C 58.8958,119.713 58.2291,118.38 58.5,116.5C 57.5,116.5 56.5,116.5 55.5,116.5C 55.3691,115.624 55.7025,114.957 56.5,114.5C 58.1161,115.115 59.4495,116.115 60.5,117.5C 60.8333,117 61.1667,116.5 61.5,116C 60.6559,113.993 59.3226,112.493 57.5,111.5 Z"/></g>
<g><path style="opacity:1" fill="#455321" d="M 38.5,108.5 C 38.1044,111.482 38.7711,114.149 40.5,116.5C 45.4925,117.592 50.4925,117.592 55.5,116.5C 56.5,116.5 57.5,116.5 58.5,116.5C 58.2291,118.38 58.8958,119.713 60.5,120.5C 60.8333,121.167 61.1667,121.833 61.5,122.5C 59.5,122.5 57.5,122.5 55.5,122.5C 55.5,122.167 55.5,121.833 55.5,121.5C 57.337,121.361 57.6704,120.694 56.5,119.5C 54.9291,118.691 53.2624,118.357 51.5,118.5C 49.9731,118.427 48.9731,119.094 48.5,120.5C 47.8485,119.909 47.1818,119.243 46.5,118.5C 45.5318,119.489 44.3651,120.156 43,120.5C 41.175,120.057 39.3417,119.723 37.5,119.5C 37.33,118.178 37.6634,117.011 38.5,116C 37.9558,115.283 37.2891,114.783 36.5,114.5C 36.595,112.214 37.2616,110.214 38.5,108.5 Z"/></g>
<g><path style="opacity:1" fill="#42401b" d="M 182.5,104.5 C 184.451,105.716 185.951,107.382 187,109.5C 188.015,113.44 188.515,117.44 188.5,121.5C 187.167,121.5 185.833,121.5 184.5,121.5C 185.209,120.596 186.209,120.263 187.5,120.5C 187.378,116.162 187.045,115.828 186.5,119.5C 184.8,119.626 183.3,120.293 182,121.5C 181,120.833 180,120.167 179,119.5C 177.862,119.989 176.695,120.322 175.5,120.5C 172.476,118.224 169.143,117.891 165.5,119.5C 166.249,117.754 167.583,116.754 169.5,116.5C 174.133,118.665 178.799,118.832 183.5,117C 186.167,113.667 186.167,110.333 183.5,107C 180.785,108.169 178.118,109.669 175.5,111.5C 175.5,110.5 175.5,109.5 175.5,108.5C 175.5,108.167 175.5,107.833 175.5,107.5C 177.954,106.773 180.287,105.773 182.5,104.5 Z"/></g>
<g><path style="opacity:1" fill="#431f1a" d="M 36.5,114.5 C 37.2891,114.783 37.9558,115.283 38.5,116C 37.6634,117.011 37.33,118.178 37.5,119.5C 39.3417,119.723 41.175,120.057 43,120.5C 44.3651,120.156 45.5318,119.489 46.5,118.5C 47.1818,119.243 47.8485,119.909 48.5,120.5C 49.1667,120.5 49.5,120.833 49.5,121.5C 47.6558,122.204 47.1558,123.537 48,125.5C 53.6689,131.083 60.5023,134.083 68.5,134.5C 74.3193,135.328 80.3193,135.828 86.5,136C 88.6504,137.411 90.9837,138.245 93.5,138.5C 93.0377,139.88 92.0377,140.547 90.5,140.5C 89.0337,139.865 87.7003,139.031 86.5,138C 74.3707,138.479 62.7041,136.479 51.5,132C 48.3172,128.985 45.3172,125.818 42.5,122.5C 41.0996,124.782 41.7663,126.282 44.5,127C 43.2068,127.49 41.8734,127.657 40.5,127.5C 40.804,130.522 41.304,133.522 42,136.5C 43.6665,138.996 45.4998,141.329 47.5,143.5C 46.5,143.5 45.5,143.5 44.5,143.5C 43.5,142.167 42.5,140.833 41.5,139.5C 38.5351,133.779 37.8685,127.779 39.5,121.5C 38.1667,121.5 36.8333,121.5 35.5,121.5C 35.1984,118.941 35.5318,116.607 36.5,114.5 Z"/></g>
<g><path style="opacity:1" fill="#f8930b" d="M 51.5,118.5 C 53.2624,118.357 54.9291,118.691 56.5,119.5C 57.6704,120.694 57.337,121.361 55.5,121.5C 53.9142,120.852 52.2475,120.352 50.5,120C 51.056,119.617 51.3893,119.117 51.5,118.5 Z"/></g>
<g><path style="opacity:1" fill="#6faf26" d="M 121.5,124.5 C 118.456,121.98 114.956,120.313 111,119.5C 107.552,121.243 103.885,122.576 100,123.5C 98.8333,123.333 97.6667,123.167 96.5,123C 92.96,118.374 88.2934,116.708 82.5,118C 80.8807,118.236 79.8807,119.069 79.5,120.5C 75.5805,123.028 71.2472,124.361 66.5,124.5C 64.4862,124.608 62.8195,123.942 61.5,122.5C 61.1667,121.833 60.8333,121.167 60.5,120.5C 62.6091,116.843 65.2757,116.51 68.5,119.5C 72.0597,118.387 75.393,116.72 78.5,114.5C 82.2855,115.816 85.9522,115.482 89.5,113.5C 93.2078,114.771 96.7078,116.438 100,118.5C 102.39,117.722 104.557,116.555 106.5,115C 109.146,114.503 111.813,114.336 114.5,114.5C 114.281,115.675 114.614,116.675 115.5,117.5C 119.167,119.667 122.833,121.833 126.5,124C 124.866,124.494 123.199,124.66 121.5,124.5 Z"/></g>
<g><path style="opacity:1" fill="#73a728" d="M 165.5,119.5 C 165.5,120.167 165.5,120.833 165.5,121.5C 165.5,122.167 165.167,122.5 164.5,122.5C 156.785,125.738 150.118,124.238 144.5,118C 139.643,116.593 135.643,117.76 132.5,121.5C 130.567,121.271 128.9,120.438 127.5,119C 130.644,118.034 133.644,116.701 136.5,115C 143.6,112.863 149.933,114.363 155.5,119.5C 159.747,117.579 163.414,114.913 166.5,111.5C 169.5,111.5 172.5,111.5 175.5,111.5C 178.118,109.669 180.785,108.169 183.5,107C 186.167,110.333 186.167,113.667 183.5,117C 178.799,118.832 174.133,118.665 169.5,116.5C 167.583,116.754 166.249,117.754 165.5,119.5 Z"/></g>
<g><path style="opacity:1" fill="#933d15" d="M 51.5,118.5 C 51.3893,119.117 51.056,119.617 50.5,120C 52.2475,120.352 53.9142,120.852 55.5,121.5C 55.5,121.833 55.5,122.167 55.5,122.5C 53.5853,122.216 51.9187,122.549 50.5,123.5C 49.6618,123.158 49.3284,122.492 49.5,121.5C 49.5,120.833 49.1667,120.5 48.5,120.5C 48.9731,119.094 49.9731,118.427 51.5,118.5 Z"/></g>
<g><path style="opacity:1" fill="#dc8319" d="M 175.5,120.5 C 172.214,121.207 168.881,121.54 165.5,121.5C 165.5,120.833 165.5,120.167 165.5,119.5C 169.143,117.891 172.476,118.224 175.5,120.5 Z"/></g>
<g><path style="opacity:1" fill="#373f19" d="M 164.5,122.5 C 164.5,122.833 164.5,123.167 164.5,123.5C 163.167,124.167 161.833,124.833 160.5,125.5C 157.612,124.99 155.279,125.656 153.5,127.5C 151.833,127.5 150.167,127.5 148.5,127.5C 148.5,127.167 148.5,126.833 148.5,126.5C 150.129,124.804 149.796,123.804 147.5,123.5C 147.5,122.833 147.167,122.5 146.5,122.5C 144.142,119.764 141.142,118.93 137.5,120C 134.935,122.08 132.268,123.913 129.5,125.5C 129.062,125.565 128.728,125.399 128.5,125C 129.731,123.595 131.064,122.429 132.5,121.5C 135.643,117.76 139.643,116.593 144.5,118C 150.118,124.238 156.785,125.738 164.5,122.5 Z"/></g>
<g><path style="opacity:1" fill="#48231f" d="M 55.5,122.5 C 57.5,122.5 59.5,122.5 61.5,122.5C 62.8195,123.942 64.4862,124.608 66.5,124.5C 66.5,124.833 66.5,125.167 66.5,125.5C 63.2746,125.589 60.2746,124.923 57.5,123.5C 54.971,125.828 52.6377,125.828 50.5,123.5C 51.9187,122.549 53.5853,122.216 55.5,122.5 Z"/></g>
<g><path style="opacity:1" fill="#303d0d" d="M 79.5,120.5 C 79.5,121.5 79.5,122.5 79.5,123.5C 77.1016,123.259 75.1016,123.926 73.5,125.5C 71.5,125.5 69.5,125.5 67.5,125.5C 67.1667,125.5 66.8333,125.5 66.5,125.5C 66.5,125.167 66.5,124.833 66.5,124.5C 71.2472,124.361 75.5805,123.028 79.5,120.5 Z"/></g>
<g><path style="opacity:1" fill="#3f431b" d="M 121.5,124.5 C 123.5,125.167 125.5,125.833 127.5,126.5C 125.143,126.663 122.81,126.497 120.5,126C 117.589,124.24 114.589,122.74 111.5,121.5C 107.695,122.574 104.029,123.908 100.5,125.5C 96.2968,124.732 92.6301,122.898 89.5,120C 86.1119,119.341 82.7786,119.508 79.5,120.5C 79.8807,119.069 80.8807,118.236 82.5,118C 88.2934,116.708 92.96,118.374 96.5,123C 97.6667,123.167 98.8333,123.333 100,123.5C 103.885,122.576 107.552,121.243 111,119.5C 114.956,120.313 118.456,121.98 121.5,124.5 Z"/></g>
<g><path style="opacity:1" fill="#6a3414" d="M 79.5,123.5 C 83.2971,123.872 86.6305,125.206 89.5,127.5C 88.1266,127.657 86.7932,127.49 85.5,127C 83.3819,125.918 81.3819,124.751 79.5,123.5 Z"/></g>
<g><path style="opacity:1" fill="#e5b62e" d="M 127.5,126.5 C 128.492,126.672 129.158,126.338 129.5,125.5C 132.268,123.913 134.935,122.08 137.5,120C 141.142,118.93 144.142,119.764 146.5,122.5C 138.603,124.91 130.937,127.91 123.5,131.5C 120.617,130.69 117.783,130.69 115,131.5C 113.726,130.465 112.56,129.298 111.5,128C 114.121,127.094 113.954,126.594 111,126.5C 109.276,126.955 107.776,127.788 106.5,129C 107.711,129.893 107.711,130.726 106.5,131.5C 104.774,129.97 102.774,128.97 100.5,128.5C 99.2867,128.747 98.62,129.414 98.5,130.5C 95.5982,129.216 92.5982,128.216 89.5,127.5C 86.6305,125.206 83.2971,123.872 79.5,123.5C 79.5,122.5 79.5,121.5 79.5,120.5C 82.7786,119.508 86.1119,119.341 89.5,120C 92.6301,122.898 96.2968,124.732 100.5,125.5C 104.029,123.908 107.695,122.574 111.5,121.5C 114.589,122.74 117.589,124.24 120.5,126C 122.81,126.497 125.143,126.663 127.5,126.5 Z"/></g>
<g><path style="opacity:1" fill="#643b0c" d="M 146.5,122.5 C 147.167,122.5 147.5,122.833 147.5,123.5C 135.844,127.163 124.844,132.163 114.5,138.5C 117.214,135.785 120.214,133.451 123.5,131.5C 130.937,127.91 138.603,124.91 146.5,122.5 Z"/></g>
<g><path style="opacity:1" fill="#862222" d="M 160.5,125.5 C 158.401,126.612 156.067,127.279 153.5,127.5C 155.279,125.656 157.612,124.99 160.5,125.5 Z"/></g>
<g><path style="opacity:1" fill="#cf1a22" d="M 49.5,121.5 C 49.3284,122.492 49.6618,123.158 50.5,123.5C 52.6377,125.828 54.971,125.828 57.5,123.5C 60.2746,124.923 63.2746,125.589 66.5,125.5C 66.8333,125.5 67.1667,125.5 67.5,125.5C 67.6107,126.117 67.944,126.617 68.5,127C 70.5,127.333 72.5,127.667 74.5,128C 74.1667,128.333 73.8333,128.667 73.5,129C 69.2147,129.626 65.048,129.126 61,127.5C 60.1667,127.667 59.3333,127.833 58.5,128C 65.5947,131.587 72.7613,132.087 80,129.5C 81.53,130.92 83.3633,131.92 85.5,132.5C 85.2907,133.086 84.9574,133.586 84.5,134C 79.1771,134.499 73.8437,134.666 68.5,134.5C 60.5023,134.083 53.6689,131.083 48,125.5C 47.1558,123.537 47.6558,122.204 49.5,121.5 Z"/></g>
<g><path style="opacity:1" fill="#d11624" d="M 164.5,123.5 C 166.821,123.229 168.821,123.896 170.5,125.5C 171.548,124.617 172.715,123.95 174,123.5C 175.03,123.836 175.53,124.503 175.5,125.5C 174.525,127.193 173.192,128.693 171.5,130C 165.72,132.445 159.72,133.945 153.5,134.5C 147.31,134.823 141.31,134.49 135.5,133.5C 137.479,131.832 139.812,131.166 142.5,131.5C 151.788,131.73 160.788,130.23 169.5,127C 163.741,127.118 158.074,127.951 152.5,129.5C 150.833,129.333 149.167,129.167 147.5,129C 148.056,128.617 148.389,128.117 148.5,127.5C 150.167,127.5 151.833,127.5 153.5,127.5C 156.067,127.279 158.401,126.612 160.5,125.5C 161.833,124.833 163.167,124.167 164.5,123.5 Z"/></g>
<g><path style="opacity:1" fill="#713b16" d="M 89.5,127.5 C 92.5982,128.216 95.5982,129.216 98.5,130.5C 100.349,131.593 102.016,132.926 103.5,134.5C 98.4037,132.919 93.737,130.586 89.5,127.5 Z"/></g>
<g><path style="opacity:1" fill="#6c1117" d="M 148.5,126.5 C 148.5,126.833 148.5,127.167 148.5,127.5C 148.389,128.117 148.056,128.617 147.5,129C 149.167,129.167 150.833,129.333 152.5,129.5C 158.074,127.951 163.741,127.118 169.5,127C 160.788,130.23 151.788,131.73 142.5,131.5C 143.718,130.839 145.051,130.172 146.5,129.5C 146.137,128.817 145.804,128.15 145.5,127.5C 146.391,126.89 147.391,126.557 148.5,126.5 Z"/></g>
<g><path style="opacity:1" fill="#f1ce32" d="M 123.5,131.5 C 120.214,133.451 117.214,135.785 114.5,138.5C 112.833,139.833 111.167,139.833 109.5,138.5C 108.198,136.178 106.198,134.845 103.5,134.5C 102.016,132.926 100.349,131.593 98.5,130.5C 98.62,129.414 99.2867,128.747 100.5,128.5C 102.774,128.97 104.774,129.97 106.5,131.5C 107.711,130.726 107.711,129.893 106.5,129C 107.776,127.788 109.276,126.955 111,126.5C 113.954,126.594 114.121,127.094 111.5,128C 112.56,129.298 113.726,130.465 115,131.5C 117.783,130.69 120.617,130.69 123.5,131.5 Z"/></g>
<g><path style="opacity:1" fill="#62211c" d="M 67.5,125.5 C 69.5,125.5 71.5,125.5 73.5,125.5C 83.0974,128.793 92.4307,132.96 101.5,138C 104.939,140.139 108.106,142.639 111,145.5C 111.833,142.829 111.333,140.496 109.5,138.5C 111.167,139.833 112.833,139.833 114.5,138.5C 112.752,140.16 112.252,142.16 113,144.5C 116.318,142.671 119.484,140.671 122.5,138.5C 125.797,138.632 127.463,140.298 127.5,143.5C 130.059,143.198 132.393,143.532 134.5,144.5C 130.5,144.5 126.5,144.5 122.5,144.5C 118.273,144.744 114.273,145.744 110.5,147.5C 109.081,146.549 107.415,146.216 105.5,146.5C 108.218,144.577 107.884,143.244 104.5,142.5C 102.226,141.263 99.8926,139.929 97.5,138.5C 96.2736,139.363 94.9403,139.363 93.5,138.5C 90.9837,138.245 88.6504,137.411 86.5,136C 80.3193,135.828 74.3193,135.328 68.5,134.5C 73.8437,134.666 79.1771,134.499 84.5,134C 84.9574,133.586 85.2907,133.086 85.5,132.5C 83.3633,131.92 81.53,130.92 80,129.5C 72.7613,132.087 65.5947,131.587 58.5,128C 59.3333,127.833 60.1667,127.667 61,127.5C 65.048,129.126 69.2147,129.626 73.5,129C 73.8333,128.667 74.1667,128.333 74.5,128C 72.5,127.667 70.5,127.333 68.5,127C 67.944,126.617 67.6107,126.117 67.5,125.5 Z"/></g>
<g><path style="opacity:1" fill="#3a140a" d="M 175.5,125.5 C 176.376,125.369 177.043,125.702 177.5,126.5C 174.455,130.536 170.455,133.37 165.5,135C 155.271,137.074 144.937,137.907 134.5,137.5C 135.263,136.732 136.263,136.232 137.5,136C 143.016,135.827 148.349,135.327 153.5,134.5C 159.72,133.945 165.72,132.445 171.5,130C 173.192,128.693 174.525,127.193 175.5,125.5 Z"/></g>
<g><path style="opacity:1" fill="#ed9219" d="M 79.5,123.5 C 81.3819,124.751 83.3819,125.918 85.5,127C 86.7932,127.49 88.1266,127.657 89.5,127.5C 93.737,130.586 98.4037,132.919 103.5,134.5C 104.802,136.822 106.802,138.155 109.5,138.5C 111.333,140.496 111.833,142.829 111,145.5C 108.106,142.639 104.939,140.139 101.5,138C 92.4307,132.96 83.0974,128.793 73.5,125.5C 75.1016,123.926 77.1016,123.259 79.5,123.5 Z"/></g>
<g><path style="opacity:1" fill="#693d1a" d="M 103.5,134.5 C 106.198,134.845 108.198,136.178 109.5,138.5C 106.802,138.155 104.802,136.822 103.5,134.5 Z"/></g>
<g><path style="opacity:1" fill="#ef941b" d="M 147.5,123.5 C 149.796,123.804 150.129,124.804 148.5,126.5C 147.391,126.557 146.391,126.89 145.5,127.5C 139.015,129.774 132.682,132.44 126.5,135.5C 124.77,136.026 123.436,137.026 122.5,138.5C 119.484,140.671 116.318,142.671 113,144.5C 112.252,142.16 112.752,140.16 114.5,138.5C 124.844,132.163 135.844,127.163 147.5,123.5 Z"/></g>
<g><path style="opacity:1" fill="#4c242d" d="M 145.5,127.5 C 145.804,128.15 146.137,128.817 146.5,129.5C 145.051,130.172 143.718,130.839 142.5,131.5C 139.812,131.166 137.479,131.832 135.5,133.5C 133.508,135.673 131.008,137.006 128,137.5C 126.97,137.164 126.47,136.497 126.5,135.5C 132.682,132.44 139.015,129.774 145.5,127.5 Z"/></g>
<g><path style="opacity:1" fill="#773a2f" d="M 175.5,120.5 C 177.99,121.664 180.49,122.998 183,124.5C 185.56,136.08 181.06,142.414 169.5,143.5C 167.631,142.835 165.631,142.169 163.5,141.5C 163.709,140.914 164.043,140.414 164.5,140C 166.859,139.792 169.026,139.626 171,139.5C 172.049,141.107 173.549,141.773 175.5,141.5C 175.5,139.833 175.5,138.167 175.5,136.5C 173.723,136.786 172.056,137.453 170.5,138.5C 167.336,136.806 164.002,136.306 160.5,137C 160.957,137.414 161.291,137.914 161.5,138.5C 153.29,140.595 144.957,141.595 136.5,141.5C 136.473,139.801 135.806,138.467 134.5,137.5C 144.937,137.907 155.271,137.074 165.5,135C 170.455,133.37 174.455,130.536 177.5,126.5C 177.043,125.702 176.376,125.369 175.5,125.5C 175.53,124.503 175.03,123.836 174,123.5C 172.715,123.95 171.548,124.617 170.5,125.5C 168.821,123.896 166.821,123.229 164.5,123.5C 164.5,123.167 164.5,122.833 164.5,122.5C 165.167,122.5 165.5,122.167 165.5,121.5C 168.881,121.54 172.214,121.207 175.5,120.5 Z"/></g>
<g><path style="opacity:1" fill="#8f3d34" d="M 135.5,133.5 C 141.31,134.49 147.31,134.823 153.5,134.5C 148.349,135.327 143.016,135.827 137.5,136C 136.263,136.232 135.263,136.732 134.5,137.5C 135.806,138.467 136.473,139.801 136.5,141.5C 144.957,141.595 153.29,140.595 161.5,138.5C 161.291,137.914 160.957,137.414 160.5,137C 164.002,136.306 167.336,136.806 170.5,138.5C 172.056,137.453 173.723,136.786 175.5,136.5C 175.5,138.167 175.5,139.833 175.5,141.5C 173.549,141.773 172.049,141.107 171,139.5C 169.026,139.626 166.859,139.792 164.5,140C 164.043,140.414 163.709,140.914 163.5,141.5C 165.631,142.169 167.631,142.835 169.5,143.5C 157.856,143.337 146.189,143.671 134.5,144.5C 132.393,143.532 130.059,143.198 127.5,143.5C 127.463,140.298 125.797,138.632 122.5,138.5C 123.436,137.026 124.77,136.026 126.5,135.5C 126.47,136.497 126.97,137.164 128,137.5C 131.008,137.006 133.508,135.673 135.5,133.5 Z"/></g>
<g><path style="opacity:1" fill="#7f3d33" d="M 93.5,138.5 C 94.9403,139.363 96.2736,139.363 97.5,138.5C 99.8926,139.929 102.226,141.263 104.5,142.5C 96.5278,143.831 88.1945,144.498 79.5,144.5C 68.8182,144.406 58.1515,144.073 47.5,143.5C 45.4998,141.329 43.6665,138.996 42,136.5C 41.304,133.522 40.804,130.522 40.5,127.5C 41.8734,127.657 43.2068,127.49 44.5,127C 41.7663,126.282 41.0996,124.782 42.5,122.5C 45.3172,125.818 48.3172,128.985 51.5,132C 62.7041,136.479 74.3707,138.479 86.5,138C 87.7003,139.031 89.0337,139.865 90.5,140.5C 92.0377,140.547 93.0377,139.88 93.5,138.5 Z"/></g>
<g><path style="opacity:1" fill="#2e1507" d="M 104.5,142.5 C 107.884,143.244 108.218,144.577 105.5,146.5C 101.167,146.5 96.8333,146.5 92.5,146.5C 77.6559,145.732 62.6559,145.065 47.5,144.5C 47.5,144.167 47.5,143.833 47.5,143.5C 58.1515,144.073 68.8182,144.406 79.5,144.5C 88.1945,144.498 96.5278,143.831 104.5,142.5 Z"/></g>
<g><path style="opacity:1" fill="#3c1916" d="M 184.5,121.5 C 186.002,127.3 185.669,132.966 183.5,138.5C 181.817,139.853 180.484,141.52 179.5,143.5C 175.811,145.674 171.811,146.674 167.5,146.5C 161.328,145.712 154.995,145.045 148.5,144.5C 139.679,145.76 131.012,145.76 122.5,144.5C 126.5,144.5 130.5,144.5 134.5,144.5C 146.189,143.671 157.856,143.337 169.5,143.5C 181.06,142.414 185.56,136.08 183,124.5C 180.49,122.998 177.99,121.664 175.5,120.5C 176.695,120.322 177.862,119.989 179,119.5C 180,120.167 181,120.833 182,121.5C 183.3,120.293 184.8,119.626 186.5,119.5C 187.045,115.828 187.378,116.162 187.5,120.5C 186.209,120.263 185.209,120.596 184.5,121.5 Z"/></g>
<g><path style="opacity:1" fill="#1b2200" d="M 47.5,144.5 C 62.6559,145.065 77.6559,145.732 92.5,146.5C 78.8293,146.667 65.1626,146.5 51.5,146C 49.9419,145.79 48.6085,145.29 47.5,144.5 Z"/></g>
<g><path style="opacity:1" fill="#1f2004" d="M 122.5,144.5 C 131.012,145.76 139.679,145.76 148.5,144.5C 154.995,145.045 161.328,145.712 167.5,146.5C 159.5,146.5 151.5,146.5 143.5,146.5C 142.167,146.5 140.833,146.5 139.5,146.5C 131.16,146.334 122.827,146.5 114.5,147C 113.182,148.63 111.849,148.797 110.5,147.5C 114.273,145.744 118.273,144.744 122.5,144.5 Z"/></g>
<g><path style="opacity:1" fill="#334018" d="M 41.5,139.5 C 42.5,140.833 43.5,142.167 44.5,143.5C 38.9334,142.753 37.1,145.087 39,150.5C 39.8333,151.333 40.6667,152.167 41.5,153C 46.3696,153.602 51.0363,153.269 55.5,152C 58.7187,154.056 61.3854,156.556 63.5,159.5C 62.448,159.649 61.448,159.483 60.5,159C 58.5296,156.684 56.1963,154.851 53.5,153.5C 51.484,154.178 49.484,154.844 47.5,155.5C 46.1667,156.833 44.8333,156.833 43.5,155.5C 35.0938,151.194 34.4271,145.861 41.5,139.5 Z"/></g>
<g><path style="opacity:1" fill="#5c8c1c" d="M 179.5,143.5 C 186.223,144.518 187.223,147.685 182.5,153C 177.489,153.388 172.489,153.222 167.5,152.5C 169.042,151.837 170.709,151.17 172.5,150.5C 172.833,149.833 173.167,149.167 173.5,148.5C 166.955,146.572 161.955,148.572 158.5,154.5C 157.393,155.022 156.226,155.355 155,155.5C 152.277,154.459 149.777,152.959 147.5,151C 146.207,150.51 144.873,150.343 143.5,150.5C 143.5,149.167 143.5,147.833 143.5,146.5C 151.5,146.5 159.5,146.5 167.5,146.5C 171.811,146.674 175.811,145.674 179.5,143.5 Z"/></g>
<g><path style="opacity:1" fill="#547f14" d="M 44.5,143.5 C 45.5,143.5 46.5,143.5 47.5,143.5C 47.5,143.833 47.5,144.167 47.5,144.5C 48.6085,145.29 49.9419,145.79 51.5,146C 65.1626,146.5 78.8293,146.667 92.5,146.5C 96.8333,146.5 101.167,146.5 105.5,146.5C 107.415,146.216 109.081,146.549 110.5,147.5C 111.849,148.797 113.182,148.63 114.5,147C 122.827,146.5 131.16,146.334 139.5,146.5C 134.145,148.01 129.145,150.343 124.5,153.5C 120.601,151.481 116.434,150.147 112,149.5C 107.486,150.866 103.319,152.866 99.5,155.5C 95.4935,154.319 92.1602,152.153 89.5,149C 85.1287,148.172 80.7953,148.339 76.5,149.5C 74.3411,151.995 71.6745,153.661 68.5,154.5C 65.0501,152.557 61.7167,150.391 58.5,148C 53.8452,147.501 49.1785,147.334 44.5,147.5C 44.5,146.167 44.5,144.833 44.5,143.5 Z"/></g>
<g><path style="opacity:1" fill="#2e3918" d="M 183.5,138.5 C 185.082,141.335 186.415,144.335 187.5,147.5C 186.782,151.552 184.448,153.885 180.5,154.5C 180.784,156.415 180.451,158.081 179.5,159.5C 179.843,157.517 179.176,156.183 177.5,155.5C 175.016,154.631 172.349,153.964 169.5,153.5C 166.664,156.481 163.331,158.981 159.5,161C 156.183,161.781 153.183,161.281 150.5,159.5C 153.85,159.665 157.183,159.498 160.5,159C 162.72,156.745 165.053,154.578 167.5,152.5C 172.489,153.222 177.489,153.388 182.5,153C 187.223,147.685 186.223,144.518 179.5,143.5C 180.484,141.52 181.817,139.853 183.5,138.5 Z"/></g>
<g><path style="opacity:1" fill="#71aa2b" d="M 44.5,143.5 C 44.5,144.833 44.5,146.167 44.5,147.5C 49.1785,147.334 53.8452,147.501 58.5,148C 61.7167,150.391 65.0501,152.557 68.5,154.5C 71.6745,153.661 74.3411,151.995 76.5,149.5C 80.7953,148.339 85.1287,148.172 89.5,149C 92.1602,152.153 95.4935,154.319 99.5,155.5C 103.319,152.866 107.486,150.866 112,149.5C 116.434,150.147 120.601,151.481 124.5,153.5C 129.145,150.343 134.145,148.01 139.5,146.5C 140.833,146.5 142.167,146.5 143.5,146.5C 143.5,147.833 143.5,149.167 143.5,150.5C 144.873,150.343 146.207,150.51 147.5,151C 149.777,152.959 152.277,154.459 155,155.5C 156.226,155.355 157.393,155.022 158.5,154.5C 161.955,148.572 166.955,146.572 173.5,148.5C 173.167,149.167 172.833,149.833 172.5,150.5C 170.709,151.17 169.042,151.837 167.5,152.5C 165.053,154.578 162.72,156.745 160.5,159C 157.183,159.498 153.85,159.665 150.5,159.5C 142.239,151.554 133.905,151.554 125.5,159.5C 123.833,159.5 122.167,159.5 120.5,159.5C 118.382,157.067 115.716,155.4 112.5,154.5C 109.128,155.701 106.128,157.534 103.5,160C 100.833,160.667 98.1667,160.667 95.5,160C 92.8333,158 90.1667,156 87.5,154C 81.316,152.7 76.316,154.534 72.5,159.5C 69.5,159.5 66.5,159.5 63.5,159.5C 61.3854,156.556 58.7187,154.056 55.5,152C 51.0363,153.269 46.3696,153.602 41.5,153C 40.6667,152.167 39.8333,151.333 39,150.5C 37.1,145.087 38.9334,142.753 44.5,143.5 Z"/></g>
<g><path style="opacity:1" fill="#db7520" d="M 63.5,159.5 C 64.3339,160.748 65.6672,161.415 67.5,161.5C 68.8333,161.333 70.1667,161.167 71.5,161C 72.056,160.617 72.3893,160.117 72.5,159.5C 76.2583,158.122 79.9249,156.456 83.5,154.5C 87.2734,156.43 90.9401,158.597 94.5,161C 97.8333,161.667 101.167,161.667 104.5,161C 106.806,158.861 109.473,157.361 112.5,156.5C 115.204,157.572 117.87,158.572 120.5,159.5C 122.167,159.5 123.833,159.5 125.5,159.5C 126.873,159.657 128.207,159.49 129.5,159C 131.839,156.58 134.672,155.08 138,154.5C 142.283,155.968 146.449,157.635 150.5,159.5C 153.183,161.281 156.183,161.781 159.5,161C 163.331,158.981 166.664,156.481 169.5,153.5C 172.349,153.964 175.016,154.631 177.5,155.5C 176.819,158.69 175.819,161.69 174.5,164.5C 168.819,161.315 164.485,162.815 161.5,169C 155.522,170.931 149.855,170.097 144.5,166.5C 143.614,165.675 143.281,164.675 143.5,163.5C 138.586,162.812 134.253,163.979 130.5,167C 124.043,169.443 118.043,168.61 112.5,164.5C 111.544,165.888 110.544,167.221 109.5,168.5C 101.105,172.207 93.7714,170.874 87.5,164.5C 84.9135,163.52 82.2469,163.187 79.5,163.5C 79.5,164.5 79.5,165.5 79.5,166.5C 75.2028,167.216 71.0362,168.216 67,169.5C 65.1063,169.42 63.2729,169.087 61.5,168.5C 59.3241,166.823 57.3241,164.989 55.5,163C 53.2884,162.211 51.2884,162.378 49.5,163.5C 48.8826,163.389 48.3826,163.056 48,162.5C 47.5034,160.19 47.3367,157.857 47.5,155.5C 49.484,154.844 51.484,154.178 53.5,153.5C 56.1963,154.851 58.5296,156.684 60.5,159C 61.448,159.483 62.448,159.649 63.5,159.5 Z"/></g>
<g><path style="opacity:1" fill="#314126" d="M 63.5,159.5 C 66.5,159.5 69.5,159.5 72.5,159.5C 72.3893,160.117 72.056,160.617 71.5,161C 70.1667,161.167 68.8333,161.333 67.5,161.5C 65.6672,161.415 64.3339,160.748 63.5,159.5 Z"/></g>
<g><path style="opacity:1" fill="#3d360c" d="M 120.5,159.5 C 117.87,158.572 115.204,157.572 112.5,156.5C 109.473,157.361 106.806,158.861 104.5,161C 101.167,161.667 97.8333,161.667 94.5,161C 90.9401,158.597 87.2734,156.43 83.5,154.5C 79.9249,156.456 76.2583,158.122 72.5,159.5C 76.316,154.534 81.316,152.7 87.5,154C 90.1667,156 92.8333,158 95.5,160C 98.1667,160.667 100.833,160.667 103.5,160C 106.128,157.534 109.128,155.701 112.5,154.5C 115.716,155.4 118.382,157.067 120.5,159.5 Z"/></g>
<g><path style="opacity:1" fill="#2b3410" d="M 150.5,159.5 C 146.449,157.635 142.283,155.968 138,154.5C 134.672,155.08 131.839,156.58 129.5,159C 128.207,159.49 126.873,159.657 125.5,159.5C 133.905,151.554 142.239,151.554 150.5,159.5 Z"/></g>
<g><path style="opacity:1" fill="#f59529" d="M 174.5,164.5 C 173.432,167.075 171.765,169.242 169.5,171C 166.233,173.13 162.9,174.963 159.5,176.5C 128.852,177.628 98.1857,177.795 67.5,177C 58.7229,176.04 52.7229,171.54 49.5,163.5C 51.2884,162.378 53.2884,162.211 55.5,163C 57.3241,164.989 59.3241,166.823 61.5,168.5C 63.2729,169.087 65.1063,169.42 67,169.5C 71.0362,168.216 75.2028,167.216 79.5,166.5C 79.5,165.5 79.5,164.5 79.5,163.5C 82.2469,163.187 84.9135,163.52 87.5,164.5C 93.7714,170.874 101.105,172.207 109.5,168.5C 110.544,167.221 111.544,165.888 112.5,164.5C 118.043,168.61 124.043,169.443 130.5,167C 134.253,163.979 138.586,162.812 143.5,163.5C 143.281,164.675 143.614,165.675 144.5,166.5C 149.855,170.097 155.522,170.931 161.5,169C 164.485,162.815 168.819,161.315 174.5,164.5 Z"/></g>
<g><path style="opacity:1" fill="#4d2b11" d="M 43.5,155.5 C 44.8333,156.833 46.1667,156.833 47.5,155.5C 47.3367,157.857 47.5034,160.19 48,162.5C 48.3826,163.056 48.8826,163.389 49.5,163.5C 52.7229,171.54 58.7229,176.04 67.5,177C 98.1857,177.795 128.852,177.628 159.5,176.5C 158.391,177.29 157.058,177.79 155.5,178C 125.502,178.5 95.5019,178.667 65.5,178.5C 52.7385,176.071 45.4052,168.404 43.5,155.5 Z"/></g>
<g><path style="opacity:1" fill="#443c36" d="M 177.5,155.5 C 179.176,156.183 179.843,157.517 179.5,159.5C 175.556,171.497 167.223,178.33 154.5,180C 125.5,180.667 96.5,180.667 67.5,180C 66.5842,179.722 65.9175,179.222 65.5,178.5C 95.5019,178.667 125.502,178.5 155.5,178C 157.058,177.79 158.391,177.29 159.5,176.5C 162.9,174.963 166.233,173.13 169.5,171C 171.765,169.242 173.432,167.075 174.5,164.5C 175.819,161.69 176.819,158.69 177.5,155.5 Z"/></g>
</svg>
