<?xml version="1.0" encoding="UTF-8"?>
<!DOCTYPE svg PUBLIC "-//W3C//DTD SVG 1.1//EN" "http://www.w3.org/Graphics/SVG/1.1/DTD/svg11.dtd">
<svg xmlns="http://www.w3.org/2000/svg" version="1.1" width="500px" height="500px" style="shape-rendering:geometricPrecision; text-rendering:geometricPrecision; image-rendering:optimizeQuality; fill-rule:evenodd; clip-rule:evenodd" xmlns:xlink="http://www.w3.org/1999/xlink">
<g><path style="opacity:0.102" fill="#fefefe" d="M -0.5,-0.5 C 166.167,-0.5 332.833,-0.5 499.5,-0.5C 499.5,166.167 499.5,332.833 499.5,499.5C 332.833,499.5 166.167,499.5 -0.5,499.5C -0.5,332.833 -0.5,166.167 -0.5,-0.5 Z"/></g>
<g><path style="opacity:0.31" fill="#a6815e" d="M 285.5,84.5 C 283.901,84.2322 282.568,84.5655 281.5,85.5C 280.833,85.5 280.167,85.5 279.5,85.5C 279.97,84.3065 280.97,83.6399 282.5,83.5C 283.726,83.5195 284.726,83.8529 285.5,84.5 Z"/></g>
<g><path style="opacity:0.431" fill="#835b36" d="M 279.5,85.5 C 278.058,86.8195 277.392,88.4862 277.5,90.5C 279.675,90.3178 281.675,89.6511 283.5,88.5C 284.416,88.5427 285.083,88.8761 285.5,89.5C 280.74,91.2398 275.74,91.9065 270.5,91.5C 270.5,91.1667 270.5,90.8333 270.5,90.5C 271.141,89.5178 271.807,88.5178 272.5,87.5C 269.789,86.0114 267.789,86.6781 266.5,89.5C 263.766,92.1426 260.433,93.1426 256.5,92.5C 260.686,91.4 264.353,89.2334 267.5,86C 271.486,85.5012 275.486,85.3345 279.5,85.5 Z"/></g>
<g><path style="opacity:0.729" fill="#765035" d="M 281.5,85.5 C 282.568,84.5655 283.901,84.2322 285.5,84.5C 290.136,85.1489 294.802,85.6489 299.5,86C 305.977,88.7595 312.31,91.5929 318.5,94.5C 312.177,93.1695 306.177,91.0028 300.5,88C 294.088,87.5596 287.755,86.7263 281.5,85.5 Z"/></g>
<g><path style="opacity:0.969" fill="#3e1d0e" d="M 279.5,85.5 C 280.167,85.5 280.833,85.5 281.5,85.5C 287.755,86.7263 294.088,87.5596 300.5,88C 306.177,91.0028 312.177,93.1695 318.5,94.5C 318.833,94.5 319.167,94.5 319.5,94.5C 319.5,94.8333 319.5,95.1667 319.5,95.5C 318.127,95.3433 316.793,95.51 315.5,96C 316.823,96.8159 317.489,97.9826 317.5,99.5C 313.016,97.7571 308.683,95.7571 304.5,93.5C 303.833,93.5 303.5,93.1667 303.5,92.5C 303.389,91.8826 303.056,91.3826 302.5,91C 296.811,90.6266 291.145,90.1266 285.5,89.5C 285.083,88.8761 284.416,88.5427 283.5,88.5C 281.675,89.6511 279.675,90.3178 277.5,90.5C 277.392,88.4862 278.058,86.8195 279.5,85.5 Z"/></g>
<g><path style="opacity:0.925" fill="#361507" d="M 270.5,90.5 C 269.417,90.5394 268.417,90.8728 267.5,91.5C 266.702,91.0431 266.369,90.3764 266.5,89.5C 267.789,86.6781 269.789,86.0114 272.5,87.5C 271.807,88.5178 271.141,89.5178 270.5,90.5 Z"/></g>
<g><path style="opacity:1" fill="#754626" d="M 285.5,89.5 C 291.145,90.1266 296.811,90.6266 302.5,91C 303.056,91.3826 303.389,91.8826 303.5,92.5C 297.123,92.2521 291.123,91.2521 285.5,89.5 Z"/></g>
<g><path style="opacity:0.949" fill="#5d371b" d="M 266.5,89.5 C 266.369,90.3764 266.702,91.0431 267.5,91.5C 268.417,90.8728 269.417,90.5394 270.5,90.5C 270.5,90.8333 270.5,91.1667 270.5,91.5C 268.8,92.016 267.467,93.016 266.5,94.5C 264.604,95.4656 262.604,95.7989 260.5,95.5C 262.042,94.8365 263.709,94.1698 265.5,93.5C 265.333,93.1667 265.167,92.8333 265,92.5C 262.26,93.2822 259.426,93.7822 256.5,94C 254.03,94.9888 251.697,96.1554 249.5,97.5C 250.167,96.5 250.833,95.5 251.5,94.5C 252.82,93.0582 254.486,92.3915 256.5,92.5C 260.433,93.1426 263.766,92.1426 266.5,89.5 Z"/></g>
<g><path style="opacity:0.486" fill="#906846" d="M 251.5,94.5 C 250.833,95.5 250.167,96.5 249.5,97.5C 246.738,98.3795 244.071,99.5462 241.5,101C 236.978,100.65 233.311,102.15 230.5,105.5C 231.136,103.205 232.469,101.539 234.5,100.5C 237.152,100.59 239.485,99.9238 241.5,98.5C 244.947,97.3533 248.28,96.02 251.5,94.5 Z"/></g>
<g><path style="opacity:1" fill="#bc7738" d="M 316.5,102.5 C 316.5,102.833 316.5,103.167 316.5,103.5C 313.547,103.214 310.547,103.214 307.5,103.5C 305.094,101.755 302.76,99.9212 300.5,98C 299.552,97.5172 298.552,97.3505 297.5,97.5C 298.384,101.49 297.051,104.323 293.5,106C 288.882,107.158 284.216,107.992 279.5,108.5C 279.5,106.833 279.5,105.167 279.5,103.5C 279.791,102.351 280.624,101.684 282,101.5C 285.014,103.15 288.181,103.65 291.5,103C 287.878,101.644 284.212,100.477 280.5,99.5C 279.167,99.8333 277.833,100.167 276.5,100.5C 276.058,101.739 275.391,102.739 274.5,103.5C 273.167,102.167 271.833,100.833 270.5,99.5C 273.977,98.6773 277.644,98.1773 281.5,98C 279.114,97.7165 278.448,96.7165 279.5,95C 287.863,92.1965 295.53,93.1965 302.5,98C 307.322,99.2566 311.988,100.757 316.5,102.5 Z"/></g>
<g><path style="opacity:0.235" fill="#d7c4ae" d="M 241.5,98.5 C 239.485,99.9238 237.152,100.59 234.5,100.5C 236.515,99.0762 238.848,98.4095 241.5,98.5 Z"/></g>
<g><path style="opacity:0.996" fill="#724623" d="M 256.5,96.5 C 253.824,100.146 250.158,102.146 245.5,102.5C 249.142,100.541 252.809,98.5414 256.5,96.5 Z"/></g>
<g><path style="opacity:1" fill="#8b5a36" d="M 304.5,93.5 C 308.683,95.7571 313.016,97.7571 317.5,99.5C 319.28,100.99 319.946,102.99 319.5,105.5C 318.778,104.449 317.778,103.782 316.5,103.5C 316.5,103.167 316.5,102.833 316.5,102.5C 313.521,99.5234 309.855,97.3568 305.5,96C 304.748,95.3292 304.414,94.4959 304.5,93.5 Z"/></g>
<g><path style="opacity:1" fill="#b57b46" d="M 285.5,89.5 C 291.123,91.2521 297.123,92.2521 303.5,92.5C 303.5,93.1667 303.833,93.5 304.5,93.5C 304.414,94.4959 304.748,95.3292 305.5,96C 309.855,97.3568 313.521,99.5234 316.5,102.5C 311.988,100.757 307.322,99.2566 302.5,98C 295.53,93.1965 287.863,92.1965 279.5,95C 278.448,96.7165 279.114,97.7165 281.5,98C 277.644,98.1773 273.977,98.6773 270.5,99.5C 264.342,99.7394 258.342,100.906 252.5,103C 251.5,104 250.5,105 249.5,106C 244.695,106.217 240.028,107.051 235.5,108.5C 235.369,107.624 235.702,106.957 236.5,106.5C 238.783,105.679 241.116,105.012 243.5,104.5C 244.713,104.253 245.38,103.586 245.5,102.5C 250.158,102.146 253.824,100.146 256.5,96.5C 257.708,95.7659 259.041,95.4326 260.5,95.5C 262.604,95.7989 264.604,95.4656 266.5,94.5C 267.467,93.016 268.8,92.016 270.5,91.5C 275.74,91.9065 280.74,91.2398 285.5,89.5 Z"/></g>
<g><path style="opacity:1" fill="#6d2c0a" d="M 279.5,103.5 C 278.404,105.103 277.07,106.603 275.5,108C 273.741,108.798 272.074,108.631 270.5,107.5C 271.949,106.828 273.282,106.161 274.5,105.5C 274.5,104.833 274.5,104.167 274.5,103.5C 275.391,102.739 276.058,101.739 276.5,100.5C 277.833,100.167 279.167,99.8333 280.5,99.5C 284.212,100.477 287.878,101.644 291.5,103C 288.181,103.65 285.014,103.15 282,101.5C 280.624,101.684 279.791,102.351 279.5,103.5 Z"/></g>
<g><path style="opacity:1" fill="#c7792b" d="M 307.5,103.5 C 310.859,104.343 313.859,105.677 316.5,107.5C 314.599,107.433 312.766,107.767 311,108.5C 308.773,107.637 306.607,106.637 304.5,105.5C 298.183,107.166 291.516,108.333 284.5,109C 284.935,111.398 284.269,113.731 282.5,116C 283.167,116.667 283.833,117.333 284.5,118C 283.427,119.25 283.427,120.584 284.5,122C 283.956,123.947 282.623,124.78 280.5,124.5C 277.23,123.945 273.896,123.778 270.5,124C 269.692,123.692 269.025,123.192 268.5,122.5C 269.729,121.719 271.062,121.219 272.5,121C 265.548,119.603 258.548,119.27 251.5,120C 250.929,121.205 250.262,122.372 249.5,123.5C 248.949,121.587 248.782,119.587 249,117.5C 247.806,116.57 246.473,115.903 245,115.5C 243.756,117.576 241.923,118.576 239.5,118.5C 233.997,113.465 234.997,110.298 242.5,109C 245.872,115.996 248.039,115.83 249,108.5C 251.366,106.788 253.699,105.122 256,103.5C 260.253,101.68 264.087,102.18 267.5,105C 269.81,105.497 272.143,105.663 274.5,105.5C 273.282,106.161 271.949,106.828 270.5,107.5C 272.074,108.631 273.741,108.798 275.5,108C 277.07,106.603 278.404,105.103 279.5,103.5C 279.5,105.167 279.5,106.833 279.5,108.5C 284.216,107.992 288.882,107.158 293.5,106C 297.051,104.323 298.384,101.49 297.5,97.5C 298.552,97.3505 299.552,97.5172 300.5,98C 302.76,99.9212 305.094,101.755 307.5,103.5 Z"/></g>
<g><path style="opacity:0.98" fill="#260d04" d="M 319.5,95.5 C 321.07,97.8511 321.903,100.518 322,103.5C 323.351,105.019 324.851,106.352 326.5,107.5C 326.043,108.298 325.376,108.631 324.5,108.5C 322.589,107.925 320.922,106.925 319.5,105.5C 319.946,102.99 319.28,100.99 317.5,99.5C 317.489,97.9826 316.823,96.8159 315.5,96C 316.793,95.51 318.127,95.3433 319.5,95.5 Z"/></g>
<g><path style="opacity:1" fill="#ca7827" d="M 316.5,107.5 C 318.801,113.824 319.801,120.491 319.5,127.5C 318.698,128.952 318.198,130.618 318,132.5C 317.667,146.833 317.333,161.167 317,175.5C 310.333,176.167 303.667,176.833 297,177.5C 296.667,177.167 296.333,176.833 296,176.5C 294.408,180.56 292.741,183.894 291,186.5C 290.212,192.22 290.379,197.886 291.5,203.5C 290.624,204.251 289.624,204.751 288.5,205C 295.488,205.328 302.155,206.828 308.5,209.5C 308.196,210.15 307.863,210.817 307.5,211.5C 309.297,212.695 310.297,214.362 310.5,216.5C 310.5,216.833 310.5,217.167 310.5,217.5C 308.545,218.323 306.545,218.49 304.5,218C 302.318,215.326 299.651,213.159 296.5,211.5C 292.442,211.712 290.942,213.712 292,217.5C 294.674,219.682 296.841,222.349 298.5,225.5C 298.345,231.987 295.011,234.987 288.5,234.5C 289.111,231.039 287.944,228.372 285,226.5C 282.579,230.716 283.079,234.383 286.5,237.5C 287.489,241.107 287.823,244.774 287.5,248.5C 285.856,248.714 284.356,248.38 283,247.5C 280.669,251.837 277.003,254.171 272,254.5C 268.4,252.125 264.9,249.625 261.5,247C 257.844,246.164 254.51,246.831 251.5,249C 253.22,251.677 254.553,254.511 255.5,257.5C 255.333,258.833 255.167,260.167 255,261.5C 252.575,263.006 250.242,264.673 248,266.5C 246.937,268.916 246.104,271.416 245.5,274C 245.836,275.03 246.503,275.53 247.5,275.5C 247.5,275.833 247.5,276.167 247.5,276.5C 246.833,276.5 246.167,276.5 245.5,276.5C 244.001,277.678 243.001,279.345 242.5,281.5C 240.833,282.333 239.167,283.167 237.5,284C 230.172,284.049 222.839,283.715 215.5,283C 214.416,275.161 213.249,267.327 212,259.5C 209.049,264.42 207.549,269.754 207.5,275.5C 206.5,275.5 205.5,275.5 204.5,275.5C 204.666,268.492 204.5,261.492 204,254.5C 203.79,252.942 203.29,251.609 202.5,250.5C 202.315,248.804 201.481,247.471 200,246.5C 198.742,241.649 199.576,237.315 202.5,233.5C 203.518,234.193 204.518,234.859 205.5,235.5C 207.042,236.301 208.708,236.634 210.5,236.5C 208.983,233.413 208.316,230.079 208.5,226.5C 209.895,228.054 210.561,227.721 210.5,225.5C 208.45,208.568 207.45,191.568 207.5,174.5C 204.685,175.126 202.185,176.46 200,178.5C 200.004,187.364 199.171,196.031 197.5,204.5C 196.167,204.5 194.833,204.5 193.5,204.5C 192.262,196.117 192.262,187.783 193.5,179.5C 194.485,176.943 195.485,174.276 196.5,171.5C 198.261,170.965 199.594,169.965 200.5,168.5C 203.556,169.35 206.056,171.016 208,173.5C 208.333,181.167 208.667,188.833 209,196.5C 209.684,198.359 210.684,200.026 212,201.5C 213.804,198.986 213.97,196.319 212.5,193.5C 213.611,192.389 214.278,191.055 214.5,189.5C 212.908,183.147 212.575,176.814 213.5,170.5C 211.833,170.5 210.167,170.5 208.5,170.5C 208.5,168.833 208.5,167.167 208.5,165.5C 210.03,166.067 211.53,166.733 213,167.5C 213.333,162.833 213.667,158.167 214,153.5C 215.667,151.833 217.333,150.167 219,148.5C 219.249,151.832 220.082,154.999 221.5,158C 221.241,159.261 220.574,160.261 219.5,161C 220.308,161.308 220.975,161.808 221.5,162.5C 219.973,171.628 218.973,180.795 218.5,190C 219.586,193.259 220.92,196.426 222.5,199.5C 224.059,200.074 225.559,200.74 227,201.5C 229.882,200.603 232.882,200.603 236,201.5C 236.689,200.643 237.522,199.977 238.5,199.5C 240.584,194.765 241.918,189.765 242.5,184.5C 242.514,179.219 242.181,173.886 241.5,168.5C 240.16,167.133 238.827,165.8 237.5,164.5C 237.629,162.784 237.962,161.117 238.5,159.5C 239.795,154.872 242.795,151.872 247.5,150.5C 247.851,148.131 248.018,145.797 248,143.5C 246.89,141.963 245.39,141.297 243.5,141.5C 244.069,137.671 243.402,134.337 241.5,131.5C 241.5,131.167 241.5,130.833 241.5,130.5C 241.5,129.5 241.5,128.5 241.5,127.5C 242.497,127.53 243.164,127.03 243.5,126C 241.518,123.85 240.184,121.35 239.5,118.5C 241.923,118.576 243.756,117.576 245,115.5C 246.473,115.903 247.806,116.57 249,117.5C 248.782,119.587 248.949,121.587 249.5,123.5C 250.262,122.372 250.929,121.205 251.5,120C 258.548,119.27 265.548,119.603 272.5,121C 271.062,121.219 269.729,121.719 268.5,122.5C 269.025,123.192 269.692,123.692 270.5,124C 273.896,123.778 277.23,123.945 280.5,124.5C 282.623,124.78 283.956,123.947 284.5,122C 283.427,120.584 283.427,119.25 284.5,118C 283.833,117.333 283.167,116.667 282.5,116C 284.269,113.731 284.935,111.398 284.5,109C 291.516,108.333 298.183,107.166 304.5,105.5C 306.607,106.637 308.773,107.637 311,108.5C 312.766,107.767 314.599,107.433 316.5,107.5 Z"/></g>
<g><path style="opacity:0.463" fill="#956c4d" d="M 230.5,105.5 C 230.649,106.552 230.483,107.552 230,108.5C 225.935,112.395 222.102,116.395 218.5,120.5C 221.747,114.917 225.747,109.917 230.5,105.5 Z"/></g>
<g><path style="opacity:0.996" fill="#8d5c38" d="M 245.5,102.5 C 245.38,103.586 244.713,104.253 243.5,104.5C 241.116,105.012 238.783,105.679 236.5,106.5C 235.702,106.957 235.369,107.624 235.5,108.5C 235.573,110.027 234.906,111.027 233.5,111.5C 231.394,113.272 229.727,115.438 228.5,118C 227.099,118.41 225.766,118.91 224.5,119.5C 228.44,114.865 232.107,109.865 235.5,104.5C 238.821,103.67 242.154,103.003 245.5,102.5 Z"/></g>
<g><path style="opacity:1" fill="#c17c30" d="M 270.5,99.5 C 271.833,100.833 273.167,102.167 274.5,103.5C 274.5,104.167 274.5,104.833 274.5,105.5C 272.143,105.663 269.81,105.497 267.5,105C 264.087,102.18 260.253,101.68 256,103.5C 253.699,105.122 251.366,106.788 249,108.5C 248.039,115.83 245.872,115.996 242.5,109C 234.997,110.298 233.997,113.465 239.5,118.5C 240.184,121.35 241.518,123.85 243.5,126C 243.164,127.03 242.497,127.53 241.5,127.5C 238.988,126.072 236.322,125.572 233.5,126C 232.748,126.671 232.414,127.504 232.5,128.5C 232.167,128.5 231.833,128.5 231.5,128.5C 229.621,132.009 226.621,133.342 222.5,132.5C 222.336,129.813 222.503,127.146 223,124.5C 228.232,121.448 231.732,117.114 233.5,111.5C 234.906,111.027 235.573,110.027 235.5,108.5C 240.028,107.051 244.695,106.217 249.5,106C 250.5,105 251.5,104 252.5,103C 258.342,100.906 264.342,99.7394 270.5,99.5 Z"/></g>
<g><path style="opacity:0.816" fill="#472412" d="M 260.5,95.5 C 259.041,95.4326 257.708,95.7659 256.5,96.5C 252.809,98.5414 249.142,100.541 245.5,102.5C 242.154,103.003 238.821,103.67 235.5,104.5C 232.107,109.865 228.44,114.865 224.5,119.5C 222.469,122.223 220.802,125.223 219.5,128.5C 213.615,130.384 210.282,134.384 209.5,140.5C 208.985,142.751 207.985,144.751 206.5,146.5C 207.657,143.693 207.657,141.026 206.5,138.5C 206.629,136.784 206.962,135.117 207.5,133.5C 207.5,133.167 207.5,132.833 207.5,132.5C 209.5,131.167 211.167,129.5 212.5,127.5C 215.5,126.5 217.5,124.5 218.5,121.5C 218.5,121.167 218.5,120.833 218.5,120.5C 222.102,116.395 225.935,112.395 230,108.5C 230.483,107.552 230.649,106.552 230.5,105.5C 233.311,102.15 236.978,100.65 241.5,101C 244.071,99.5462 246.738,98.3795 249.5,97.5C 251.697,96.1554 254.03,94.9888 256.5,94C 259.426,93.7822 262.26,93.2822 265,92.5C 265.167,92.8333 265.333,93.1667 265.5,93.5C 263.709,94.1698 262.042,94.8365 260.5,95.5 Z"/></g>
<g><path style="opacity:0.537" fill="#65442e" d="M 319.5,94.5 C 320.458,94.9528 321.292,95.6195 322,96.5C 323.072,101.91 326.072,105.91 331,108.5C 331.561,110.725 332.561,112.725 334,114.5C 342.457,118.408 345.957,125.074 344.5,134.5C 343.442,133.4 342.608,132.066 342,130.5C 342.785,123.635 339.952,119.135 333.5,117C 332.104,114.292 330.437,111.792 328.5,109.5C 328.167,110 327.833,110.5 327.5,111C 328.479,113.433 329.145,115.933 329.5,118.5C 326.999,115.643 325.332,112.309 324.5,108.5C 325.376,108.631 326.043,108.298 326.5,107.5C 324.851,106.352 323.351,105.019 322,103.5C 321.903,100.518 321.07,97.8511 319.5,95.5C 319.5,95.1667 319.5,94.8333 319.5,94.5 Z"/></g>
<g><path style="opacity:1" fill="#9b643e" d="M 319.5,105.5 C 320.922,106.925 322.589,107.925 324.5,108.5C 325.332,112.309 326.999,115.643 329.5,118.5C 329.5,119.167 329.833,119.5 330.5,119.5C 332.149,121.752 334.315,123.419 337,124.5C 337.574,130.306 338.741,135.972 340.5,141.5C 339.778,141.918 339.278,142.584 339,143.5C 338.329,142.748 337.496,142.414 336.5,142.5C 335.139,138.383 334.139,134.05 333.5,129.5C 331.894,127.488 330.727,125.155 330,122.5C 322.94,119.048 319.44,113.381 319.5,105.5 Z"/></g>
<g><path style="opacity:0.361" fill="#a37c60" d="M 218.5,121.5 C 217.5,124.5 215.5,126.5 212.5,127.5C 214.167,125.167 216.167,123.167 218.5,121.5 Z"/></g>
<g><path style="opacity:1" fill="#773f19" d="M 241.5,127.5 C 241.5,128.5 241.5,129.5 241.5,130.5C 239.5,130.5 237.5,130.5 235.5,130.5C 235.946,133.01 235.28,135.01 233.5,136.5C 233.938,134.874 234.272,133.207 234.5,131.5C 234.36,129.97 233.693,128.97 232.5,128.5C 232.414,127.504 232.748,126.671 233.5,126C 236.322,125.572 238.988,126.072 241.5,127.5 Z"/></g>
<g><path style="opacity:0.341" fill="#aa886b" d="M 212.5,127.5 C 211.167,129.5 209.5,131.167 207.5,132.5C 208.167,129.833 209.833,128.167 212.5,127.5 Z"/></g>
<g><path style="opacity:1" fill="#af6529" d="M 307.5,103.5 C 310.547,103.214 313.547,103.214 316.5,103.5C 317.778,103.782 318.778,104.449 319.5,105.5C 319.44,113.381 322.94,119.048 330,122.5C 330.727,125.155 331.894,127.488 333.5,129.5C 334.139,134.05 335.139,138.383 336.5,142.5C 337.924,152.097 338.924,161.764 339.5,171.5C 339.444,173.64 338.777,175.306 337.5,176.5C 337.665,172.818 337.499,169.152 337,165.5C 336,166.167 335,166.833 334,167.5C 334.113,171.263 332.947,174.43 330.5,177C 327.805,177.254 325.305,177.421 323,177.5C 322.802,175.618 322.302,173.952 321.5,172.5C 321.5,171.833 321.5,171.167 321.5,170.5C 322.167,170.833 322.833,171.167 323.5,171.5C 324.163,174.423 325.83,175.09 328.5,173.5C 333.287,164.657 334.787,155.323 333,145.5C 331.956,144.377 331.29,143.044 331,141.5C 329.436,141.088 327.936,140.755 326.5,140.5C 325.432,139.566 324.099,139.232 322.5,139.5C 322.768,141.099 322.434,142.432 321.5,143.5C 321.768,141.901 321.434,140.568 320.5,139.5C 319.181,137.395 319.514,135.395 321.5,133.5C 319.914,131.827 319.247,129.827 319.5,127.5C 319.801,120.491 318.801,113.824 316.5,107.5C 313.859,105.677 310.859,104.343 307.5,103.5 Z"/></g>
<g><path style="opacity:1" fill="#5f280f" d="M 231.5,128.5 C 231.833,128.5 232.167,128.5 232.5,128.5C 233.693,128.97 234.36,129.97 234.5,131.5C 234.272,133.207 233.938,134.874 233.5,136.5C 231.983,136.511 230.816,137.177 230,138.5C 229.626,140.491 228.793,142.158 227.5,143.5C 225.007,143.869 224.34,143.203 225.5,141.5C 225.343,140.127 225.51,138.793 226,137.5C 227.709,135.825 229.376,134.158 231,132.5C 231.49,131.207 231.657,129.873 231.5,128.5 Z"/></g>
<g><path style="opacity:1" fill="#4f2c19" d="M 330.5,119.5 C 333.89,120.276 336.724,121.943 339,124.5C 339.777,131.561 341.277,138.394 343.5,145C 342.923,147.137 342.59,149.304 342.5,151.5C 342.167,151.5 341.833,151.5 341.5,151.5C 341.658,148.098 341.324,144.764 340.5,141.5C 338.741,135.972 337.574,130.306 337,124.5C 334.315,123.419 332.149,121.752 330.5,119.5 Z"/></g>
<g><path style="opacity:1" fill="#b17b3e" d="M 233.5,111.5 C 231.732,117.114 228.232,121.448 223,124.5C 222.503,127.146 222.336,129.813 222.5,132.5C 226.621,133.342 229.621,132.009 231.5,128.5C 231.657,129.873 231.49,131.207 231,132.5C 229.376,134.158 227.709,135.825 226,137.5C 225.51,138.793 225.343,140.127 225.5,141.5C 224.833,141.5 224.167,141.5 223.5,141.5C 221.801,140.489 220.301,139.155 219,137.5C 217.535,136.67 216.035,136.504 214.5,137C 213.642,139.882 212.142,142.382 210,144.5C 209.498,147.513 208.998,150.513 208.5,153.5C 202.406,154.438 199.239,158.105 199,164.5C 197.727,167.597 195.893,170.264 193.5,172.5C 192.833,173.167 192.167,173.833 191.5,174.5C 191.287,171.549 191.954,168.882 193.5,166.5C 194.861,164.15 196.194,161.816 197.5,159.5C 199.063,156.099 201.563,153.432 205,151.5C 205.791,150.255 206.291,148.922 206.5,147.5C 206.5,147.167 206.5,146.833 206.5,146.5C 207.985,144.751 208.985,142.751 209.5,140.5C 211.024,138.592 212.357,136.425 213.5,134C 215.025,132.991 216.692,132.491 218.5,132.5C 218.433,131.041 218.766,129.708 219.5,128.5C 220.802,125.223 222.469,122.223 224.5,119.5C 225.766,118.91 227.099,118.41 228.5,118C 229.727,115.438 231.394,113.272 233.5,111.5 Z"/></g>
<g><path style="opacity:0.533" fill="#6b4b39" d="M 344.5,134.5 C 346.074,136.102 346.741,138.102 346.5,140.5C 344.926,138.898 344.259,136.898 344.5,134.5 Z"/></g>
<g><path style="opacity:1" fill="#bb7d47" d="M 241.5,130.5 C 241.5,130.833 241.5,131.167 241.5,131.5C 238.312,134.305 235.645,137.638 233.5,141.5C 231.374,142.37 229.374,143.37 227.5,144.5C 227.5,144.167 227.5,143.833 227.5,143.5C 228.793,142.158 229.626,140.491 230,138.5C 230.816,137.177 231.983,136.511 233.5,136.5C 235.28,135.01 235.946,133.01 235.5,130.5C 237.5,130.5 239.5,130.5 241.5,130.5 Z"/></g>
<g><path style="opacity:1" fill="#8f6a47" d="M 219.5,128.5 C 218.766,129.708 218.433,131.041 218.5,132.5C 216.692,132.491 215.025,132.991 213.5,134C 212.357,136.425 211.024,138.592 209.5,140.5C 210.282,134.384 213.615,130.384 219.5,128.5 Z"/></g>
<g><path style="opacity:0.935" fill="#2f1a13" d="M 344.5,134.5 C 344.259,136.898 344.926,138.898 346.5,140.5C 347.742,142.968 347.742,145.468 346.5,148C 346.684,149.376 347.351,150.209 348.5,150.5C 350.513,156.334 350.846,162.334 349.5,168.5C 349.167,168.5 348.833,168.5 348.5,168.5C 348.851,163.022 348.184,157.688 346.5,152.5C 344.889,153.32 344.222,154.654 344.5,156.5C 343.463,155.07 342.796,153.403 342.5,151.5C 342.59,149.304 342.923,147.137 343.5,145C 341.277,138.394 339.777,131.561 339,124.5C 336.724,121.943 333.89,120.276 330.5,119.5C 329.833,119.5 329.5,119.167 329.5,118.5C 329.145,115.933 328.479,113.433 327.5,111C 327.833,110.5 328.167,110 328.5,109.5C 330.437,111.792 332.104,114.292 333.5,117C 339.952,119.135 342.785,123.635 342,130.5C 342.608,132.066 343.442,133.4 344.5,134.5 Z"/></g>
<g><path style="opacity:1" fill="#6a3412" d="M 326.5,140.5 C 327.108,143.327 328.108,145.993 329.5,148.5C 327.264,147.611 325.264,146.278 323.5,144.5C 322.614,145.325 322.281,146.325 322.5,147.5C 321.566,146.432 321.232,145.099 321.5,143.5C 322.434,142.432 322.768,141.099 322.5,139.5C 324.099,139.232 325.432,139.566 326.5,140.5 Z"/></g>
<g><path style="opacity:0.318" fill="#69503c" d="M 346.5,140.5 C 347.117,140.611 347.617,140.944 348,141.5C 348.498,144.482 348.665,147.482 348.5,150.5C 347.351,150.209 346.684,149.376 346.5,148C 347.742,145.468 347.742,142.968 346.5,140.5 Z"/></g>
<g><path style="opacity:1" fill="#b77948" d="M 320.5,139.5 C 321.434,140.568 321.768,141.901 321.5,143.5C 321.232,145.099 321.566,146.432 322.5,147.5C 322.833,148.167 323.167,148.833 323.5,149.5C 323.744,156.692 323.077,163.692 321.5,170.5C 320.506,160.347 320.172,150.014 320.5,139.5 Z"/></g>
<g><path style="opacity:0.443" fill="#876342" d="M 207.5,133.5 C 206.962,135.117 206.629,136.784 206.5,138.5C 204.456,145.222 200.456,150.556 194.5,154.5C 196.388,151.101 198.888,148.101 202,145.5C 204.137,141.491 205.97,137.491 207.5,133.5 Z"/></g>
<g><path style="opacity:0.839" fill="#381f0d" d="M 206.5,138.5 C 207.657,141.026 207.657,143.693 206.5,146.5C 206.5,146.833 206.5,147.167 206.5,147.5C 204.193,150.638 201.359,153.305 198,155.5C 197.51,156.793 197.343,158.127 197.5,159.5C 196.194,161.816 194.861,164.15 193.5,166.5C 192.542,166.953 191.708,167.619 191,168.5C 188.735,174.895 187.902,181.562 188.5,188.5C 188.5,189.167 188.5,189.833 188.5,190.5C 188.167,190.5 187.833,190.5 187.5,190.5C 186.51,184.69 186.177,178.69 186.5,172.5C 187.243,167.484 189.743,163.484 194,160.5C 194.49,159.207 194.657,157.873 194.5,156.5C 194.5,155.833 194.5,155.167 194.5,154.5C 200.456,150.556 204.456,145.222 206.5,138.5 Z"/></g>
<g><path style="opacity:1" fill="#74562b" d="M 206.5,147.5 C 206.291,148.922 205.791,150.255 205,151.5C 201.563,153.432 199.063,156.099 197.5,159.5C 197.343,158.127 197.51,156.793 198,155.5C 201.359,153.305 204.193,150.638 206.5,147.5 Z"/></g>
<g><path style="opacity:1" fill="#4a1a05" d="M 329.5,148.5 C 329.784,150.415 329.451,152.081 328.5,153.5C 327.683,155.969 327.183,158.635 327,161.5C 326.333,162.167 325.667,162.833 325,163.5C 324.271,159.623 324.438,155.789 325.5,152C 325.361,150.699 324.695,149.866 323.5,149.5C 323.167,148.833 322.833,148.167 322.5,147.5C 322.281,146.325 322.614,145.325 323.5,144.5C 325.264,146.278 327.264,147.611 329.5,148.5 Z"/></g>
<g><path style="opacity:0.953" fill="#180904" d="M 348.5,168.5 C 347.699,170.042 347.366,171.708 347.5,173.5C 346.037,176.203 345.204,179.203 345,182.5C 345.413,174.004 345.246,165.67 344.5,157.5C 344.5,157.167 344.5,156.833 344.5,156.5C 344.222,154.654 344.889,153.32 346.5,152.5C 348.184,157.688 348.851,163.022 348.5,168.5 Z"/></g>
<g><path style="opacity:1" fill="#713718" d="M 323.5,149.5 C 324.695,149.866 325.361,150.699 325.5,152C 324.438,155.789 324.271,159.623 325,163.5C 325.667,162.833 326.333,162.167 327,161.5C 327.183,158.635 327.683,155.969 328.5,153.5C 328.665,157.182 328.499,160.848 328,164.5C 325.954,166.7 324.954,169.367 325,172.5C 324.617,171.944 324.117,171.611 323.5,171.5C 322.833,171.167 322.167,170.833 321.5,170.5C 323.077,163.692 323.744,156.692 323.5,149.5 Z"/></g>
<g><path style="opacity:1" fill="#a16533" d="M 326.5,140.5 C 327.936,140.755 329.436,141.088 331,141.5C 331.29,143.044 331.956,144.377 333,145.5C 334.787,155.323 333.287,164.657 328.5,173.5C 325.83,175.09 324.163,174.423 323.5,171.5C 324.117,171.611 324.617,171.944 325,172.5C 324.954,169.367 325.954,166.7 328,164.5C 328.499,160.848 328.665,157.182 328.5,153.5C 329.451,152.081 329.784,150.415 329.5,148.5C 328.108,145.993 327.108,143.327 326.5,140.5 Z"/></g>
<g><path style="opacity:0.427" fill="#957455" d="M 194.5,156.5 C 194.657,157.873 194.49,159.207 194,160.5C 189.743,163.484 187.243,167.484 186.5,172.5C 185.833,176.833 185.167,181.167 184.5,185.5C 184.149,179.738 184.649,174.072 186,168.5C 188.667,164.341 191.5,160.341 194.5,156.5 Z"/></g>
<g><path style="opacity:1" fill="#805c2d" d="M 193.5,166.5 C 191.954,168.882 191.287,171.549 191.5,174.5C 190.564,178.735 190.231,183.069 190.5,187.5C 189.833,187.833 189.167,188.167 188.5,188.5C 187.902,181.562 188.735,174.895 191,168.5C 191.708,167.619 192.542,166.953 193.5,166.5 Z"/></g>
<g><path style="opacity:1" fill="#c07734" d="M 238.5,159.5 C 237.962,161.117 237.629,162.784 237.5,164.5C 236.624,164.369 235.957,164.702 235.5,165.5C 237.618,167.439 237.951,169.606 236.5,172C 239.458,174.128 240.124,176.794 238.5,180C 239.578,180.674 240.245,181.674 240.5,183C 237.906,186.703 236.24,190.869 235.5,195.5C 232.15,195.665 228.817,195.498 225.5,195C 224.667,194.167 223.833,193.333 223,192.5C 221.543,184.531 221.043,176.365 221.5,168C 223.562,166.468 224.896,164.468 225.5,162C 229.993,161.734 234.326,160.901 238.5,159.5 Z"/></g>
<g><path style="opacity:1" fill="#cf761f" d="M 208.5,165.5 C 208.5,167.167 208.5,168.833 208.5,170.5C 210.167,170.5 211.833,170.5 213.5,170.5C 212.575,176.814 212.908,183.147 214.5,189.5C 214.278,191.055 213.611,192.389 212.5,193.5C 213.97,196.319 213.804,198.986 212,201.5C 210.684,200.026 209.684,198.359 209,196.5C 208.667,188.833 208.333,181.167 208,173.5C 206.056,171.016 203.556,169.35 200.5,168.5C 200.168,164.324 201.502,160.824 204.5,158C 205.635,157.251 206.635,157.417 207.5,158.5C 208.374,160.747 208.708,163.08 208.5,165.5 Z"/></g>
<g><path style="opacity:1" fill="#c47933" d="M 319.5,127.5 C 319.247,129.827 319.914,131.827 321.5,133.5C 319.514,135.395 319.181,137.395 320.5,139.5C 320.172,150.014 320.506,160.347 321.5,170.5C 321.5,171.167 321.5,171.833 321.5,172.5C 321.434,175.664 320.434,178.498 318.5,181C 319.566,184.313 318.899,187.313 316.5,190C 315.551,190.617 314.718,190.451 314,189.5C 311.433,195.14 310.933,200.973 312.5,207C 311.307,208.095 309.973,208.928 308.5,209.5C 302.155,206.828 295.488,205.328 288.5,205C 289.624,204.751 290.624,204.251 291.5,203.5C 290.379,197.886 290.212,192.22 291,186.5C 292.741,183.894 294.408,180.56 296,176.5C 296.333,176.833 296.667,177.167 297,177.5C 303.667,176.833 310.333,176.167 317,175.5C 317.333,161.167 317.667,146.833 318,132.5C 318.198,130.618 318.698,128.952 319.5,127.5 Z"/></g>
<g><path style="opacity:0.62" fill="#5a4230" d="M 348.5,168.5 C 348.833,168.5 349.167,168.5 349.5,168.5C 349.666,176.507 349.5,184.507 349,192.5C 346.898,198.02 344.731,203.354 342.5,208.5C 343.255,202.273 344.755,196.273 347,190.5C 347.019,184.768 347.186,179.102 347.5,173.5C 347.366,171.708 347.699,170.042 348.5,168.5 Z"/></g>
<g><path style="opacity:1" fill="#c67a2f" d="M 241.5,131.5 C 243.402,134.337 244.069,137.671 243.5,141.5C 245.39,141.297 246.89,141.963 248,143.5C 248.018,145.797 247.851,148.131 247.5,150.5C 242.795,151.872 239.795,154.872 238.5,159.5C 234.326,160.901 229.993,161.734 225.5,162C 224.896,164.468 223.562,166.468 221.5,168C 221.043,176.365 221.543,184.531 223,192.5C 223.833,193.333 224.667,194.167 225.5,195C 228.817,195.498 232.15,195.665 235.5,195.5C 236.24,190.869 237.906,186.703 240.5,183C 240.245,181.674 239.578,180.674 238.5,180C 240.124,176.794 239.458,174.128 236.5,172C 237.951,169.606 237.618,167.439 235.5,165.5C 235.957,164.702 236.624,164.369 237.5,164.5C 238.827,165.8 240.16,167.133 241.5,168.5C 242.181,173.886 242.514,179.219 242.5,184.5C 241.918,189.765 240.584,194.765 238.5,199.5C 237.522,199.977 236.689,200.643 236,201.5C 232.882,200.603 229.882,200.603 227,201.5C 225.559,200.74 224.059,200.074 222.5,199.5C 220.92,196.426 219.586,193.259 218.5,190C 218.973,180.795 219.973,171.628 221.5,162.5C 220.975,161.808 220.308,161.308 219.5,161C 220.574,160.261 221.241,159.261 221.5,158C 220.082,154.999 219.249,151.832 219,148.5C 217.333,150.167 215.667,151.833 214,153.5C 213.667,158.167 213.333,162.833 213,167.5C 211.53,166.733 210.03,166.067 208.5,165.5C 208.708,163.08 208.374,160.747 207.5,158.5C 206.635,157.417 205.635,157.251 204.5,158C 201.502,160.824 200.168,164.324 200.5,168.5C 199.594,169.965 198.261,170.965 196.5,171.5C 195.485,174.276 194.485,176.943 193.5,179.5C 193.715,176.856 193.715,174.523 193.5,172.5C 195.893,170.264 197.727,167.597 199,164.5C 199.239,158.105 202.406,154.438 208.5,153.5C 208.998,150.513 209.498,147.513 210,144.5C 212.142,142.382 213.642,139.882 214.5,137C 216.035,136.504 217.535,136.67 219,137.5C 220.301,139.155 221.801,140.489 223.5,141.5C 222.032,143.916 221.365,146.583 221.5,149.5C 224.107,148.684 226.107,147.017 227.5,144.5C 229.374,143.37 231.374,142.37 233.5,141.5C 235.645,137.638 238.312,134.305 241.5,131.5 Z"/></g>
<g><path style="opacity:1" fill="#78330b" d="M 230.5,168.5 C 233.08,171.8 232.747,175.133 229.5,178.5C 230.77,182.484 230.77,186.484 229.5,190.5C 228.729,186.592 227.729,182.758 226.5,179C 228.351,175.716 229.684,172.216 230.5,168.5 Z"/></g>
<g><path style="opacity:1" fill="#9d5216" d="M 223.5,141.5 C 224.167,141.5 224.833,141.5 225.5,141.5C 224.34,143.203 225.007,143.869 227.5,143.5C 227.5,143.833 227.5,144.167 227.5,144.5C 226.107,147.017 224.107,148.684 221.5,149.5C 221.365,146.583 222.032,143.916 223.5,141.5 Z"/></g>
<g><path style="opacity:0.925" fill="#27140a" d="M 344.5,157.5 C 345.246,165.67 345.413,174.004 345,182.5C 345.204,179.203 346.037,176.203 347.5,173.5C 347.186,179.102 347.019,184.768 347,190.5C 344.755,196.273 343.255,202.273 342.5,208.5C 342.5,208.833 342.5,209.167 342.5,209.5C 342.167,209.5 341.833,209.5 341.5,209.5C 341.5,207.5 341.5,205.5 341.5,203.5C 340.5,203.5 339.5,203.5 338.5,203.5C 338.664,206.187 338.497,208.854 338,211.5C 337.617,212.056 337.117,212.389 336.5,212.5C 336.833,211.167 337.167,209.833 337.5,208.5C 337.424,204.616 338.09,200.95 339.5,197.5C 341.026,195.55 342.026,193.217 342.5,190.5C 343.499,179.518 344.166,168.518 344.5,157.5 Z"/></g>
<g><path style="opacity:1" fill="#734e32" d="M 341.5,151.5 C 341.833,151.5 342.167,151.5 342.5,151.5C 342.796,153.403 343.463,155.07 344.5,156.5C 344.5,156.833 344.5,157.167 344.5,157.5C 344.166,168.518 343.499,179.518 342.5,190.5C 342.026,193.217 341.026,195.55 339.5,197.5C 340.423,190.891 340.756,184.224 340.5,177.5C 341.493,169.016 341.826,160.349 341.5,151.5 Z"/></g>
<g><path style="opacity:1" fill="#6a2e0d" d="M 306.5,182.5 C 305.099,186.631 304.433,190.964 304.5,195.5C 301.899,196.28 299.899,197.946 298.5,200.5C 297.306,198.484 297.306,196.484 298.5,194.5C 299.57,191.941 301.07,189.608 303,187.5C 303.253,184.8 303.253,182.133 303,179.5C 304.729,179.974 305.895,180.974 306.5,182.5 Z"/></g>
<g><path style="opacity:1" fill="#a77442" d="M 190.5,187.5 C 190.304,200.574 191.137,213.574 193,226.5C 193.714,230.886 195.381,234.886 198,238.5C 198.498,241.817 198.665,245.15 198.5,248.5C 197.833,248.167 197.167,247.833 196.5,247.5C 196.5,247.167 196.5,246.833 196.5,246.5C 196.281,241.986 194.947,237.986 192.5,234.5C 191.225,228.087 190.225,221.754 189.5,215.5C 189.54,212.119 189.207,208.786 188.5,205.5C 188.5,200.5 188.5,195.5 188.5,190.5C 188.5,189.833 188.5,189.167 188.5,188.5C 189.167,188.167 189.833,187.833 190.5,187.5 Z"/></g>
<g><path style="opacity:1" fill="#93521f" d="M 306.5,182.5 C 308.729,184.099 309.062,186.099 307.5,188.5C 306.883,188.611 306.383,188.944 306,189.5C 305.503,191.81 305.337,194.143 305.5,196.5C 302.567,197.432 300.567,199.432 299.5,202.5C 297.5,202.5 295.5,202.5 293.5,202.5C 293.351,201.448 293.517,200.448 294,199.5C 295.524,197.729 297.024,196.062 298.5,194.5C 297.306,196.484 297.306,198.484 298.5,200.5C 299.899,197.946 301.899,196.28 304.5,195.5C 304.433,190.964 305.099,186.631 306.5,182.5 Z"/></g>
<g><path style="opacity:1" fill="#b46525" d="M 337.5,176.5 C 336.502,181.494 335.335,186.494 334,191.5C 333.333,193.5 332,194.833 330,195.5C 328.719,200.14 326.886,204.474 324.5,208.5C 323.576,215.128 323.243,221.794 323.5,228.5C 322.518,229.141 321.518,229.807 320.5,230.5C 319.5,229.5 318.5,228.5 317.5,227.5C 317.808,226.692 318.308,226.025 319,225.5C 319.499,221.514 319.666,217.514 319.5,213.5C 318.022,213.238 316.689,213.571 315.5,214.5C 315.006,216.026 314.339,217.359 313.5,218.5C 313.027,217.094 312.027,216.427 310.5,216.5C 310.297,214.362 309.297,212.695 307.5,211.5C 307.863,210.817 308.196,210.15 308.5,209.5C 309.973,208.928 311.307,208.095 312.5,207C 310.933,200.973 311.433,195.14 314,189.5C 314.718,190.451 315.551,190.617 316.5,190C 318.899,187.313 319.566,184.313 318.5,181C 320.434,178.498 321.434,175.664 321.5,172.5C 322.302,173.952 322.802,175.618 323,177.5C 325.305,177.421 327.805,177.254 330.5,177C 332.947,174.43 334.113,171.263 334,167.5C 335,166.833 336,166.167 337,165.5C 337.499,169.152 337.665,172.818 337.5,176.5 Z"/></g>
<g><path style="opacity:0.889" fill="#210f04" d="M 186.5,201.5 C 186.5,202.167 186.5,202.833 186.5,203.5C 186.715,205.179 186.048,206.179 184.5,206.5C 183.309,201.762 183.476,197.096 185,192.5C 185.181,195.695 185.681,198.695 186.5,201.5 Z"/></g>
<g><path style="opacity:1" fill="#87633f" d="M 187.5,190.5 C 187.833,190.5 188.167,190.5 188.5,190.5C 188.5,195.5 188.5,200.5 188.5,205.5C 187.833,204.833 187.167,204.167 186.5,203.5C 186.5,202.833 186.5,202.167 186.5,201.5C 186.552,197.802 186.886,194.135 187.5,190.5 Z"/></g>
<g><path style="opacity:1" fill="#ab6830" d="M 340.5,141.5 C 341.324,144.764 341.658,148.098 341.5,151.5C 341.826,160.349 341.493,169.016 340.5,177.5C 339.685,178.429 338.852,179.429 338,180.5C 337.667,183.833 337.333,187.167 337,190.5C 335.344,198.058 333.177,205.391 330.5,212.5C 329.833,212.5 329.167,212.5 328.5,212.5C 327.5,212.5 326.5,212.5 325.5,212.5C 325.666,217.179 325.499,221.845 325,226.5C 324.722,227.416 324.222,228.082 323.5,228.5C 323.243,221.794 323.576,215.128 324.5,208.5C 326.886,204.474 328.719,200.14 330,195.5C 332,194.833 333.333,193.5 334,191.5C 335.335,186.494 336.502,181.494 337.5,176.5C 338.777,175.306 339.444,173.64 339.5,171.5C 338.924,161.764 337.924,152.097 336.5,142.5C 337.496,142.414 338.329,142.748 339,143.5C 339.278,142.584 339.778,141.918 340.5,141.5 Z"/></g>
<g><path style="opacity:0.741" fill="#4a2c16" d="M 186.5,172.5 C 186.177,178.69 186.51,184.69 187.5,190.5C 186.886,194.135 186.552,197.802 186.5,201.5C 185.681,198.695 185.181,195.695 185,192.5C 183.476,197.096 183.309,201.762 184.5,206.5C 184.167,206.5 183.833,206.5 183.5,206.5C 183.5,205.833 183.5,205.167 183.5,204.5C 182.274,200.178 182.274,195.845 183.5,191.5C 183.517,189.435 183.85,187.435 184.5,185.5C 185.167,181.167 185.833,176.833 186.5,172.5 Z"/></g>
<g><path style="opacity:0.482" fill="#7d5939" d="M 183.5,191.5 C 182.274,195.845 182.274,200.178 183.5,204.5C 180.91,200.196 180.91,195.863 183.5,191.5 Z"/></g>
<g><path style="opacity:1" fill="#ba7740" d="M 307.5,188.5 C 308.466,190.792 309.133,193.292 309.5,196C 308.582,198.086 307.915,200.253 307.5,202.5C 304.833,202.5 302.167,202.5 299.5,202.5C 300.567,199.432 302.567,197.432 305.5,196.5C 305.337,194.143 305.503,191.81 306,189.5C 306.383,188.944 306.883,188.611 307.5,188.5 Z"/></g>
<g><path style="opacity:1" fill="#9a6841" d="M 340.5,177.5 C 340.756,184.224 340.423,190.891 339.5,197.5C 338.883,197.611 338.383,197.944 338,198.5C 337.147,202.671 335.981,206.671 334.5,210.5C 334.167,211.5 333.5,212.167 332.5,212.5C 331.833,212.5 331.167,212.5 330.5,212.5C 333.177,205.391 335.344,198.058 337,190.5C 337.333,187.167 337.667,183.833 338,180.5C 338.852,179.429 339.685,178.429 340.5,177.5 Z"/></g>
<g><path style="opacity:0.965" fill="#40210e" d="M 186.5,203.5 C 187.167,204.167 187.833,204.833 188.5,205.5C 189.207,208.786 189.54,212.119 189.5,215.5C 189.049,212.356 188.049,210.022 186.5,208.5C 185.5,208.167 184.833,207.5 184.5,206.5C 186.048,206.179 186.715,205.179 186.5,203.5 Z"/></g>
<g><path style="opacity:1" fill="#6c4426" d="M 339.5,197.5 C 338.09,200.95 337.424,204.616 337.5,208.5C 336.5,209.167 335.5,209.833 334.5,210.5C 335.981,206.671 337.147,202.671 338,198.5C 338.383,197.944 338.883,197.611 339.5,197.5 Z"/></g>
<g><path style="opacity:0.251" fill="#b59d87" d="M 183.5,208.5 C 184.117,208.611 184.617,208.944 185,209.5C 185.497,211.81 185.663,214.143 185.5,216.5C 184.629,213.997 183.963,211.33 183.5,208.5 Z"/></g>
<g><path style="opacity:1" fill="#c57932" d="M 310.5,217.5 C 310.5,218.833 310.5,220.167 310.5,221.5C 308.254,221.936 306.087,222.603 304,223.5C 301.793,227.624 300.293,231.957 299.5,236.5C 297.629,236.859 296.129,237.859 295,239.5C 294.847,242.151 294.013,244.484 292.5,246.5C 291.065,245.21 290.065,243.544 289.5,241.5C 288.657,243.231 288.657,245.065 289.5,247C 288.95,251.925 286.284,254.091 281.5,253.5C 281.773,255.451 281.107,256.951 279.5,258C 275.128,258.162 270.794,257.662 266.5,256.5C 265.416,256.685 264.416,257.018 263.5,257.5C 259.076,262.1 254.242,266.1 249,269.5C 248.187,271.436 247.687,273.436 247.5,275.5C 246.503,275.53 245.836,275.03 245.5,274C 246.104,271.416 246.937,268.916 248,266.5C 250.242,264.673 252.575,263.006 255,261.5C 255.167,260.167 255.333,258.833 255.5,257.5C 254.553,254.511 253.22,251.677 251.5,249C 254.51,246.831 257.844,246.164 261.5,247C 264.9,249.625 268.4,252.125 272,254.5C 277.003,254.171 280.669,251.837 283,247.5C 284.356,248.38 285.856,248.714 287.5,248.5C 287.823,244.774 287.489,241.107 286.5,237.5C 283.079,234.383 282.579,230.716 285,226.5C 287.944,228.372 289.111,231.039 288.5,234.5C 295.011,234.987 298.345,231.987 298.5,225.5C 296.841,222.349 294.674,219.682 292,217.5C 290.942,213.712 292.442,211.712 296.5,211.5C 299.651,213.159 302.318,215.326 304.5,218C 306.545,218.49 308.545,218.323 310.5,217.5 Z"/></g>
<g><path style="opacity:0.873" fill="#1f0e09" d="M 341.5,209.5 C 339.945,212.913 338.112,216.247 336,219.5C 335.501,223.486 335.334,227.486 335.5,231.5C 335.982,234.831 334.982,237.497 332.5,239.5C 330.833,240.167 329.167,240.833 327.5,241.5C 326.957,241.44 326.624,241.107 326.5,240.5C 328.192,238.641 329.692,236.641 331,234.5C 331.072,227.346 331.905,220.346 333.5,213.5C 334.791,213.737 335.791,213.404 336.5,212.5C 337.117,212.389 337.617,212.056 338,211.5C 338.497,208.854 338.664,206.187 338.5,203.5C 339.5,203.5 340.5,203.5 341.5,203.5C 341.5,205.5 341.5,207.5 341.5,209.5 Z"/></g>
<g><path style="opacity:1" fill="#613212" d="M 206.5,210.5 C 206.059,214.036 205.059,217.37 203.5,220.5C 203.628,222.955 204.628,224.955 206.5,226.5C 205.969,229.767 204.969,230.1 203.5,227.5C 199.955,224.336 198.789,220.336 200,215.5C 200.671,214.748 201.504,214.414 202.5,214.5C 203.434,213.432 203.768,212.099 203.5,210.5C 204.5,210.5 205.5,210.5 206.5,210.5 Z"/></g>
<g><path style="opacity:1" fill="#844216" d="M 310.5,216.5 C 312.027,216.427 313.027,217.094 313.5,218.5C 314.851,220.392 315.518,222.558 315.5,225C 315.392,226.681 314.725,227.848 313.5,228.5C 315.52,222.559 314.52,221.559 310.5,225.5C 310.5,224.167 310.5,222.833 310.5,221.5C 310.5,220.167 310.5,218.833 310.5,217.5C 310.5,217.167 310.5,216.833 310.5,216.5 Z"/></g>
<g><path style="opacity:0.961" fill="#2a160a" d="M 189.5,215.5 C 190.225,221.754 191.225,228.087 192.5,234.5C 192.784,236.415 192.451,238.081 191.5,239.5C 189.414,234.965 187.747,230.298 186.5,225.5C 187.102,219.874 187.102,214.207 186.5,208.5C 188.049,210.022 189.049,212.356 189.5,215.5 Z"/></g>
<g><path style="opacity:0.406" fill="#573d32" d="M 341.5,209.5 C 341.833,209.5 342.167,209.5 342.5,209.5C 338.96,216.454 336.626,223.787 335.5,231.5C 335.334,227.486 335.501,223.486 336,219.5C 338.112,216.247 339.945,212.913 341.5,209.5 Z"/></g>
<g><path style="opacity:1" fill="#8b5d3f" d="M 328.5,212.5 C 329.167,212.5 329.833,212.5 330.5,212.5C 331.167,212.5 331.833,212.5 332.5,212.5C 331.217,214.606 330.384,216.94 330,219.5C 329.71,223.863 329.21,228.196 328.5,232.5C 325.232,236.089 322.232,239.756 319.5,243.5C 320.179,239.144 322.179,235.477 325.5,232.5C 326.741,225.824 327.741,219.157 328.5,212.5 Z"/></g>
<g><path style="opacity:1" fill="#b57d4e" d="M 310.5,221.5 C 310.5,222.833 310.5,224.167 310.5,225.5C 310.5,225.833 310.5,226.167 310.5,226.5C 307.911,226.461 305.911,227.461 304.5,229.5C 303.698,230.952 303.198,232.618 303,234.5C 302.184,235.823 301.017,236.489 299.5,236.5C 300.293,231.957 301.793,227.624 304,223.5C 306.087,222.603 308.254,221.936 310.5,221.5 Z"/></g>
<g><path style="opacity:1" fill="#3d1405" d="M 310.5,226.5 C 311.376,226.369 312.043,226.702 312.5,227.5C 311.564,228.974 310.23,229.974 308.5,230.5C 305.147,241.493 303.814,241.16 304.5,229.5C 305.911,227.461 307.911,226.461 310.5,226.5 Z"/></g>
<g><path style="opacity:1" fill="#be7a36" d="M 193.5,172.5 C 193.715,174.523 193.715,176.856 193.5,179.5C 192.262,187.783 192.262,196.117 193.5,204.5C 194.833,204.5 196.167,204.5 197.5,204.5C 199.171,196.031 200.004,187.364 200,178.5C 202.185,176.46 204.685,175.126 207.5,174.5C 207.45,191.568 208.45,208.568 210.5,225.5C 210.561,227.721 209.895,228.054 208.5,226.5C 207.569,224.967 206.902,223.3 206.5,221.5C 207.719,217.68 207.719,214.013 206.5,210.5C 206.5,208.167 206.5,205.833 206.5,203.5C 205.5,203.5 204.5,203.5 203.5,203.5C 203.214,205.277 202.547,206.944 201.5,208.5C 202.156,210.453 202.489,212.453 202.5,214.5C 201.504,214.414 200.671,214.748 200,215.5C 198.789,220.336 199.955,224.336 203.5,227.5C 203.287,230.451 203.954,233.118 205.5,235.5C 204.518,234.859 203.518,234.193 202.5,233.5C 199.576,237.315 198.742,241.649 200,246.5C 201.481,247.471 202.315,248.804 202.5,250.5C 202.5,256.833 202.5,263.167 202.5,269.5C 201.833,267.833 201.167,266.167 200.5,264.5C 201.113,258.729 200.446,253.396 198.5,248.5C 198.665,245.15 198.498,241.817 198,238.5C 195.381,234.886 193.714,230.886 193,226.5C 191.137,213.574 190.304,200.574 190.5,187.5C 190.231,183.069 190.564,178.735 191.5,174.5C 192.167,173.833 192.833,173.167 193.5,172.5 Z"/></g>
<g><path style="opacity:1" fill="#b08552" d="M 206.5,210.5 C 207.719,214.013 207.719,217.68 206.5,221.5C 206.902,223.3 207.569,224.967 208.5,226.5C 207.833,226.5 207.167,226.5 206.5,226.5C 204.628,224.955 203.628,222.955 203.5,220.5C 205.059,217.37 206.059,214.036 206.5,210.5 Z"/></g>
<g><path style="opacity:1" fill="#8a511a" d="M 206.5,210.5 C 205.5,210.5 204.5,210.5 203.5,210.5C 203.768,212.099 203.434,213.432 202.5,214.5C 202.489,212.453 202.156,210.453 201.5,208.5C 202.547,206.944 203.214,205.277 203.5,203.5C 204.5,203.5 205.5,203.5 206.5,203.5C 206.5,205.833 206.5,208.167 206.5,210.5 Z"/></g>
<g><path style="opacity:1" fill="#9f571a" d="M 206.5,226.5 C 207.167,226.5 207.833,226.5 208.5,226.5C 208.316,230.079 208.983,233.413 210.5,236.5C 208.708,236.634 207.042,236.301 205.5,235.5C 203.954,233.118 203.287,230.451 203.5,227.5C 204.969,230.1 205.969,229.767 206.5,226.5 Z"/></g>
<g><path style="opacity:0.529" fill="#6a4a2e" d="M 183.5,206.5 C 183.833,206.5 184.167,206.5 184.5,206.5C 184.833,207.5 185.5,208.167 186.5,208.5C 187.102,214.207 187.102,219.874 186.5,225.5C 187.747,230.298 189.414,234.965 191.5,239.5C 192.403,242.391 192.736,245.391 192.5,248.5C 190.358,242.204 188.192,235.871 186,229.5C 185.501,225.179 185.334,220.846 185.5,216.5C 185.663,214.143 185.497,211.81 185,209.5C 184.617,208.944 184.117,208.611 183.5,208.5C 183.5,207.833 183.5,207.167 183.5,206.5 Z"/></g>
<g><path style="opacity:1" fill="#5b2a12" d="M 313.5,228.5 C 312.599,230.727 310.933,231.727 308.5,231.5C 308.664,234.187 308.497,236.854 308,239.5C 307.292,240.381 306.458,241.047 305.5,241.5C 303.236,242.219 300.903,242.552 298.5,242.5C 297.794,244.672 296.794,246.672 295.5,248.5C 293.821,248.715 292.821,248.048 292.5,246.5C 294.013,244.484 294.847,242.151 295,239.5C 296.129,237.859 297.629,236.859 299.5,236.5C 301.017,236.489 302.184,235.823 303,234.5C 303.198,232.618 303.698,230.952 304.5,229.5C 303.814,241.16 305.147,241.493 308.5,230.5C 310.23,229.974 311.564,228.974 312.5,227.5C 312.043,226.702 311.376,226.369 310.5,226.5C 310.5,226.167 310.5,225.833 310.5,225.5C 314.52,221.559 315.52,222.559 313.5,228.5 Z"/></g>
<g><path style="opacity:0.996" fill="#3e2011" d="M 337.5,208.5 C 337.167,209.833 336.833,211.167 336.5,212.5C 335.791,213.404 334.791,213.737 333.5,213.5C 331.905,220.346 331.072,227.346 331,234.5C 329.692,236.641 328.192,238.641 326.5,240.5C 326.624,241.107 326.957,241.44 327.5,241.5C 327.068,242.71 326.401,243.71 325.5,244.5C 325.179,242.952 324.179,242.285 322.5,242.5C 322.697,246.806 320.697,248.806 316.5,248.5C 317.167,247.5 317.833,246.5 318.5,245.5C 319.338,245.158 319.672,244.492 319.5,243.5C 322.232,239.756 325.232,236.089 328.5,232.5C 329.21,228.196 329.71,223.863 330,219.5C 330.384,216.94 331.217,214.606 332.5,212.5C 333.5,212.167 334.167,211.5 334.5,210.5C 335.5,209.833 336.5,209.167 337.5,208.5 Z"/></g>
<g><path style="opacity:1" fill="#a76336" d="M 328.5,212.5 C 327.741,219.157 326.741,225.824 325.5,232.5C 322.179,235.477 320.179,239.144 319.5,243.5C 319.672,244.492 319.338,245.158 318.5,245.5C 314.7,247.143 310.7,247.81 306.5,247.5C 306.286,245.856 306.62,244.356 307.5,243C 306.584,242.722 305.918,242.222 305.5,241.5C 306.458,241.047 307.292,240.381 308,239.5C 308.497,236.854 308.664,234.187 308.5,231.5C 310.933,231.727 312.599,230.727 313.5,228.5C 314.725,227.848 315.392,226.681 315.5,225C 315.518,222.558 314.851,220.392 313.5,218.5C 314.339,217.359 315.006,216.026 315.5,214.5C 316.689,213.571 318.022,213.238 319.5,213.5C 319.666,217.514 319.499,221.514 319,225.5C 318.308,226.025 317.808,226.692 317.5,227.5C 318.5,228.5 319.5,229.5 320.5,230.5C 321.518,229.807 322.518,229.141 323.5,228.5C 324.222,228.082 324.722,227.416 325,226.5C 325.499,221.845 325.666,217.179 325.5,212.5C 326.5,212.5 327.5,212.5 328.5,212.5 Z"/></g>
<g><path style="opacity:0.988" fill="#52301b" d="M 192.5,234.5 C 194.947,237.986 196.281,241.986 196.5,246.5C 194.836,245.051 194.002,243.051 194,240.5C 193.833,242.833 193.667,245.167 193.5,247.5C 195.126,258.662 195.959,269.995 196,281.5C 198.082,284.026 197.916,286.36 195.5,288.5C 195.167,288.5 194.833,288.5 194.5,288.5C 194.5,288.167 194.5,287.833 194.5,287.5C 194.5,285.833 194.5,284.167 194.5,282.5C 194.666,275.159 194.5,267.826 194,260.5C 193.768,259.263 193.268,258.263 192.5,257.5C 192.5,254.5 192.5,251.5 192.5,248.5C 192.736,245.391 192.403,242.391 191.5,239.5C 192.451,238.081 192.784,236.415 192.5,234.5 Z"/></g>
<g><path style="opacity:0.498" fill="#563d2e" d="M 332.5,239.5 C 328.691,242.809 325.858,246.809 324,251.5C 322.028,253.232 319.861,254.565 317.5,255.5C 317.5,254.5 317.5,253.5 317.5,252.5C 322.352,252.193 325.019,249.527 325.5,244.5C 326.401,243.71 327.068,242.71 327.5,241.5C 329.167,240.833 330.833,240.167 332.5,239.5 Z"/></g>
<g><path style="opacity:1" fill="#9a643c" d="M 305.5,241.5 C 305.918,242.222 306.584,242.722 307.5,243C 306.62,244.356 306.286,245.856 306.5,247.5C 310.7,247.81 314.7,247.143 318.5,245.5C 317.833,246.5 317.167,247.5 316.5,248.5C 314.566,249.11 312.899,250.11 311.5,251.5C 305.425,254.739 300.425,259.239 296.5,265C 292.5,268.187 288.166,270.687 283.5,272.5C 285.282,268.217 288.282,265.05 292.5,263C 294.951,260.148 297.285,257.315 299.5,254.5C 300.815,253.524 302.148,252.524 303.5,251.5C 301.255,249.377 298.588,248.377 295.5,248.5C 296.794,246.672 297.794,244.672 298.5,242.5C 300.903,242.552 303.236,242.219 305.5,241.5 Z"/></g>
<g><path style="opacity:0.914" fill="#1f1009" d="M 325.5,244.5 C 325.019,249.527 322.352,252.193 317.5,252.5C 317.5,253.5 317.5,254.5 317.5,255.5C 314.881,255.925 312.547,256.925 310.5,258.5C 309.624,258.631 308.957,258.298 308.5,257.5C 310.264,255.87 311.264,253.87 311.5,251.5C 312.899,250.11 314.566,249.11 316.5,248.5C 320.697,248.806 322.697,246.806 322.5,242.5C 324.179,242.285 325.179,242.952 325.5,244.5 Z"/></g>
<g><path style="opacity:0.431" fill="#634936" d="M 317.5,255.5 C 315.487,257.497 313.154,259.164 310.5,260.5C 307.152,264.846 303.485,268.846 299.5,272.5C 301.925,268.648 304.591,264.981 307.5,261.5C 308.5,260.5 309.5,259.5 310.5,258.5C 312.547,256.925 314.881,255.925 317.5,255.5 Z"/></g>
<g><path style="opacity:1" fill="#b0652c" d="M 292.5,246.5 C 292.821,248.048 293.821,248.715 295.5,248.5C 298.588,248.377 301.255,249.377 303.5,251.5C 302.148,252.524 300.815,253.524 299.5,254.5C 294.794,256.367 291.127,259.533 288.5,264C 287.552,264.483 286.552,264.649 285.5,264.5C 285.607,266.903 284.607,268.736 282.5,270C 280.464,270.454 278.63,271.287 277,272.5C 275.584,271.427 274.25,271.427 273,272.5C 271.656,269.502 271.489,266.502 272.5,263.5C 271.811,261.478 270.478,260.144 268.5,259.5C 267.391,259.557 266.391,259.89 265.5,260.5C 264.449,259.778 263.782,258.778 263.5,257.5C 264.416,257.018 265.416,256.685 266.5,256.5C 270.794,257.662 275.128,258.162 279.5,258C 281.107,256.951 281.773,255.451 281.5,253.5C 286.284,254.091 288.95,251.925 289.5,247C 288.657,245.065 288.657,243.231 289.5,241.5C 290.065,243.544 291.065,245.21 292.5,246.5 Z"/></g>
<g><path style="opacity:0.903" fill="#200903" d="M 196.5,246.5 C 196.5,246.833 196.5,247.167 196.5,247.5C 196.436,253.254 197.102,258.92 198.5,264.5C 197.589,273.154 197.589,281.821 198.5,290.5C 197.833,294.167 197.167,297.833 196.5,301.5C 195.515,297.366 195.182,293.032 195.5,288.5C 197.916,286.36 198.082,284.026 196,281.5C 195.959,269.995 195.126,258.662 193.5,247.5C 193.667,245.167 193.833,242.833 194,240.5C 194.002,243.051 194.836,245.051 196.5,246.5 Z"/></g>
<g><path style="opacity:1" fill="#672f10" d="M 268.5,259.5 C 268.702,261.989 268.202,264.323 267,266.5C 264.691,268.199 262.858,270.199 261.5,272.5C 261.357,270.738 261.691,269.071 262.5,267.5C 261.675,266.614 260.675,266.281 259.5,266.5C 260.084,269.285 259.084,270.952 256.5,271.5C 257.949,269.389 258.949,267.056 259.5,264.5C 262.969,265.113 264.969,263.779 265.5,260.5C 266.391,259.89 267.391,259.557 268.5,259.5 Z"/></g>
<g><path style="opacity:1" fill="#bd8046" d="M 263.5,257.5 C 263.782,258.778 264.449,259.778 265.5,260.5C 264.969,263.779 262.969,265.113 259.5,264.5C 257.815,265.184 256.815,266.517 256.5,268.5C 252.119,269.548 249.452,272.214 248.5,276.5C 248.167,276.5 247.833,276.5 247.5,276.5C 247.5,276.167 247.5,275.833 247.5,275.5C 247.687,273.436 248.187,271.436 249,269.5C 254.242,266.1 259.076,262.1 263.5,257.5 Z"/></g>
<g><path style="opacity:1" fill="#a16c3e" d="M 259.5,264.5 C 258.949,267.056 257.949,269.389 256.5,271.5C 253.833,273.5 251.167,275.5 248.5,277.5C 248.5,277.167 248.5,276.833 248.5,276.5C 249.452,272.214 252.119,269.548 256.5,268.5C 256.815,266.517 257.815,265.184 259.5,264.5 Z"/></g>
<g><path style="opacity:1" fill="#563219" d="M 196.5,247.5 C 197.167,247.833 197.833,248.167 198.5,248.5C 199.351,259.477 199.684,270.477 199.5,281.5C 199.81,284.713 199.477,287.713 198.5,290.5C 197.589,281.821 197.589,273.154 198.5,264.5C 197.102,258.92 196.436,253.254 196.5,247.5 Z"/></g>
<g><path style="opacity:0.176" fill="#cebfb3" d="M 192.5,257.5 C 193.268,258.263 193.768,259.263 194,260.5C 194.5,267.826 194.666,275.159 194.5,282.5C 193.883,282.389 193.383,282.056 193,281.5C 193.07,273.464 192.903,265.464 192.5,257.5 Z"/></g>
<g><path style="opacity:1" fill="#501e0a" d="M 261.5,272.5 C 260.089,274.539 258.089,275.539 255.5,275.5C 255.616,278.91 253.95,280.244 250.5,279.5C 249.167,279.5 248.5,278.833 248.5,277.5C 251.167,275.5 253.833,273.5 256.5,271.5C 259.084,270.952 260.084,269.285 259.5,266.5C 260.675,266.281 261.675,266.614 262.5,267.5C 261.691,269.071 261.357,270.738 261.5,272.5 Z"/></g>
<g><path style="opacity:1" fill="#c6772d" d="M 202.5,250.5 C 203.29,251.609 203.79,252.942 204,254.5C 204.5,261.492 204.666,268.492 204.5,275.5C 205.5,275.5 206.5,275.5 207.5,275.5C 207.549,269.754 209.049,264.42 212,259.5C 213.249,267.327 214.416,275.161 215.5,283C 222.839,283.715 230.172,284.049 237.5,284C 239.167,283.167 240.833,282.333 242.5,281.5C 243.001,279.345 244.001,277.678 245.5,276.5C 244.815,278.414 244.315,280.414 244,282.5C 241.676,284.446 239.342,286.446 237,288.5C 229.102,289.853 221.269,289.519 213.5,287.5C 213.027,283.362 210.693,281.362 206.5,281.5C 206.5,280.167 206.5,278.833 206.5,277.5C 205.167,277.5 203.833,277.5 202.5,277.5C 202.5,274.833 202.5,272.167 202.5,269.5C 202.5,263.167 202.5,256.833 202.5,250.5 Z"/></g>
<g><path style="opacity:1" fill="#442312" d="M 311.5,251.5 C 311.264,253.87 310.264,255.87 308.5,257.5C 308.957,258.298 309.624,258.631 310.5,258.5C 309.5,259.5 308.5,260.5 307.5,261.5C 305.97,259.153 303.97,258.986 301.5,261C 300.944,263.237 299.944,265.237 298.5,267C 295.823,267.249 293.49,268.249 291.5,270C 286.833,274 282.167,278 277.5,282C 276.207,282.49 274.873,282.657 273.5,282.5C 269.012,283.676 265.345,286.009 262.5,289.5C 263.238,287.06 264.571,285.06 266.5,283.5C 268.339,282.418 270.339,281.585 272.5,281C 275.866,277.665 279.532,274.832 283.5,272.5C 288.166,270.687 292.5,268.187 296.5,265C 300.425,259.239 305.425,254.739 311.5,251.5 Z"/></g>
<g><path style="opacity:0.376" fill="#5a4433" d="M 299.5,272.5 C 295.005,276.251 290.005,279.251 284.5,281.5C 284.511,279.983 285.177,278.816 286.5,278C 290.62,275.682 294.953,273.848 299.5,272.5 Z"/></g>
<g><path style="opacity:1" fill="#a76535" d="M 299.5,254.5 C 297.285,257.315 294.951,260.148 292.5,263C 288.282,265.05 285.282,268.217 283.5,272.5C 279.532,274.832 275.866,277.665 272.5,281C 270.339,281.585 268.339,282.418 266.5,283.5C 265.417,283.539 264.417,283.873 263.5,284.5C 261.438,287.176 259.438,289.842 257.5,292.5C 251.2,296.802 245.2,301.469 239.5,306.5C 237.329,309.505 235.829,312.839 235,316.5C 231.801,319.416 230.134,323.083 230,327.5C 228.429,329.923 226.263,331.256 223.5,331.5C 225.139,330.527 226.473,329.194 227.5,327.5C 229.119,320.941 231.453,314.608 234.5,308.5C 241.608,302.714 248.108,296.381 254,289.5C 254.5,288 255,286.5 255.5,285C 253.649,283.317 251.983,281.484 250.5,279.5C 253.95,280.244 255.616,278.91 255.5,275.5C 258.089,275.539 260.089,274.539 261.5,272.5C 262.858,270.199 264.691,268.199 267,266.5C 268.202,264.323 268.702,261.989 268.5,259.5C 270.478,260.144 271.811,261.478 272.5,263.5C 271.489,266.502 271.656,269.502 273,272.5C 274.25,271.427 275.584,271.427 277,272.5C 278.63,271.287 280.464,270.454 282.5,270C 284.607,268.736 285.607,266.903 285.5,264.5C 286.552,264.649 287.552,264.483 288.5,264C 291.127,259.533 294.794,256.367 299.5,254.5 Z"/></g>
<g><path style="opacity:0.878" fill="#1b0d06" d="M 307.5,261.5 C 304.591,264.981 301.925,268.648 299.5,272.5C 294.953,273.848 290.62,275.682 286.5,278C 285.177,278.816 284.511,279.983 284.5,281.5C 281.665,282.069 279.999,283.736 279.5,286.5C 279.167,286.5 278.833,286.5 278.5,286.5C 276.847,286.66 275.514,287.326 274.5,288.5C 273.448,288.351 272.448,288.517 271.5,289C 269.383,290.769 267.383,292.602 265.5,294.5C 264.957,294.44 264.624,294.107 264.5,293.5C 265.891,288.269 269.224,285.436 274.5,285C 272.381,284.658 272.047,283.825 273.5,282.5C 274.873,282.657 276.207,282.49 277.5,282C 282.167,278 286.833,274 291.5,270C 293.49,268.249 295.823,267.249 298.5,267C 299.944,265.237 300.944,263.237 301.5,261C 303.97,258.986 305.97,259.153 307.5,261.5 Z"/></g>
<g><path style="opacity:0.357" fill="#554033" d="M 284.5,281.5 C 283.167,283.5 281.5,285.167 279.5,286.5C 279.999,283.736 281.665,282.069 284.5,281.5 Z"/></g>
<g><path style="opacity:0.325" fill="#6b5344" d="M 278.5,286.5 C 277.713,288.104 276.38,288.771 274.5,288.5C 275.514,287.326 276.847,286.66 278.5,286.5 Z"/></g>
<g><path style="opacity:0.239" fill="#a58876" d="M 194.5,287.5 C 194.5,287.833 194.5,288.167 194.5,288.5C 194.818,293.032 194.485,297.366 193.5,301.5C 193.167,301.5 192.833,301.5 192.5,301.5C 193.06,296.695 193.727,292.029 194.5,287.5 Z"/></g>
<g><path style="opacity:1" fill="#6d4021" d="M 199.5,281.5 C 200.654,287.987 200.821,294.654 200,301.5C 196.239,305.027 194.739,309.361 195.5,314.5C 194.833,315.167 194.167,315.833 193.5,316.5C 193.855,311.338 194.855,306.338 196.5,301.5C 197.167,297.833 197.833,294.167 198.5,290.5C 199.477,287.713 199.81,284.713 199.5,281.5 Z"/></g>
<g><path style="opacity:1" fill="#8f5f42" d="M 266.5,283.5 C 264.571,285.06 263.238,287.06 262.5,289.5C 260.103,291.662 258.436,294.329 257.5,297.5C 254.643,299.758 251.643,301.758 248.5,303.5C 249.11,299.556 251.443,297.223 255.5,296.5C 256.705,295.423 257.372,294.09 257.5,292.5C 259.438,289.842 261.438,287.176 263.5,284.5C 264.417,283.873 265.417,283.539 266.5,283.5 Z"/></g>
<g><path style="opacity:1" fill="#b46325" d="M 200.5,264.5 C 201.167,266.167 201.833,267.833 202.5,269.5C 202.5,272.167 202.5,274.833 202.5,277.5C 203.833,277.5 205.167,277.5 206.5,277.5C 206.5,278.833 206.5,280.167 206.5,281.5C 210.693,281.362 213.027,283.362 213.5,287.5C 221.269,289.519 229.102,289.853 237,288.5C 239.342,286.446 241.676,284.446 244,282.5C 244.315,280.414 244.815,278.414 245.5,276.5C 246.167,276.5 246.833,276.5 247.5,276.5C 247.833,276.5 248.167,276.5 248.5,276.5C 248.5,276.833 248.5,277.167 248.5,277.5C 248.5,278.833 249.167,279.5 250.5,279.5C 251.983,281.484 253.649,283.317 255.5,285C 255,286.5 254.5,288 254,289.5C 248.108,296.381 241.608,302.714 234.5,308.5C 231.453,314.608 229.119,320.941 227.5,327.5C 225.218,328.39 222.885,328.556 220.5,328C 219.151,327.228 218.318,326.061 218,324.5C 217.333,325.167 216.667,325.833 216,326.5C 215.503,324.19 215.337,321.857 215.5,319.5C 213.519,318.652 211.519,318.152 209.5,318C 210.027,323.971 207.36,326.804 201.5,326.5C 199.841,325.166 198.508,323.499 197.5,321.5C 200.315,310.782 202.648,299.949 204.5,289C 201.943,281.067 200.61,272.9 200.5,264.5 Z"/></g>
<g><path style="opacity:0.996" fill="#331509" d="M 273.5,282.5 C 272.047,283.825 272.381,284.658 274.5,285C 269.224,285.436 265.891,288.269 264.5,293.5C 264.624,294.107 264.957,294.44 265.5,294.5C 265.068,295.71 264.401,296.71 263.5,297.5C 263.631,296.624 263.298,295.957 262.5,295.5C 261.614,296.325 261.281,297.325 261.5,298.5C 260.5,298.5 259.5,298.5 258.5,298.5C 258.703,300.39 258.037,301.89 256.5,303C 254.831,304.669 252.831,305.502 250.5,305.5C 250.5,306.5 250.5,307.5 250.5,308.5C 249.5,308.5 248.5,308.5 247.5,308.5C 248.234,307.292 248.567,305.959 248.5,304.5C 251.14,304.046 253.473,302.879 255.5,301C 256.823,300.184 257.489,299.017 257.5,297.5C 258.436,294.329 260.103,291.662 262.5,289.5C 265.345,286.009 269.012,283.676 273.5,282.5 Z"/></g>
<g><path style="opacity:0.882" fill="#200904" d="M 263.5,297.5 C 262.25,299.932 260.75,302.266 259,304.5C 256.333,306.5 253.667,308.5 251,310.5C 250.549,313.778 249.049,316.444 246.5,318.5C 244.952,318.179 244.285,317.179 244.5,315.5C 245.656,313.176 246.656,310.843 247.5,308.5C 248.5,308.5 249.5,308.5 250.5,308.5C 250.5,307.5 250.5,306.5 250.5,305.5C 252.831,305.502 254.831,304.669 256.5,303C 258.037,301.89 258.703,300.39 258.5,298.5C 259.5,298.5 260.5,298.5 261.5,298.5C 261.281,297.325 261.614,296.325 262.5,295.5C 263.298,295.957 263.631,296.624 263.5,297.5 Z"/></g>
<g><path style="opacity:1" fill="#5c321e" d="M 257.5,297.5 C 257.489,299.017 256.823,300.184 255.5,301C 253.473,302.879 251.14,304.046 248.5,304.5C 248.567,305.959 248.234,307.292 247.5,308.5C 246.656,310.843 245.656,313.176 244.5,315.5C 243.461,317.531 241.795,318.864 239.5,319.5C 241.941,315.724 243.941,311.724 245.5,307.5C 246.857,306.41 247.857,305.076 248.5,303.5C 251.643,301.758 254.643,299.758 257.5,297.5 Z"/></g>
<g><path style="opacity:0.894" fill="#32150d" d="M 194.5,288.5 C 194.833,288.5 195.167,288.5 195.5,288.5C 195.182,293.032 195.515,297.366 196.5,301.5C 194.855,306.338 193.855,311.338 193.5,316.5C 193.5,319.5 193.5,322.5 193.5,325.5C 194.038,327.117 194.371,328.784 194.5,330.5C 192.517,330.157 191.183,330.824 190.5,332.5C 190.167,333.167 189.833,333.833 189.5,334.5C 189.167,334.5 188.833,334.5 188.5,334.5C 189.276,327.863 189.609,321.196 189.5,314.5C 191.898,310.597 193.231,306.264 193.5,301.5C 194.485,297.366 194.818,293.032 194.5,288.5 Z"/></g>
<g><path style="opacity:0.725" fill="#69452d" d="M 192.5,301.5 C 192.833,301.5 193.167,301.5 193.5,301.5C 193.231,306.264 191.898,310.597 189.5,314.5C 189.185,309.746 190.185,305.413 192.5,301.5 Z"/></g>
<g><path style="opacity:1" fill="#966646" d="M 245.5,307.5 C 243.941,311.724 241.941,315.724 239.5,319.5C 237.99,321.322 236.657,323.322 235.5,325.5C 235.5,325.833 235.5,326.167 235.5,326.5C 234.5,326.5 233.5,326.5 232.5,326.5C 232.771,328.38 232.104,329.713 230.5,330.5C 231.019,324.943 233.186,320.276 237,316.5C 237.981,311.687 240.814,308.687 245.5,307.5 Z"/></g>
<g><path style="opacity:0.396" fill="#654534" d="M 274.5,288.5 C 269.098,292.408 264.931,297.408 262,303.5C 259.312,306.022 256.479,308.356 253.5,310.5C 251.229,315.389 248.229,319.722 244.5,323.5C 244.893,321.716 245.559,320.05 246.5,318.5C 249.049,316.444 250.549,313.778 251,310.5C 253.667,308.5 256.333,306.5 259,304.5C 260.75,302.266 262.25,299.932 263.5,297.5C 264.401,296.71 265.068,295.71 265.5,294.5C 267.383,292.602 269.383,290.769 271.5,289C 272.448,288.517 273.448,288.351 274.5,288.5 Z"/></g>
<g><path style="opacity:1" fill="#a3683e" d="M 198.5,248.5 C 200.446,253.396 201.113,258.729 200.5,264.5C 200.61,272.9 201.943,281.067 204.5,289C 202.648,299.949 200.315,310.782 197.5,321.5C 198.508,323.499 199.841,325.166 201.5,326.5C 203.933,329.095 206.6,331.595 209.5,334C 214.632,335.086 219.299,334.252 223.5,331.5C 226.263,331.256 228.429,329.923 230,327.5C 230.134,323.083 231.801,319.416 235,316.5C 235.829,312.839 237.329,309.505 239.5,306.5C 245.2,301.469 251.2,296.802 257.5,292.5C 257.372,294.09 256.705,295.423 255.5,296.5C 251.443,297.223 249.11,299.556 248.5,303.5C 247.857,305.076 246.857,306.41 245.5,307.5C 240.814,308.687 237.981,311.687 237,316.5C 233.186,320.276 231.019,324.943 230.5,330.5C 227.732,332.087 225.065,333.92 222.5,336C 217.618,336.09 212.951,336.924 208.5,338.5C 208.372,336.91 207.705,335.577 206.5,334.5C 203.698,333.288 201.198,331.621 199,329.5C 198.527,327.221 197.527,325.221 196,323.5C 195.502,320.518 195.335,317.518 195.5,314.5C 194.739,309.361 196.239,305.027 200,301.5C 200.821,294.654 200.654,287.987 199.5,281.5C 199.684,270.477 199.351,259.477 198.5,248.5 Z"/></g>
<g><path style="opacity:0.855" fill="#42241a" d="M 244.5,315.5 C 244.285,317.179 244.952,318.179 246.5,318.5C 245.559,320.05 244.893,321.716 244.5,323.5C 244.727,325.933 243.727,327.599 241.5,328.5C 242.146,326.844 242.813,325.177 243.5,323.5C 243.392,322.558 243.059,321.725 242.5,321C 240.684,322.907 238.351,324.407 235.5,325.5C 236.657,323.322 237.99,321.322 239.5,319.5C 241.795,318.864 243.461,317.531 244.5,315.5 Z"/></g>
<g><path style="opacity:0.369" fill="#7f5e43" d="M 189.5,314.5 C 189.609,321.196 189.276,327.863 188.5,334.5C 187.182,336.751 185.516,338.751 183.5,340.5C 187.158,332.209 189.158,323.542 189.5,314.5 Z"/></g>
<g><path style="opacity:1" fill="#8d5a3f" d="M 195.5,314.5 C 195.335,317.518 195.502,320.518 196,323.5C 197.527,325.221 198.527,327.221 199,329.5C 201.198,331.621 203.698,333.288 206.5,334.5C 207.705,335.577 208.372,336.91 208.5,338.5C 205.5,336.5 202.5,334.5 199.5,332.5C 197.727,329.94 195.727,327.607 193.5,325.5C 193.5,322.5 193.5,319.5 193.5,316.5C 194.167,315.833 194.833,315.167 195.5,314.5 Z"/></g>
<g><path style="opacity:0.915" fill="#1e0f06" d="M 241.5,328.5 C 239.956,328.703 238.622,329.37 237.5,330.5C 232.467,335.532 227.801,340.865 223.5,346.5C 222.402,345.399 222.235,344.066 223,342.5C 225.372,340.297 227.539,337.963 229.5,335.5C 231.526,332.482 233.526,329.482 235.5,326.5C 235.5,326.167 235.5,325.833 235.5,325.5C 238.351,324.407 240.684,322.907 242.5,321C 243.059,321.725 243.392,322.558 243.5,323.5C 242.813,325.177 242.146,326.844 241.5,328.5 Z"/></g>
<g><path style="opacity:1" fill="#563d26" d="M 193.5,325.5 C 195.727,327.607 197.727,329.94 199.5,332.5C 198.417,332.461 197.417,332.127 196.5,331.5C 195.614,332.325 195.281,333.325 195.5,334.5C 196.791,334.263 197.791,334.596 198.5,335.5C 197.833,335.5 197.167,335.5 196.5,335.5C 195.508,335.672 194.842,335.338 194.5,334.5C 193.805,332.15 192.472,331.483 190.5,332.5C 191.183,330.824 192.517,330.157 194.5,330.5C 194.371,328.784 194.038,327.117 193.5,325.5 Z"/></g>
<g><path style="opacity:1" fill="#af632f" d="M 227.5,327.5 C 226.473,329.194 225.139,330.527 223.5,331.5C 219.299,334.252 214.632,335.086 209.5,334C 206.6,331.595 203.933,329.095 201.5,326.5C 207.36,326.804 210.027,323.971 209.5,318C 211.519,318.152 213.519,318.652 215.5,319.5C 215.337,321.857 215.503,324.19 216,326.5C 216.667,325.833 217.333,325.167 218,324.5C 218.318,326.061 219.151,327.228 220.5,328C 222.885,328.556 225.218,328.39 227.5,327.5 Z"/></g>
<g><path style="opacity:0.518" fill="#614b35" d="M 241.5,328.5 C 236.827,333.506 232.16,338.506 227.5,343.5C 225.794,346.269 224.127,348.936 222.5,351.5C 222.629,349.784 222.962,348.117 223.5,346.5C 227.801,340.865 232.467,335.532 237.5,330.5C 238.622,329.37 239.956,328.703 241.5,328.5 Z"/></g>
<g><path style="opacity:1" fill="#764b2a" d="M 235.5,326.5 C 233.526,329.482 231.526,332.482 229.5,335.5C 224.385,336.687 219.385,338.02 214.5,339.5C 212.265,339.795 210.265,339.461 208.5,338.5C 212.951,336.924 217.618,336.09 222.5,336C 225.065,333.92 227.732,332.087 230.5,330.5C 232.104,329.713 232.771,328.38 232.5,326.5C 233.5,326.5 234.5,326.5 235.5,326.5 Z"/></g>
<g><path style="opacity:1" fill="#b0916a" d="M 194.5,334.5 C 193.85,334.196 193.183,333.863 192.5,333.5C 191.621,337.337 189.954,340.67 187.5,343.5C 188.167,340.5 188.833,337.5 189.5,334.5C 189.833,333.833 190.167,333.167 190.5,332.5C 192.472,331.483 193.805,332.15 194.5,334.5 Z"/></g>
<g><path style="opacity:1" fill="#e2b670" d="M 194.5,334.5 C 194.842,335.338 195.508,335.672 196.5,335.5C 200.258,340.967 205.258,344.967 211.5,347.5C 212.386,348.325 212.719,349.325 212.5,350.5C 211.5,350.5 210.5,350.5 209.5,350.5C 209.167,350.5 208.833,350.5 208.5,350.5C 207.599,348.273 205.933,347.273 203.5,347.5C 199.58,337.684 194.414,337.018 188,345.5C 185.955,353.921 183.622,362.254 181,370.5C 180.125,373.215 178.292,374.548 175.5,374.5C 175.539,377.81 174.206,380.476 171.5,382.5C 168.463,383.902 165.463,385.235 162.5,386.5C 163.167,385.167 163.833,383.833 164.5,382.5C 164.5,381.833 164.833,381.5 165.5,381.5C 168.573,379.431 170.906,376.764 172.5,373.5C 172.738,371.596 173.738,370.262 175.5,369.5C 179.793,367.526 181.46,364.193 180.5,359.5C 182.322,353.864 184.655,348.531 187.5,343.5C 189.954,340.67 191.621,337.337 192.5,333.5C 193.183,333.863 193.85,334.196 194.5,334.5 Z"/></g>
<g><path style="opacity:1" fill="#491d0d" d="M 199.5,332.5 C 202.5,334.5 205.5,336.5 208.5,338.5C 210.265,339.461 212.265,339.795 214.5,339.5C 212.369,340.314 210.036,340.814 207.5,341C 208.381,341.708 209.047,342.542 209.5,343.5C 208.833,343.5 208.167,343.5 207.5,343.5C 205.192,340.2 202.192,337.533 198.5,335.5C 197.791,334.596 196.791,334.263 195.5,334.5C 195.281,333.325 195.614,332.325 196.5,331.5C 197.417,332.127 198.417,332.461 199.5,332.5 Z"/></g>
<g><path style="opacity:0.475" fill="#8f704e" d="M 183.5,341.5 C 182.801,346.272 181.134,350.605 178.5,354.5C 179.36,349.793 181.027,345.459 183.5,341.5 Z"/></g>
<g><path style="opacity:1" fill="#d1a270" d="M 196.5,335.5 C 197.167,335.5 197.833,335.5 198.5,335.5C 202.192,337.533 205.192,340.2 207.5,343.5C 210.962,344.482 214.629,344.815 218.5,344.5C 218.167,346.5 217.833,348.5 217.5,350.5C 215.751,356.906 213.751,363.24 211.5,369.5C 212.162,365.534 212.495,361.534 212.5,357.5C 212.5,355.167 212.5,352.833 212.5,350.5C 212.719,349.325 212.386,348.325 211.5,347.5C 205.258,344.967 200.258,340.967 196.5,335.5 Z"/></g>
<g><path style="opacity:1" fill="#8c6f4c" d="M 219.5,349.5 C 218.833,349.833 218.167,350.167 217.5,350.5C 217.833,348.5 218.167,346.5 218.5,344.5C 214.629,344.815 210.962,344.482 207.5,343.5C 208.167,343.5 208.833,343.5 209.5,343.5C 213.318,341.987 217.318,341.32 221.5,341.5C 221.306,344.33 220.639,346.996 219.5,349.5 Z"/></g>
<g><path style="opacity:0.792" fill="#32170b" d="M 229.5,335.5 C 227.539,337.963 225.372,340.297 223,342.5C 222.235,344.066 222.402,345.399 223.5,346.5C 222.962,348.117 222.629,349.784 222.5,351.5C 221.21,352.058 220.377,353.058 220,354.5C 219.814,357.036 219.314,359.369 218.5,361.5C 218.784,359.585 218.451,357.919 217.5,356.5C 217.4,353.892 218.067,351.558 219.5,349.5C 220.639,346.996 221.306,344.33 221.5,341.5C 217.318,341.32 213.318,341.987 209.5,343.5C 209.047,342.542 208.381,341.708 207.5,341C 210.036,340.814 212.369,340.314 214.5,339.5C 219.385,338.02 224.385,336.687 229.5,335.5 Z"/></g>
<g><path style="opacity:0.471" fill="#6a4b32" d="M 222.5,351.5 C 221.122,358.347 219.455,365.014 217.5,371.5C 217.342,368.098 217.676,364.764 218.5,361.5C 219.314,359.369 219.814,357.036 220,354.5C 220.377,353.058 221.21,352.058 222.5,351.5 Z"/></g>
<g><path style="opacity:0.38" fill="#a0835e" d="M 178.5,354.5 C 178.275,357.546 176.942,359.879 174.5,361.5C 175.468,358.9 176.801,356.566 178.5,354.5 Z"/></g>
<g><path style="opacity:0.996" fill="#5d3920" d="M 219.5,349.5 C 218.067,351.558 217.4,353.892 217.5,356.5C 214.357,365.965 212.357,375.799 211.5,386C 211.533,388.61 212.2,390.777 213.5,392.5C 213.5,395.5 213.5,398.5 213.5,401.5C 212.852,399.502 212.019,397.502 211,395.5C 210.327,386.811 210.493,378.144 211.5,369.5C 213.751,363.24 215.751,356.906 217.5,350.5C 218.167,350.167 218.833,349.833 219.5,349.5 Z"/></g>
<g><path style="opacity:0.357" fill="#a2835e" d="M 174.5,362.5 C 172.587,366.262 170.421,369.929 168,373.5C 164.296,377.036 160.796,380.702 157.5,384.5C 155.567,386.937 153.4,389.271 151,391.5C 150.517,392.448 150.351,393.448 150.5,394.5C 150.167,394.5 149.833,394.5 149.5,394.5C 149.343,393.127 149.51,391.793 150,390.5C 158.777,381.566 166.944,372.232 174.5,362.5 Z"/></g>
<g><path style="opacity:1" fill="#ba9767" d="M 180.5,359.5 C 181.46,364.193 179.793,367.526 175.5,369.5C 176.659,365.849 178.326,362.515 180.5,359.5 Z"/></g>
<g><path style="opacity:1" fill="#f9b657" d="M 208.5,350.5 C 208.833,350.5 209.167,350.5 209.5,350.5C 209.923,351.265 210.257,352.098 210.5,353C 204.96,364.408 202.46,376.575 203,389.5C 201.984,390.634 201.317,390.301 201,388.5C 197.372,389.338 196.206,391.338 197.5,394.5C 197.565,394.938 197.399,395.272 197,395.5C 194.656,393.226 191.822,392.059 188.5,392C 191.411,391.353 192.745,389.519 192.5,386.5C 192.21,384.956 191.544,383.623 190.5,382.5C 191.632,373.971 191.798,365.304 191,356.5C 191.667,355.833 192.333,355.167 193,354.5C 194.356,355.38 195.856,355.714 197.5,355.5C 198.928,358.946 199.761,362.613 200,366.5C 200.324,364.431 201.158,364.098 202.5,365.5C 203.766,360.035 205.766,355.035 208.5,350.5 Z"/></g>
<g><path style="opacity:1" fill="#f6bc53" d="M 203.5,347.5 C 205.933,347.273 207.599,348.273 208.5,350.5C 205.766,355.035 203.766,360.035 202.5,365.5C 201.158,364.098 200.324,364.431 200,366.5C 199.761,362.613 198.928,358.946 197.5,355.5C 195.856,355.714 194.356,355.38 193,354.5C 192.333,355.167 191.667,355.833 191,356.5C 191.798,365.304 191.632,373.971 190.5,382.5C 191.544,383.623 192.21,384.956 192.5,386.5C 192.745,389.519 191.411,391.353 188.5,392C 191.822,392.059 194.656,393.226 197,395.5C 197.399,395.272 197.565,394.938 197.5,394.5C 199.074,396.102 199.741,398.102 199.5,400.5C 194.773,403.051 189.607,404.051 184,403.5C 177.345,403.763 170.845,402.929 164.5,401C 163.333,399.833 162.167,398.667 161,397.5C 161.148,396.175 160.982,395.008 160.5,394C 162.303,392.738 163.636,391.071 164.5,389C 168.127,388.436 171.293,386.936 174,384.5C 174.142,388.217 172.642,391.217 169.5,393.5C 171.003,394.557 172.67,395.224 174.5,395.5C 177.791,395.753 181.124,395.42 184.5,394.5C 184.833,391.5 183.5,390.167 180.5,390.5C 180.909,384.498 181.409,378.498 182,372.5C 183.546,366.646 185.546,360.979 188,355.5C 187.35,349.02 189.85,344.353 195.5,341.5C 197.848,343.837 200.514,345.837 203.5,347.5 Z"/></g>
<g><path style="opacity:0.82" fill="#170402" d="M 217.5,356.5 C 218.451,357.919 218.784,359.585 218.5,361.5C 217.883,361.611 217.383,361.944 217,362.5C 216.921,366.358 216.254,370.024 215,373.5C 214.828,380.013 214.328,386.347 213.5,392.5C 212.2,390.777 211.533,388.61 211.5,386C 212.357,375.799 214.357,365.965 217.5,356.5 Z"/></g>
<g><path style="opacity:1" fill="#8f6a40" d="M 172.5,373.5 C 170.906,376.764 168.573,379.431 165.5,381.5C 167.094,378.236 169.427,375.569 172.5,373.5 Z"/></g>
<g><path style="opacity:0.886" fill="#4c2f16" d="M 188.5,334.5 C 188.833,334.5 189.167,334.5 189.5,334.5C 188.833,337.5 188.167,340.5 187.5,343.5C 184.655,348.531 182.322,353.864 180.5,359.5C 178.326,362.515 176.659,365.849 175.5,369.5C 173.738,370.262 172.738,371.596 172.5,373.5C 169.427,375.569 167.094,378.236 165.5,381.5C 164.833,381.5 164.5,381.833 164.5,382.5C 164.167,382.5 163.833,382.5 163.5,382.5C 163.631,381.761 163.464,381.094 163,380.5C 161.549,382.464 159.716,383.797 157.5,384.5C 160.796,380.702 164.296,377.036 168,373.5C 170.421,369.929 172.587,366.262 174.5,362.5C 174.5,362.167 174.5,361.833 174.5,361.5C 176.942,359.879 178.275,357.546 178.5,354.5C 181.134,350.605 182.801,346.272 183.5,341.5C 183.5,341.167 183.5,340.833 183.5,340.5C 185.516,338.751 187.182,336.751 188.5,334.5 Z"/></g>
<g><path style="opacity:0.333" fill="#6f5944" d="M 217.5,373.5 C 216.167,380.5 216.167,387.5 217.5,394.5C 216.778,394.082 216.278,393.416 216,392.5C 215.833,389.833 215.667,387.167 215.5,384.5C 215.294,380.531 215.961,376.865 217.5,373.5 Z"/></g>
<g><path style="opacity:1" fill="#e1a85d" d="M 212.5,357.5 C 212.495,361.534 212.162,365.534 211.5,369.5C 210.732,370.263 210.232,371.263 210,372.5C 209.83,378.528 209.33,384.528 208.5,390.5C 207.914,390.291 207.414,389.957 207,389.5C 206.506,391.134 206.34,392.801 206.5,394.5C 209.346,394.809 210.846,396.475 211,399.5C 211.809,405.749 211.642,411.916 210.5,418C 206.005,419.156 201.505,420.323 197,421.5C 190.892,420.516 185.059,418.85 179.5,416.5C 179.167,415.167 178.833,413.833 178.5,412.5C 180.199,412.34 181.866,412.506 183.5,413C 186.445,416.886 190.279,419.052 195,419.5C 200.258,418.136 205.424,416.47 210.5,414.5C 210.55,409.448 210.05,404.448 209,399.5C 205.861,398.194 204.028,395.861 203.5,392.5C 205.53,387.385 205.864,382.218 204.5,377C 205.264,374.016 206.764,371.516 209,369.5C 209.756,365.242 210.923,361.242 212.5,357.5 Z"/></g>
<g><path style="opacity:1" fill="#91754a" d="M 163.5,382.5 C 163.833,382.5 164.167,382.5 164.5,382.5C 163.833,383.833 163.167,385.167 162.5,386.5C 159.2,388.625 156.867,391.458 155.5,395C 156.028,397.881 156.694,400.715 157.5,403.5C 154.254,400.688 153.254,397.188 154.5,393C 157.324,389.343 160.324,385.843 163.5,382.5 Z"/></g>
<g><path style="opacity:1" fill="#e7a64c" d="M 209.5,350.5 C 210.5,350.5 211.5,350.5 212.5,350.5C 212.5,352.833 212.5,355.167 212.5,357.5C 210.923,361.242 209.756,365.242 209,369.5C 206.764,371.516 205.264,374.016 204.5,377C 205.864,382.218 205.53,387.385 203.5,392.5C 204.028,395.861 205.861,398.194 209,399.5C 210.05,404.448 210.55,409.448 210.5,414.5C 205.424,416.47 200.258,418.136 195,419.5C 190.279,419.052 186.445,416.886 183.5,413C 181.866,412.506 180.199,412.34 178.5,412.5C 179.789,411.363 180.789,410.03 181.5,408.5C 183.623,410.921 185.956,411.088 188.5,409C 192.152,408.501 195.818,408.335 199.5,408.5C 199.5,405.833 199.5,403.167 199.5,400.5C 199.741,398.102 199.074,396.102 197.5,394.5C 196.206,391.338 197.372,389.338 201,388.5C 201.317,390.301 201.984,390.634 203,389.5C 202.46,376.575 204.96,364.408 210.5,353C 210.257,352.098 209.923,351.265 209.5,350.5 Z"/></g>
<g><path style="opacity:1" fill="#deb474" d="M 162.5,386.5 C 161.985,389.674 160.985,392.674 159.5,395.5C 159.577,397.299 160.077,398.966 161,400.5C 166.264,403.953 171.764,406.62 177.5,408.5C 172.833,407.833 168.167,407.167 163.5,406.5C 161.544,405.508 159.544,404.508 157.5,403.5C 156.694,400.715 156.028,397.881 155.5,395C 156.867,391.458 159.2,388.625 162.5,386.5 Z"/></g>
<g><path style="opacity:0.498" fill="#775e41" d="M 218.5,398.5 C 222.31,404.439 223.31,410.772 221.5,417.5C 221.549,410.987 220.549,404.654 218.5,398.5 Z"/></g>
<g><path style="opacity:1" fill="#926d4a" d="M 157.5,403.5 C 159.544,404.508 161.544,405.508 163.5,406.5C 160.687,406.975 158.687,405.975 157.5,403.5 Z"/></g>
<g><path style="opacity:1" fill="#f3b75d" d="M 203.5,347.5 C 200.514,345.837 197.848,343.837 195.5,341.5C 189.85,344.353 187.35,349.02 188,355.5C 185.546,360.979 183.546,366.646 182,372.5C 181.409,378.498 180.909,384.498 180.5,390.5C 183.5,390.167 184.833,391.5 184.5,394.5C 181.124,395.42 177.791,395.753 174.5,395.5C 172.67,395.224 171.003,394.557 169.5,393.5C 172.642,391.217 174.142,388.217 174,384.5C 171.293,386.936 168.127,388.436 164.5,389C 163.636,391.071 162.303,392.738 160.5,394C 160.982,395.008 161.148,396.175 161,397.5C 162.167,398.667 163.333,399.833 164.5,401C 170.845,402.929 177.345,403.763 184,403.5C 189.607,404.051 194.773,403.051 199.5,400.5C 199.5,403.167 199.5,405.833 199.5,408.5C 195.818,408.335 192.152,408.501 188.5,409C 185.956,411.088 183.623,410.921 181.5,408.5C 180.167,408.5 178.833,408.5 177.5,408.5C 171.764,406.62 166.264,403.953 161,400.5C 160.077,398.966 159.577,397.299 159.5,395.5C 160.985,392.674 161.985,389.674 162.5,386.5C 165.463,385.235 168.463,383.902 171.5,382.5C 174.206,380.476 175.539,377.81 175.5,374.5C 178.292,374.548 180.125,373.215 181,370.5C 183.622,362.254 185.955,353.921 188,345.5C 194.414,337.018 199.58,337.684 203.5,347.5 Z"/></g>
<g><path style="opacity:1" fill="#cb9d65" d="M 211.5,369.5 C 210.493,378.144 210.327,386.811 211,395.5C 212.019,397.502 212.852,399.502 213.5,401.5C 213.833,403.5 214.167,405.5 214.5,407.5C 214.542,411.009 213.876,414.342 212.5,417.5C 211.167,418.833 209.833,420.167 208.5,421.5C 204.482,422.851 200.315,423.517 196,423.5C 193.833,423.167 191.667,422.833 189.5,422.5C 187.138,421.12 184.805,419.787 182.5,418.5C 181.29,418.068 180.29,417.401 179.5,416.5C 185.059,418.85 190.892,420.516 197,421.5C 201.505,420.323 206.005,419.156 210.5,418C 211.642,411.916 211.809,405.749 211,399.5C 210.846,396.475 209.346,394.809 206.5,394.5C 206.34,392.801 206.506,391.134 207,389.5C 207.414,389.957 207.914,390.291 208.5,390.5C 209.33,384.528 209.83,378.528 210,372.5C 210.232,371.263 210.732,370.263 211.5,369.5 Z"/></g>
<g><path style="opacity:0.435" fill="#765537" d="M 149.5,394.5 C 149.833,394.5 150.167,394.5 150.5,394.5C 150.337,396.857 150.503,399.19 151,401.5C 153.1,404.051 154.933,406.717 156.5,409.5C 150.733,406.291 148.399,401.291 149.5,394.5 Z"/></g>
<g><path style="opacity:0.935" fill="#30180b" d="M 163.5,382.5 C 160.324,385.843 157.324,389.343 154.5,393C 153.254,397.188 154.254,400.688 157.5,403.5C 158.687,405.975 160.687,406.975 163.5,406.5C 166.859,408.219 170.525,409.386 174.5,410C 175.38,411.356 175.714,412.856 175.5,414.5C 174.596,413.791 174.263,412.791 174.5,411.5C 170.496,410.196 166.329,409.196 162,408.5C 159.641,408.324 159.141,408.991 160.5,410.5C 159.167,410.167 157.833,409.833 156.5,409.5C 154.933,406.717 153.1,404.051 151,401.5C 150.503,399.19 150.337,396.857 150.5,394.5C 150.351,393.448 150.517,392.448 151,391.5C 153.4,389.271 155.567,386.937 157.5,384.5C 159.716,383.797 161.549,382.464 163,380.5C 163.464,381.094 163.631,381.761 163.5,382.5 Z"/></g>
<g><path style="opacity:0.925" fill="#210f05" d="M 175.5,414.5 C 175.842,415.338 176.508,415.672 177.5,415.5C 177.5,416.5 177.5,417.5 177.5,418.5C 178.675,418.281 179.675,418.614 180.5,419.5C 179.528,419.593 178.528,419.926 177.5,420.5C 173.022,415.322 167.356,411.989 160.5,410.5C 159.141,408.991 159.641,408.324 162,408.5C 166.329,409.196 170.496,410.196 174.5,411.5C 174.263,412.791 174.596,413.791 175.5,414.5 Z"/></g>
<g><path style="opacity:0.435" fill="#6e543c" d="M 156.5,409.5 C 157.833,409.833 159.167,410.167 160.5,410.5C 167.356,411.989 173.022,415.322 177.5,420.5C 177.5,421.167 177.5,421.833 177.5,422.5C 174.084,419.929 170.75,417.096 167.5,414C 163.281,413.548 159.614,412.048 156.5,409.5 Z"/></g>
<g><path style="opacity:1" fill="#8a6530" d="M 163.5,406.5 C 168.167,407.167 172.833,407.833 177.5,408.5C 178.833,408.5 180.167,408.5 181.5,408.5C 180.789,410.03 179.789,411.363 178.5,412.5C 178.833,413.833 179.167,415.167 179.5,416.5C 178.833,416.167 178.167,415.833 177.5,415.5C 176.508,415.672 175.842,415.338 175.5,414.5C 175.714,412.856 175.38,411.356 174.5,410C 170.525,409.386 166.859,408.219 163.5,406.5 Z"/></g>
<g><path style="opacity:1" fill="#998367" d="M 214.5,407.5 C 217.654,411.556 216.987,414.889 212.5,417.5C 213.876,414.342 214.542,411.009 214.5,407.5 Z"/></g>
<g><path style="opacity:0.855" fill="#291b11" d="M 218.5,361.5 C 217.676,364.764 217.342,368.098 217.5,371.5C 217.5,372.167 217.5,372.833 217.5,373.5C 215.961,376.865 215.294,380.531 215.5,384.5C 215.667,387.167 215.833,389.833 216,392.5C 216.278,393.416 216.778,394.082 217.5,394.5C 218.434,395.568 218.768,396.901 218.5,398.5C 220.549,404.654 221.549,410.987 221.5,417.5C 218.867,419.132 216.533,421.132 214.5,423.5C 214.5,422.5 214.5,421.5 214.5,420.5C 212.5,421.167 210.5,421.833 208.5,422.5C 208.5,422.167 208.5,421.833 208.5,421.5C 209.833,420.167 211.167,418.833 212.5,417.5C 216.987,414.889 217.654,411.556 214.5,407.5C 214.167,405.5 213.833,403.5 213.5,401.5C 213.5,398.5 213.5,395.5 213.5,392.5C 214.328,386.347 214.828,380.013 215,373.5C 216.254,370.024 216.921,366.358 217,362.5C 217.383,361.944 217.883,361.611 218.5,361.5 Z"/></g>
<g><path style="opacity:0.961" fill="#342516" d="M 177.5,415.5 C 178.167,415.833 178.833,416.167 179.5,416.5C 180.29,417.401 181.29,418.068 182.5,418.5C 183.5,419.833 184.5,421.167 185.5,422.5C 183.883,421.962 182.216,421.629 180.5,421.5C 180.5,422.5 180.5,423.5 180.5,424.5C 178.973,424.573 177.973,423.906 177.5,422.5C 177.5,421.833 177.5,421.167 177.5,420.5C 178.528,419.926 179.528,419.593 180.5,419.5C 179.675,418.614 178.675,418.281 177.5,418.5C 177.5,417.5 177.5,416.5 177.5,415.5 Z"/></g>
<g><path style="opacity:1" fill="#906340" d="M 182.5,418.5 C 184.805,419.787 187.138,421.12 189.5,422.5C 191.667,422.833 193.833,423.167 196,423.5C 200.315,423.517 204.482,422.851 208.5,421.5C 208.5,421.833 208.5,422.167 208.5,422.5C 203.963,424.008 199.297,425.008 194.5,425.5C 191.376,425.6 188.71,424.6 186.5,422.5C 186.167,422.5 185.833,422.5 185.5,422.5C 184.5,421.167 183.5,419.833 182.5,418.5 Z"/></g>
<g><path style="opacity:0.392" fill="#6e5b44" d="M 221.5,417.5 C 218.689,422.979 214.356,426.645 208.5,428.5C 210.46,426.844 212.46,425.177 214.5,423.5C 216.533,421.132 218.867,419.132 221.5,417.5 Z"/></g>
<g><path style="opacity:0.906" fill="#1c0e07" d="M 214.5,423.5 C 212.46,425.177 210.46,426.844 208.5,428.5C 208.167,428.5 207.833,428.5 207.5,428.5C 201.173,429.182 194.839,429.348 188.5,429C 185.927,427.389 183.261,425.889 180.5,424.5C 180.5,423.5 180.5,422.5 180.5,421.5C 182.216,421.629 183.883,421.962 185.5,422.5C 185.833,422.5 186.167,422.5 186.5,422.5C 186.414,423.496 186.748,424.329 187.5,425C 193.115,426.81 198.782,426.81 204.5,425C 206.32,424.8 207.653,423.966 208.5,422.5C 210.5,421.833 212.5,421.167 214.5,420.5C 214.5,421.5 214.5,422.5 214.5,423.5 Z"/></g>
<g><path style="opacity:1" fill="#402013" d="M 186.5,422.5 C 188.71,424.6 191.376,425.6 194.5,425.5C 199.297,425.008 203.963,424.008 208.5,422.5C 207.653,423.966 206.32,424.8 204.5,425C 198.782,426.81 193.115,426.81 187.5,425C 186.748,424.329 186.414,423.496 186.5,422.5 Z"/></g>
<g><path style="opacity:0.64" fill="#614f3d" d="M 180.5,424.5 C 183.261,425.889 185.927,427.389 188.5,429C 194.839,429.348 201.173,429.182 207.5,428.5C 201.532,431.154 195.198,431.987 188.5,431C 185.019,429.672 182.352,427.505 180.5,424.5 Z"/></g>
</svg>
