<?xml version="1.0" encoding="UTF-8"?>
<!DOCTYPE svg PUBLIC "-//W3C//DTD SVG 1.1//EN" "http://www.w3.org/Graphics/SVG/1.1/DTD/svg11.dtd">
<svg xmlns="http://www.w3.org/2000/svg" version="1.1" width="225px" height="225px" style="shape-rendering:geometricPrecision; text-rendering:geometricPrecision; image-rendering:optimizeQuality; fill-rule:evenodd; clip-rule:evenodd" xmlns:xlink="http://www.w3.org/1999/xlink">
<g><path style="opacity:1" fill="#fefefe" d="M -0.5,-0.5 C 74.5,-0.5 149.5,-0.5 224.5,-0.5C 224.5,74.5 224.5,149.5 224.5,224.5C 149.5,224.5 74.5,224.5 -0.5,224.5C -0.5,149.5 -0.5,74.5 -0.5,-0.5 Z"/></g>
<g><path style="opacity:1" fill="#fed20d" d="M 86.5,42.5 C 84.9583,53.5363 83.4583,64.8696 82,76.5C 81.2756,80.4273 80.109,84.094 78.5,87.5C 77.2905,87.0679 76.2905,86.4013 75.5,85.5C 75.8266,76.3178 75.4933,67.3178 74.5,58.5C 74.3341,53.4889 74.5007,48.4889 75,43.5C 76.8219,41.9546 78.9886,41.288 81.5,41.5C 83.3693,41.5068 85.036,41.8401 86.5,42.5 Z"/></g>
<g><path style="opacity:1" fill="#fed20c" d="M 156.5,48.5 C 152.579,62.9405 146.912,76.6071 139.5,89.5C 137.819,91.0075 135.819,92.0075 133.5,92.5C 136.086,84.6569 138.086,76.6569 139.5,68.5C 140.945,66.4293 141.945,64.096 142.5,61.5C 143.211,56.6562 144.544,51.9895 146.5,47.5C 149.926,46.5178 153.259,46.8511 156.5,48.5 Z"/></g>
<g><path style="opacity:1" fill="#f6aa0c" d="M 86.5,42.5 C 87.1667,42.5 87.5,42.8333 87.5,43.5C 87.1778,49.358 87.5111,55.0247 88.5,60.5C 87.3472,70.8208 86.3472,81.1541 85.5,91.5C 82.9684,90.4043 80.6351,89.0709 78.5,87.5C 80.109,84.094 81.2756,80.4273 82,76.5C 83.4583,64.8696 84.9583,53.5363 86.5,42.5 Z"/></g>
<g><path style="opacity:1" fill="#fadca2" d="M 87.5,43.5 C 88.1667,46.8333 88.8333,50.1667 89.5,53.5C 88.6314,55.717 88.298,58.0504 88.5,60.5C 87.5111,55.0247 87.1778,49.358 87.5,43.5 Z"/></g>
<g><path style="opacity:1" fill="#fed205" d="M 98.5,52.5 C 98.349,65.721 96.0157,78.5543 91.5,91C 91.1639,92.0299 90.4972,92.5299 89.5,92.5C 88.0413,92.5674 86.7079,92.2341 85.5,91.5C 86.3472,81.1541 87.3472,70.8208 88.5,60.5C 88.298,58.0504 88.6314,55.717 89.5,53.5C 92.2869,52.5233 95.2869,52.19 98.5,52.5 Z"/></g>
<g><path style="opacity:1" fill="#fed10c" d="M 69.5,53.5 C 71.2416,63.058 71.9083,72.7246 71.5,82.5C 68.5738,81.3024 65.5738,80.3024 62.5,79.5C 61.5712,71.5087 61.0712,63.5087 61,55.5C 63.6865,54.287 66.5198,53.6203 69.5,53.5 Z"/></g>
<g><path style="opacity:1" fill="#fed208" d="M 138.5,55.5 C 136.442,69.6056 132.109,82.9389 125.5,95.5C 124.833,95.5 124.167,95.5 123.5,95.5C 122.844,94.3784 122.511,93.0451 122.5,91.5C 124.445,81.8821 126.112,72.2155 127.5,62.5C 127.292,60.0799 127.626,57.7466 128.5,55.5C 131.874,54.2495 135.207,54.2495 138.5,55.5 Z"/></g>
<g><path style="opacity:1" fill="#fed206" d="M 123.5,58.5 C 122.491,71.5441 119.825,84.2108 115.5,96.5C 113.473,96.6621 111.473,96.4955 109.5,96C 110.381,87.1934 111.381,78.36 112.5,69.5C 112.627,65.7382 113.294,62.0715 114.5,58.5C 117.417,57.9338 120.417,57.9338 123.5,58.5 Z"/></g>
<g><path style="opacity:1" fill="#fed206" d="M 166.5,62.5 C 165.082,68.0925 163.082,73.4259 160.5,78.5C 155.98,80.5915 151.647,82.9248 147.5,85.5C 150.507,77.4895 153.507,69.4895 156.5,61.5C 159.938,60.2495 163.272,60.5828 166.5,62.5 Z"/></g>
<g><path style="opacity:1" fill="#f7ae1c" d="M 69.5,53.5 C 71.0174,53.5106 72.1841,54.1772 73,55.5C 73.3333,57.5 73.6667,59.5 74,61.5C 74.4828,60.552 74.6495,59.552 74.5,58.5C 75.4933,67.3178 75.8266,76.3178 75.5,85.5C 73.7697,84.9744 72.4363,83.9744 71.5,82.5C 71.9083,72.7246 71.2416,63.058 69.5,53.5 Z"/></g>
<g><path style="opacity:1" fill="#fbdc99" d="M 141.5,59.5 C 141.328,60.4916 141.662,61.1583 142.5,61.5C 141.945,64.096 140.945,66.4293 139.5,68.5C 139.858,65.3112 140.525,62.3112 141.5,59.5 Z"/></g>
<g><path style="opacity:1" fill="#f6ab0e" d="M 98.5,52.5 C 99.4959,52.4142 100.329,52.7476 101,53.5C 101.499,58.1548 101.666,62.8215 101.5,67.5C 100.667,76.7516 99.6674,86.0849 98.5,95.5C 95.2154,95.0719 92.2154,94.0719 89.5,92.5C 90.4972,92.5299 91.1639,92.0299 91.5,91C 96.0157,78.5543 98.349,65.721 98.5,52.5 Z"/></g>
<g><path style="opacity:1" fill="#fed103" d="M 101.5,67.5 C 103.833,67.5 106.167,67.5 108.5,67.5C 108.742,77.3214 107.742,86.9881 105.5,96.5C 103.05,96.702 100.717,96.3686 98.5,95.5C 99.6674,86.0849 100.667,76.7516 101.5,67.5 Z"/></g>
<g><path style="opacity:1" fill="#f6ab14" d="M 156.5,48.5 C 157.947,49.1342 158.613,50.3009 158.5,52C 157.517,55.1118 156.85,58.2785 156.5,61.5C 153.507,69.4895 150.507,77.4895 147.5,85.5C 145.109,87.3622 142.442,88.6955 139.5,89.5C 146.912,76.6071 152.579,62.9405 156.5,48.5 Z"/></g>
<g><path style="opacity:1" fill="#f6ac18" d="M 166.5,62.5 C 168.022,63.1909 169.022,64.3576 169.5,66C 167.465,69.6058 166.132,73.4391 165.5,77.5C 163.784,77.6287 162.117,77.962 160.5,78.5C 163.082,73.4259 165.082,68.0925 166.5,62.5 Z"/></g>
<g><path style="opacity:1" fill="#f6ad11" d="M 123.5,58.5 C 124.239,58.369 124.906,58.5357 125.5,59C 126.085,60.3024 126.751,61.469 127.5,62.5C 126.112,72.2155 124.445,81.8821 122.5,91.5C 122.511,93.0451 122.844,94.3784 123.5,95.5C 121.052,96.4731 118.385,96.8064 115.5,96.5C 119.825,84.2108 122.491,71.5441 123.5,58.5 Z"/></g>
<g><path style="opacity:1" fill="#e92326" d="M 165.5,77.5 C 166.725,78.1522 167.392,79.3189 167.5,81C 164.575,93.8671 161.575,106.7 158.5,119.5C 157.778,119.082 157.278,118.416 157,117.5C 146.211,141.623 129.044,158.79 105.5,169C 95.319,170.398 85.319,171.898 75.5,173.5C 72.8785,159.058 69.8785,144.725 66.5,130.5C 66.5,130.167 66.5,129.833 66.5,129.5C 63.1123,112.562 60.1123,95.562 57.5,78.5C 59.2915,78.366 60.9582,78.6993 62.5,79.5C 65.5738,80.3024 68.5738,81.3024 71.5,82.5C 72.4363,83.9744 73.7697,84.9744 75.5,85.5C 76.2905,86.4013 77.2905,87.0679 78.5,87.5C 80.6351,89.0709 82.9684,90.4043 85.5,91.5C 86.7079,92.2341 88.0413,92.5674 89.5,92.5C 92.2154,94.0719 95.2154,95.0719 98.5,95.5C 100.717,96.3686 103.05,96.702 105.5,96.5C 108.969,97.7 112.302,97.7 115.5,96.5C 118.385,96.8064 121.052,96.4731 123.5,95.5C 124.167,95.5 124.833,95.5 125.5,95.5C 128.327,94.8916 130.993,93.8916 133.5,92.5C 135.819,92.0075 137.819,91.0075 139.5,89.5C 142.442,88.6955 145.109,87.3622 147.5,85.5C 151.647,82.9248 155.98,80.5915 160.5,78.5C 162.117,77.962 163.784,77.6287 165.5,77.5 Z"/></g>
<g><path style="opacity:1" fill="#f6aa0c" d="M 138.5,55.5 C 140.912,55.6941 141.912,57.0274 141.5,59.5C 140.525,62.3112 139.858,65.3112 139.5,68.5C 138.086,76.6569 136.086,84.6569 133.5,92.5C 130.993,93.8916 128.327,94.8916 125.5,95.5C 132.109,82.9389 136.442,69.6056 138.5,55.5 Z"/></g>
<g><path style="opacity:1" fill="#f6a90d" d="M 108.5,67.5 C 110.062,67.7329 111.395,68.3995 112.5,69.5C 111.381,78.36 110.381,87.1934 109.5,96C 111.473,96.4955 113.473,96.6621 115.5,96.5C 112.302,97.7 108.969,97.7 105.5,96.5C 107.742,86.9881 108.742,77.3214 108.5,67.5 Z"/></g>
<g><path style="opacity:1" fill="#0a0303" d="M 92.5,111.5 C 98.3559,111.854 100.523,114.854 99,120.5C 95.6667,124.5 92.3333,124.5 89,120.5C 87.6649,116.392 88.8316,113.392 92.5,111.5 Z"/></g>
<g><path style="opacity:1" fill="#0a0303" d="M 125.5,112.5 C 133.489,111.317 136.156,114.484 133.5,122C 129.845,124.335 126.679,123.835 124,120.5C 123.282,117.593 123.782,114.926 125.5,112.5 Z"/></g>
<g><path style="opacity:1" fill="#dbdbdb" d="M 129.5,114.5 C 133.31,115.754 133.31,116.754 129.5,117.5C 129.5,116.5 129.5,115.5 129.5,114.5 Z"/></g>
<g><path style="opacity:1" fill="#c9c9c9" d="M 94.5,114.5 C 95.5,114.5 96.5,114.5 97.5,114.5C 97.5,115.5 97.5,116.5 97.5,117.5C 96.5,117.5 95.5,117.5 94.5,117.5C 94.5,116.5 94.5,115.5 94.5,114.5 Z"/></g>
<g><path style="opacity:1" fill="#252525" d="M 66.5,129.5 C 66.5,129.833 66.5,130.167 66.5,130.5C 65.1266,130.657 63.7932,130.49 62.5,130C 56.6365,126.905 50.9698,123.572 45.5,120C 47.3333,118.833 48.8333,117.333 50,115.5C 49.812,119.232 51.312,122.066 54.5,124C 58.1438,126.656 62.1438,128.489 66.5,129.5 Z"/></g>
<g><path style="opacity:1" fill="#670407" d="M 104.5,122.5 C 109.405,123.445 114.405,123.779 119.5,123.5C 119.415,125.929 118.415,127.929 116.5,129.5C 113.656,125.996 110.489,125.663 107,128.5C 105.681,126.713 104.848,124.713 104.5,122.5 Z"/></g>
<g><path style="opacity:1" fill="#da1f27" d="M 158.5,119.5 C 157.677,122.461 157.01,125.461 156.5,128.5C 156.5,128.833 156.5,129.167 156.5,129.5C 152.38,143.974 148.547,158.64 145,173.5C 143.188,176.28 141.021,178.78 138.5,181C 130.005,179.144 121.338,177.978 112.5,177.5C 102.551,177.618 92.8847,179.285 83.5,182.5C 80.0969,180.1 77.4302,177.1 75.5,173.5C 85.319,171.898 95.319,170.398 105.5,169C 129.044,158.79 146.211,141.623 157,117.5C 157.278,118.416 157.778,119.082 158.5,119.5 Z"/></g>
<g><path style="opacity:1" fill="#222222" d="M 156.5,129.5 C 156.5,129.167 156.5,128.833 156.5,128.5C 162.795,126.936 168.295,123.936 173,119.5C 173.333,117.833 173.667,116.167 174,114.5C 174.448,116.224 175.282,116.891 176.5,116.5C 175.45,118.102 176.117,118.935 178.5,119C 177.167,119.333 175.833,119.667 174.5,120C 169.479,125.011 163.479,128.177 156.5,129.5 Z"/></g>
</svg>
