<?xml version="1.0" encoding="UTF-8"?>
<!DOCTYPE svg PUBLIC "-//W3C//DTD SVG 1.1//EN" "http://www.w3.org/Graphics/SVG/1.1/DTD/svg11.dtd">
<svg xmlns="http://www.w3.org/2000/svg" version="1.1" width="500px" height="500px" style="shape-rendering:geometricPrecision; text-rendering:geometricPrecision; image-rendering:optimizeQuality; fill-rule:evenodd; clip-rule:evenodd" xmlns:xlink="http://www.w3.org/1999/xlink">
<g><path style="opacity:0.102" fill="#fefefe" d="M -0.5,-0.5 C 166.167,-0.5 332.833,-0.5 499.5,-0.5C 499.5,166.167 499.5,332.833 499.5,499.5C 332.833,499.5 166.167,499.5 -0.5,499.5C -0.5,332.833 -0.5,166.167 -0.5,-0.5 Z"/></g>
<g><path style="opacity:0.576" fill="#8b908f" d="M 255.5,139.5 C 254.662,139.842 254.328,140.508 254.5,141.5C 254.167,141.5 253.833,141.5 253.5,141.5C 253.5,139.833 253.5,138.167 253.5,136.5C 254.222,136.082 254.722,135.416 255,134.5C 255.494,136.134 255.66,137.801 255.5,139.5 Z"/></g>
<g><path style="opacity:1" fill="#dae8ee" d="M 308.5,135.5 C 309.165,137.698 309.832,140.031 310.5,142.5C 316.873,139.574 323.207,139.241 329.5,141.5C 330.574,143.216 332.241,144.216 334.5,144.5C 335.298,144.043 335.631,143.376 335.5,142.5C 340.428,143.978 344.928,146.312 349,149.5C 349.608,151.154 350.108,152.821 350.5,154.5C 349.095,156.64 348.262,158.974 348,161.5C 349.045,160.627 349.878,159.627 350.5,158.5C 356.391,157.044 362.391,156.377 368.5,156.5C 368.389,158.648 369.056,158.981 370.5,157.5C 376.711,158.886 382.711,160.886 388.5,163.5C 389.107,163.376 389.44,163.043 389.5,162.5C 393.949,163.284 396.282,165.95 396.5,170.5C 395.436,175.965 392.436,179.965 387.5,182.5C 386.508,182.328 385.842,182.662 385.5,183.5C 384.508,183.328 383.842,183.662 383.5,184.5C 372.014,187.501 360.681,187.001 349.5,183C 341.667,179.488 339.334,173.821 342.5,166C 341.072,165.421 339.738,165.588 338.5,166.5C 332.635,168.156 326.635,168.823 320.5,168.5C 318.833,168.5 317.167,168.5 315.5,168.5C 307.167,168.258 301.001,164.592 297,157.5C 296.51,155.455 296.677,153.455 297.5,151.5C 299.088,150.365 299.421,149.031 298.5,147.5C 297.261,147.942 296.261,148.609 295.5,149.5C 283.875,152.67 272.541,151.837 261.5,147C 258.882,144.894 256.882,142.394 255.5,139.5C 255.66,137.801 255.494,136.134 255,134.5C 254.722,135.416 254.222,136.082 253.5,136.5C 253.351,135.448 253.517,134.448 254,133.5C 264.6,123.363 277.1,120.196 291.5,124C 297.175,125.552 302.341,128.052 307,131.5C 307.791,132.745 308.291,134.078 308.5,135.5 Z"/></g>
<g><path style="opacity:1" fill="#f6b88f" d="M 279.5,132.5 C 279.5,132.167 279.5,131.833 279.5,131.5C 282.609,131.655 285.609,132.322 288.5,133.5C 289.612,134.265 290.279,135.265 290.5,136.5C 287.324,136.67 285.324,138.337 284.5,141.5C 283.5,141.167 282.833,140.5 282.5,139.5C 283.982,137.517 285.649,135.684 287.5,134C 285.893,133.885 284.393,134.385 283,135.5C 281.273,135.354 281.106,134.687 282.5,133.5C 281.675,132.614 280.675,132.281 279.5,132.5 Z"/></g>
<g><path style="opacity:1" fill="#81a15e" d="M 279.5,131.5 C 279.5,131.833 279.5,132.167 279.5,132.5C 277.116,134.885 274.45,136.885 271.5,138.5C 270.001,136.742 269.668,134.909 270.5,133C 273.403,130.712 276.403,130.212 279.5,131.5 Z"/></g>
<g><path style="opacity:1" fill="#f59e67" d="M 279.5,132.5 C 280.675,132.281 281.675,132.614 282.5,133.5C 281.106,134.687 281.273,135.354 283,135.5C 284.393,134.385 285.893,133.885 287.5,134C 285.649,135.684 283.982,137.517 282.5,139.5C 282.833,140.5 283.5,141.167 284.5,141.5C 285.324,138.337 287.324,136.67 290.5,136.5C 291.376,136.369 292.043,136.702 292.5,137.5C 289.452,138.437 287.119,140.27 285.5,143C 281.364,143.671 277.364,143.171 273.5,141.5C 273.709,140.914 274.043,140.414 274.5,140C 273.263,139.768 272.263,139.268 271.5,138.5C 274.45,136.885 277.116,134.885 279.5,132.5 Z"/></g>
<g><path style="opacity:1" fill="#686b6b" d="M 308.5,135.5 C 308.5,138.167 308.5,140.833 308.5,143.5C 307.448,143.649 306.448,143.483 305.5,143C 306.812,140.52 307.812,138.02 308.5,135.5 Z"/></g>
<g><path style="opacity:0.671" fill="#8e9596" d="M 329.5,141.5 C 331.565,141.517 333.565,141.85 335.5,142.5C 335.631,143.376 335.298,144.043 334.5,144.5C 332.241,144.216 330.574,143.216 329.5,141.5 Z"/></g>
<g><path style="opacity:1" fill="#c4894c" d="M 253.5,141.5 C 253.833,141.5 254.167,141.5 254.5,141.5C 254.5,145.5 254.5,149.5 254.5,153.5C 253.566,152.432 253.232,151.099 253.5,149.5C 250.057,148.941 247.057,147.607 244.5,145.5C 247.814,144.607 250.814,143.274 253.5,141.5 Z"/></g>
<g><path style="opacity:1" fill="#12110f" d="M 255.5,139.5 C 256.882,142.394 258.882,144.894 261.5,147C 272.541,151.837 283.875,152.67 295.5,149.5C 296.833,149.5 297.5,150.167 297.5,151.5C 296.677,153.455 296.51,155.455 297,157.5C 301.001,164.592 307.167,168.258 315.5,168.5C 316.568,169.434 317.901,169.768 319.5,169.5C 319.509,171.308 319.009,172.975 318,174.5C 317.577,173.044 316.744,172.544 315.5,173C 312.669,176.588 309.335,179.421 305.5,181.5C 304.92,179.251 303.587,177.585 301.5,176.5C 301.573,174.973 300.906,173.973 299.5,173.5C 296.052,168.722 291.385,166.056 285.5,165.5C 284.22,164.069 282.553,163.402 280.5,163.5C 277.236,162.676 273.902,162.342 270.5,162.5C 269.178,162.67 268.011,162.337 267,161.5C 265.19,164.018 263.357,164.018 261.5,161.5C 261.167,160.5 260.5,159.833 259.5,159.5C 259.167,158.833 258.833,158.167 258.5,157.5C 257.5,155.833 256.167,154.5 254.5,153.5C 254.5,149.5 254.5,145.5 254.5,141.5C 254.328,140.508 254.662,139.842 255.5,139.5 Z"/></g>
<g><path style="opacity:1" fill="#262520" d="M 226.5,147.5 C 227.901,150.634 229.568,153.634 231.5,156.5C 231.328,157.492 231.662,158.158 232.5,158.5C 233.509,161.527 233.509,164.527 232.5,167.5C 229.607,169.772 226.607,171.772 223.5,173.5C 223.167,173.5 222.833,173.5 222.5,173.5C 220.5,174.167 218.5,174.833 216.5,175.5C 214.224,167.217 212.557,158.55 211.5,149.5C 216.07,146.419 221.07,145.753 226.5,147.5 Z"/></g>
<g><path style="opacity:1" fill="#5f6767" d="M 297.5,151.5 C 297.5,150.167 296.833,149.5 295.5,149.5C 296.261,148.609 297.261,147.942 298.5,147.5C 299.421,149.031 299.088,150.365 297.5,151.5 Z"/></g>
<g><path style="opacity:1" fill="#f8d3b3" d="M 232.5,158.5 C 231.662,158.158 231.328,157.492 231.5,156.5C 233.701,153.979 236.034,151.479 238.5,149C 239.5,148.333 240.5,148.333 241.5,149C 238.268,152.062 235.268,155.229 232.5,158.5 Z"/></g>
<g><path style="opacity:1" fill="#f99b5f" d="M 244.5,145.5 C 247.057,147.607 250.057,148.941 253.5,149.5C 253.232,151.099 253.566,152.432 254.5,153.5C 256.167,154.5 257.5,155.833 258.5,157.5C 254.76,159.794 251.26,162.46 248,165.5C 248.529,167.567 249.363,169.567 250.5,171.5C 251.612,173.599 252.279,175.933 252.5,178.5C 251.07,182.354 249.403,186.021 247.5,189.5C 247.291,188.078 246.791,186.745 246,185.5C 245.764,187.764 245.264,189.931 244.5,192C 242.083,191.538 239.917,191.705 238,192.5C 237.333,191.833 236.667,191.167 236,190.5C 234.27,196.813 234.103,203.147 235.5,209.5C 235.433,210.959 235.766,212.292 236.5,213.5C 235.833,214.833 234.833,215.833 233.5,216.5C 233.5,215.167 233.5,213.833 233.5,212.5C 232.007,205.63 231.174,198.63 231,191.5C 230.667,191.167 230.333,190.833 230,190.5C 229.29,191.973 228.124,192.64 226.5,192.5C 227.217,189.677 228.217,187.01 229.5,184.5C 227.876,184.64 226.71,183.973 226,182.5C 225.641,185.544 224.974,185.878 224,183.5C 223.809,185.708 223.309,187.708 222.5,189.5C 222.5,188.833 222.5,188.167 222.5,187.5C 222.659,182.889 223.325,178.389 224.5,174C 224.272,173.601 223.938,173.435 223.5,173.5C 226.607,171.772 229.607,169.772 232.5,167.5C 233.509,164.527 233.509,161.527 232.5,158.5C 235.268,155.229 238.268,152.062 241.5,149C 240.5,148.333 239.5,148.333 238.5,149C 236.034,151.479 233.701,153.979 231.5,156.5C 229.568,153.634 227.901,150.634 226.5,147.5C 232.467,146.79 238.467,146.123 244.5,145.5 Z"/></g>
<g><path style="opacity:1" fill="#89a962" d="M 321.5,150.5 C 318.599,151.792 316.266,153.792 314.5,156.5C 311.927,154.868 311.261,152.702 312.5,150C 314.649,149.421 316.815,148.921 319,148.5C 320.376,148.684 321.209,149.351 321.5,150.5 Z"/></g>
<g><path style="opacity:1" fill="#f5b084" d="M 327.5,151.5 C 330.308,150.881 332.308,152.215 333.5,155.5C 331.216,156.458 329.216,157.792 327.5,159.5C 325.748,159.582 324.748,158.749 324.5,157C 325.868,155.127 327.534,153.46 329.5,152C 328.906,151.536 328.239,151.369 327.5,151.5 Z"/></g>
<g><path style="opacity:1" fill="#fb9d60" d="M 208.5,151.5 C 208.366,153.292 208.699,154.958 209.5,156.5C 209.674,158.861 210.007,161.194 210.5,163.5C 209.398,167.492 207.732,171.159 205.5,174.5C 205.631,173.761 205.464,173.094 205,172.5C 204.653,174.18 203.653,175.18 202,175.5C 200.217,173.603 198.217,171.937 196,170.5C 195.023,172.706 193.857,174.706 192.5,176.5C 194.05,167.969 196.383,159.636 199.5,151.5C 198.998,150.479 198.332,150.312 197.5,151C 196.853,152.609 196.02,154.109 195,155.5C 193.926,161.41 192.426,167.077 190.5,172.5C 190.5,170.5 190.5,168.5 190.5,166.5C 187.762,165.965 185.928,166.965 185,169.5C 184.751,168.376 184.251,167.376 183.5,166.5C 182.182,169.505 181.182,172.505 180.5,175.5C 180.363,170.068 181.029,164.735 182.5,159.5C 182.315,158.416 181.982,157.416 181.5,156.5C 186.286,153.691 191.12,151.025 196,148.5C 200.224,149.431 204.391,150.431 208.5,151.5 Z"/></g>
<g><path style="opacity:1" fill="#49433a" d="M 211.5,149.5 C 212.557,158.55 214.224,167.217 216.5,175.5C 215.48,176.954 214.313,177.287 213,176.5C 212.821,172.975 212.321,169.641 211.5,166.5C 211.5,165.5 211.5,164.5 211.5,163.5C 211.59,160.848 210.924,158.515 209.5,156.5C 208.699,154.958 208.366,153.292 208.5,151.5C 209.29,150.599 210.29,149.932 211.5,149.5 Z"/></g>
<g><path style="opacity:1" fill="#f79c64" d="M 321.5,150.5 C 323.565,150.517 325.565,150.85 327.5,151.5C 328.239,151.369 328.906,151.536 329.5,152C 327.534,153.46 325.868,155.127 324.5,157C 324.748,158.749 325.748,159.582 327.5,159.5C 327.5,159.833 327.5,160.167 327.5,160.5C 323.481,160.354 319.481,160.021 315.5,159.5C 317.129,157.804 316.796,156.804 314.5,156.5C 316.266,153.792 318.599,151.792 321.5,150.5 Z"/></g>
<g><path style="opacity:0.363" fill="#bbc3c5" d="M 368.5,156.5 C 376.052,156.803 383.052,158.803 389.5,162.5C 389.44,163.043 389.107,163.376 388.5,163.5C 382.711,160.886 376.711,158.886 370.5,157.5C 369.056,158.981 368.389,158.648 368.5,156.5 Z"/></g>
<g><path style="opacity:1" fill="#fbd1b0" d="M 192.5,176.5 C 192.5,177.5 192.5,178.5 192.5,179.5C 191.686,181.631 191.186,183.964 191,186.5C 190.501,181.845 190.334,177.179 190.5,172.5C 192.426,167.077 193.926,161.41 195,155.5C 196.02,154.109 196.853,152.609 197.5,151C 198.332,150.312 198.998,150.479 199.5,151.5C 196.383,159.636 194.05,167.969 192.5,176.5 Z"/></g>
<g><path style="opacity:1" fill="#ebc39d" d="M 315.5,159.5 C 319.481,160.021 323.481,160.354 327.5,160.5C 323.402,161.823 319.402,161.489 315.5,159.5 Z"/></g>
<g><path style="opacity:1" fill="#7c8081" d="M 350.5,154.5 C 350.5,155.833 350.5,157.167 350.5,158.5C 349.878,159.627 349.045,160.627 348,161.5C 348.262,158.974 349.095,156.64 350.5,154.5 Z"/></g>
<g><path style="opacity:1" fill="#e99053" d="M 259.5,159.5 C 260.5,159.833 261.167,160.5 261.5,161.5C 259.394,163.079 257.06,164.412 254.5,165.5C 253.833,165.5 253.167,165.5 252.5,165.5C 254.193,162.81 256.527,160.81 259.5,159.5 Z"/></g>
<g><path style="opacity:1" fill="#b47c5f" d="M 209.5,156.5 C 210.924,158.515 211.59,160.848 211.5,163.5C 211.167,163.5 210.833,163.5 210.5,163.5C 210.007,161.194 209.674,158.861 209.5,156.5 Z"/></g>
<g><path style="opacity:1" fill="#f3b489" d="M 258.5,157.5 C 258.833,158.167 259.167,158.833 259.5,159.5C 256.527,160.81 254.193,162.81 252.5,165.5C 250.919,167.142 250.253,169.142 250.5,171.5C 249.363,169.567 248.529,167.567 248,165.5C 251.26,162.46 254.76,159.794 258.5,157.5 Z"/></g>
<g><path style="opacity:1" fill="#25241f" d="M 261.5,161.5 C 263.357,164.018 265.19,164.018 267,161.5C 268.011,162.337 269.178,162.67 270.5,162.5C 269.722,163.156 269.056,163.989 268.5,165C 270.308,167.463 271.975,169.963 273.5,172.5C 273.263,173.791 273.596,174.791 274.5,175.5C 274.665,178.518 274.498,181.518 274,184.5C 270.659,187.241 267.159,189.574 263.5,191.5C 262.508,191.328 261.842,191.662 261.5,192.5C 260.041,192.433 258.708,192.766 257.5,193.5C 256.425,185.269 255.091,176.936 253.5,168.5C 253.685,167.416 254.018,166.416 254.5,165.5C 257.06,164.412 259.394,163.079 261.5,161.5 Z"/></g>
<g><path style="opacity:1" fill="#fa995c" d="M 180.5,157.5 C 178.888,164.73 178.221,172.063 178.5,179.5C 178.5,182.833 178.5,186.167 178.5,189.5C 177.676,185.688 177.176,181.688 177,177.5C 176.667,177.833 176.333,178.167 176,178.5C 175.667,177.5 175.333,176.5 175,175.5C 173.715,179.404 171.881,183.071 169.5,186.5C 168.526,188.743 168.192,191.076 168.5,193.5C 167.51,187.355 167.177,181.022 167.5,174.5C 167.806,171.615 167.473,168.948 166.5,166.5C 170.115,161.889 174.782,158.889 180.5,157.5 Z"/></g>
<g><path style="opacity:1" fill="#fac09a" d="M 210.5,163.5 C 210.833,163.5 211.167,163.5 211.5,163.5C 211.5,164.5 211.5,165.5 211.5,166.5C 210.83,169.673 209.664,172.673 208,175.5C 207.503,177.81 207.337,180.143 207.5,182.5C 206.778,182.918 206.278,183.584 206,184.5C 205.502,181.183 205.335,177.85 205.5,174.5C 207.732,171.159 209.398,167.492 210.5,163.5 Z"/></g>
<g><path style="opacity:1" fill="#84a362" d="M 366.5,166.5 C 363.987,169.255 360.987,171.255 357.5,172.5C 355.576,170.91 355.243,169.076 356.5,167C 358.96,166.019 361.46,165.185 364,164.5C 365.376,164.684 366.209,165.351 366.5,166.5 Z"/></g>
<g><path style="opacity:1" fill="#f3cbab" d="M 280.5,163.5 C 282.553,163.402 284.22,164.069 285.5,165.5C 281.643,166.686 278.643,169.02 276.5,172.5C 275.094,172.973 274.427,173.973 274.5,175.5C 273.596,174.791 273.263,173.791 273.5,172.5C 276.209,169.792 278.542,166.792 280.5,163.5 Z"/></g>
<g><path style="opacity:1" fill="#ec9d63" d="M 270.5,162.5 C 273.902,162.342 277.236,162.676 280.5,163.5C 278.542,166.792 276.209,169.792 273.5,172.5C 271.975,169.963 270.308,167.463 268.5,165C 269.056,163.989 269.722,163.156 270.5,162.5 Z"/></g>
<g><path style="opacity:1" fill="#373837" d="M 338.5,166.5 C 338.141,168.371 337.141,169.871 335.5,171C 332.133,171.525 328.966,171.025 326,169.5C 324.833,169.833 323.667,170.167 322.5,170.5C 323.93,173.433 325.93,175.933 328.5,178C 327.975,178.692 327.308,179.192 326.5,179.5C 325.055,177.606 323.388,175.94 321.5,174.5C 320.659,172.621 320.325,170.621 320.5,168.5C 326.635,168.823 332.635,168.156 338.5,166.5 Z"/></g>
<g><path style="opacity:1" fill="#f5a36e" d="M 366.5,166.5 C 370.524,167.038 374.524,167.705 378.5,168.5C 378.33,169.822 378.663,170.989 379.5,172C 378.5,172.333 377.5,172.667 376.5,173C 373.973,177.697 369.973,179.864 364.5,179.5C 363.494,179.062 363.494,178.396 364.5,177.5C 363.284,176.904 361.951,176.737 360.5,177C 360.167,176.667 359.833,176.333 359.5,176C 360.308,175.692 360.975,175.192 361.5,174.5C 360.051,173.828 358.718,173.161 357.5,172.5C 360.987,171.255 363.987,169.255 366.5,166.5 Z"/></g>
<g><path style="opacity:1" fill="#e29e56" d="M 163.5,168.5 C 165.456,174.412 166.123,180.745 165.5,187.5C 164.833,181.986 164.167,176.319 163.5,170.5C 161.025,174.117 159.692,178.117 159.5,182.5C 153.09,180.363 146.756,178.03 140.5,175.5C 147.928,172.721 155.595,170.388 163.5,168.5 Z"/></g>
<g><path style="opacity:1" fill="#f9c8a2" d="M 166.5,166.5 C 167.473,168.948 167.806,171.615 167.5,174.5C 166.833,179.833 166.167,185.167 165.5,190.5C 165.5,189.5 165.5,188.5 165.5,187.5C 166.123,180.745 165.456,174.412 163.5,168.5C 164.29,167.599 165.29,166.932 166.5,166.5 Z"/></g>
<g><path style="opacity:1" fill="#4a4339" d="M 252.5,165.5 C 253.167,165.5 253.833,165.5 254.5,165.5C 254.018,166.416 253.685,167.416 253.5,168.5C 255.091,176.936 256.425,185.269 257.5,193.5C 256.791,194.404 255.791,194.737 254.5,194.5C 254.815,190.629 254.482,186.962 253.5,183.5C 253.784,181.585 253.451,179.919 252.5,178.5C 252.279,175.933 251.612,173.599 250.5,171.5C 250.253,169.142 250.919,167.142 252.5,165.5 Z"/></g>
<g><path style="opacity:1" fill="#fb9656" d="M 285.5,165.5 C 291.385,166.056 296.052,168.722 299.5,173.5C 294.901,176.429 290.901,180.096 287.5,184.5C 286.849,185.091 286.182,185.757 285.5,186.5C 284.646,185.478 283.646,184.645 282.5,184C 280.236,183.764 278.069,183.264 276,182.5C 275.341,179.112 275.508,175.779 276.5,172.5C 278.643,169.02 281.643,166.686 285.5,165.5 Z"/></g>
<g><path style="opacity:1" fill="#fbcfae" d="M 181.5,156.5 C 181.982,157.416 182.315,158.416 182.5,159.5C 181.029,164.735 180.363,170.068 180.5,175.5C 179.833,176.833 179.167,178.167 178.5,179.5C 178.221,172.063 178.888,164.73 180.5,157.5C 180.5,156.833 180.833,156.5 181.5,156.5 Z"/></g>
<g><path style="opacity:1" fill="#ce8a48" d="M 140.5,175.5 C 146.756,178.03 153.09,180.363 159.5,182.5C 157.885,191.267 158.219,199.934 160.5,208.5C 142.227,202.536 124.227,195.703 106.5,188C 105.058,187.623 104.058,186.79 103.5,185.5C 115.726,181.758 128.059,178.424 140.5,175.5 Z"/></g>
<g><path style="opacity:1" fill="#f9bb94" d="M 299.5,173.5 C 300.906,173.973 301.573,174.973 301.5,176.5C 296.637,177.98 292.637,180.814 289.5,185C 288.563,185.692 287.897,185.525 287.5,184.5C 290.901,180.096 294.901,176.429 299.5,173.5 Z"/></g>
<g><path style="opacity:1" fill="#fa985c" d="M 211.5,166.5 C 212.321,169.641 212.821,172.975 213,176.5C 214.313,177.287 215.48,176.954 216.5,175.5C 218.5,174.833 220.5,174.167 222.5,173.5C 221.833,177.833 221.167,182.167 220.5,186.5C 220.167,186.5 219.833,186.5 219.5,186.5C 218.636,187.688 217.636,188.855 216.5,190C 216.957,190.414 217.291,190.914 217.5,191.5C 216.846,193.115 216.346,194.782 216,196.5C 213.779,197.934 212.279,199.934 211.5,202.5C 210.808,201.975 210.308,201.308 210,200.5C 209.87,206.958 210.537,213.291 212,219.5C 210.199,216.563 208.699,213.563 207.5,210.5C 207.5,209.833 207.5,209.167 207.5,208.5C 208.205,199.265 209.205,189.932 210.5,180.5C 210.167,180.167 209.833,179.833 209.5,179.5C 208.824,180.602 208.158,181.602 207.5,182.5C 207.337,180.143 207.503,177.81 208,175.5C 209.664,172.673 210.83,169.673 211.5,166.5 Z"/></g>
<g><path style="opacity:1" fill="#11100d" d="M 383.5,184.5 C 384.495,196.655 384.829,208.989 384.5,221.5C 382.716,221.893 381.05,222.559 379.5,223.5C 376.193,224.051 372.86,224.384 369.5,224.5C 364.333,224.91 359.333,224.243 354.5,222.5C 353.702,222.043 353.369,221.376 353.5,220.5C 356.332,218.593 357.166,215.927 356,212.5C 354.618,209.957 352.785,207.957 350.5,206.5C 350.573,204.973 349.906,203.973 348.5,203.5C 347.241,199.975 345.241,196.975 342.5,194.5C 341.974,192.77 340.974,191.436 339.5,190.5C 335.558,186.027 330.558,183.36 324.5,182.5C 323.833,182.5 323.167,182.5 322.5,182.5C 321.71,181.599 320.71,180.932 319.5,180.5C 320.58,178.955 320.58,177.455 319.5,176C 319.836,174.97 320.503,174.47 321.5,174.5C 323.388,175.94 325.055,177.606 326.5,179.5C 327.308,179.192 327.975,178.692 328.5,178C 325.93,175.933 323.93,173.433 322.5,170.5C 323.667,170.167 324.833,169.833 326,169.5C 328.966,171.025 332.133,171.525 335.5,171C 337.141,169.871 338.141,168.371 338.5,166.5C 339.738,165.588 341.072,165.421 342.5,166C 339.334,173.821 341.667,179.488 349.5,183C 360.681,187.001 372.014,187.501 383.5,184.5 Z"/></g>
<g><path style="opacity:1" fill="#e9a16c" d="M 319.5,180.5 C 320.71,180.932 321.71,181.599 322.5,182.5C 319.767,185.239 316.767,187.573 313.5,189.5C 313.5,188.833 313.167,188.5 312.5,188.5C 311.876,186.246 310.543,184.579 308.5,183.5C 308.5,183.167 308.5,182.833 308.5,182.5C 308.918,181.778 309.584,181.278 310.5,181C 313.482,180.502 316.482,180.335 319.5,180.5 Z"/></g>
<g><path style="opacity:1" fill="#504e49" d="M 396.5,170.5 C 396.5,173.5 396.5,176.5 396.5,179.5C 396.5,182.833 396.5,186.167 396.5,189.5C 396.5,195.833 396.5,202.167 396.5,208.5C 396.5,209.833 396.5,211.167 396.5,212.5C 395.599,213.29 394.932,214.29 394.5,215.5C 393.5,215.833 392.833,216.5 392.5,217.5C 391.833,217.5 391.5,217.833 391.5,218.5C 391.167,218.5 390.833,218.5 390.5,218.5C 390.232,206.154 389.232,194.154 387.5,182.5C 392.436,179.965 395.436,175.965 396.5,170.5 Z"/></g>
<g><path style="opacity:1" fill="#fac39f" d="M 207.5,208.5 C 206.257,199.883 206.257,191.217 207.5,182.5C 208.158,181.602 208.824,180.602 209.5,179.5C 209.833,179.833 210.167,180.167 210.5,180.5C 209.205,189.932 208.205,199.265 207.5,208.5 Z"/></g>
<g><path style="opacity:1" fill="#f79b5f" d="M 324.5,182.5 C 330.558,183.36 335.558,186.027 339.5,190.5C 336.522,189.014 334.022,189.681 332,192.5C 331.275,191.941 330.442,191.608 329.5,191.5C 327.063,192.741 324.563,193.741 322,194.5C 320.965,191.214 319.465,190.88 317.5,193.5C 316.516,196.428 316.183,199.428 316.5,202.5C 315.833,200.5 315.167,198.5 314.5,196.5C 314.5,195.5 314.5,194.5 314.5,193.5C 314.5,193.167 314.5,192.833 314.5,192.5C 317.5,188.833 320.833,185.5 324.5,182.5 Z"/></g>
<g><path style="opacity:1" fill="#393937" d="M 385.5,183.5 C 385.842,182.662 386.508,182.328 387.5,182.5C 389.232,194.154 390.232,206.154 390.5,218.5C 389.395,219.6 388.062,220.267 386.5,220.5C 386.829,207.989 386.495,195.655 385.5,183.5 Z"/></g>
<g><path style="opacity:1" fill="#fad2b3" d="M 222.5,173.5 C 222.833,173.5 223.167,173.5 223.5,173.5C 223.938,173.435 224.272,173.601 224.5,174C 223.325,178.389 222.659,182.889 222.5,187.5C 221.676,191.312 221.176,195.312 221,199.5C 220.501,195.179 220.334,190.846 220.5,186.5C 221.167,182.167 221.833,177.833 222.5,173.5 Z"/></g>
<g><path style="opacity:1" fill="#fbcdaa" d="M 239.5,165.5 C 240.497,165.47 241.164,165.97 241.5,167C 237.962,177.32 235.129,187.82 233,198.5C 232.779,187.046 234.946,176.046 239.5,165.5 Z"/></g>
<g><path style="opacity:1" fill="#f39b61" d="M 276.5,172.5 C 275.508,175.779 275.341,179.112 276,182.5C 278.069,183.264 280.236,183.764 282.5,184C 283.646,184.645 284.646,185.478 285.5,186.5C 286.182,185.757 286.849,185.091 287.5,184.5C 287.897,185.525 288.563,185.692 289.5,185C 292.637,180.814 296.637,177.98 301.5,176.5C 303.587,177.585 304.92,179.251 305.5,181.5C 301.018,181.034 297.018,182.034 293.5,184.5C 292.053,185.134 291.387,186.301 291.5,188C 292.077,190.137 292.41,192.304 292.5,194.5C 292.706,197.495 292.04,200.162 290.5,202.5C 290.854,198.363 290.354,194.363 289,190.5C 287.337,192.158 286.504,194.158 286.5,196.5C 283.833,196.5 281.167,196.5 278.5,196.5C 279.265,192.402 280.098,188.402 281,184.5C 278.422,187.868 276.589,191.535 275.5,195.5C 274.116,193.002 272.116,191.002 269.5,189.5C 268.127,191.207 266.461,192.54 264.5,193.5C 264.672,192.508 264.338,191.842 263.5,191.5C 267.159,189.574 270.659,187.241 274,184.5C 274.498,181.518 274.665,178.518 274.5,175.5C 274.427,173.973 275.094,172.973 276.5,172.5 Z"/></g>
<g><path style="opacity:1" fill="#44433e" d="M 308.5,182.5 C 308.5,182.833 308.5,183.167 308.5,183.5C 304.987,185.908 304.654,188.742 307.5,192C 310.926,193.238 312.592,192.071 312.5,188.5C 313.167,188.5 313.5,188.833 313.5,189.5C 313.263,190.791 313.596,191.791 314.5,192.5C 314.5,192.833 314.5,193.167 314.5,193.5C 306.284,196.762 302.451,194.095 303,185.5C 304.264,183.393 306.097,182.393 308.5,182.5 Z"/></g>
<g><path style="opacity:1" fill="#252523" d="M 383.5,184.5 C 383.842,183.662 384.508,183.328 385.5,183.5C 386.495,195.655 386.829,207.989 386.5,220.5C 385.833,220.833 385.167,221.167 384.5,221.5C 384.829,208.989 384.495,196.655 383.5,184.5 Z"/></g>
<g><path style="opacity:1" fill="#f8d3b6" d="M 322.5,182.5 C 323.167,182.5 323.833,182.5 324.5,182.5C 320.833,185.5 317.5,188.833 314.5,192.5C 313.596,191.791 313.263,190.791 313.5,189.5C 316.767,187.573 319.767,185.239 322.5,182.5 Z"/></g>
<g><path style="opacity:1" fill="#f9a573" d="M 190.5,172.5 C 190.334,177.179 190.501,181.845 191,186.5C 191.186,183.964 191.686,181.631 192.5,179.5C 192.182,184.032 192.515,188.366 193.5,192.5C 193.629,194.216 193.962,195.883 194.5,197.5C 194.167,198.5 193.5,199.167 192.5,199.5C 192.737,198.209 192.404,197.209 191.5,196.5C 190.192,188.893 189.192,181.226 188.5,173.5C 187.833,174.167 187.167,174.833 186.5,175.5C 186.294,173.39 187.127,171.39 189,169.5C 189.232,170.737 189.732,171.737 190.5,172.5 Z"/></g>
<g><path style="opacity:1" fill="#262520" d="M 308.5,183.5 C 310.543,184.579 311.876,186.246 312.5,188.5C 312.592,192.071 310.926,193.238 307.5,192C 304.654,188.742 304.987,185.908 308.5,183.5 Z"/></g>
<g><path style="opacity:1" fill="#fb8444" d="M 190.5,172.5 C 189.732,171.737 189.232,170.737 189,169.5C 187.127,171.39 186.294,173.39 186.5,175.5C 187.167,174.833 187.833,174.167 188.5,173.5C 189.192,181.226 190.192,188.893 191.5,196.5C 188.937,197.592 186.77,199.258 185,201.5C 184.235,203.066 184.402,204.399 185.5,205.5C 184.89,206.391 184.557,207.391 184.5,208.5C 184.167,208.5 183.833,208.5 183.5,208.5C 183.539,207.244 183.039,206.244 182,205.5C 180.626,207.747 179.126,209.913 177.5,212C 176.394,213.882 176.394,215.716 177.5,217.5C 178.182,216.757 178.849,216.091 179.5,215.5C 179.634,217.292 179.301,218.958 178.5,220.5C 173.819,219.827 169.486,218.161 165.5,215.5C 164.488,214.128 163.488,212.795 162.5,211.5C 162.218,210.222 161.551,209.222 160.5,208.5C 158.219,199.934 157.885,191.267 159.5,182.5C 159.692,178.117 161.025,174.117 163.5,170.5C 164.167,176.319 164.833,181.986 165.5,187.5C 165.5,188.5 165.5,189.5 165.5,190.5C 165.783,194.97 167.283,198.97 170,202.5C 169.842,199.498 169.342,196.498 168.5,193.5C 168.192,191.076 168.526,188.743 169.5,186.5C 171.881,183.071 173.715,179.404 175,175.5C 175.333,176.5 175.667,177.5 176,178.5C 176.333,178.167 176.667,177.833 177,177.5C 177.176,181.688 177.676,185.688 178.5,189.5C 178.264,192.829 179.097,195.829 181,198.5C 180.644,190.879 180.477,183.212 180.5,175.5C 181.182,172.505 182.182,169.505 183.5,166.5C 184.251,167.376 184.751,168.376 185,169.5C 185.928,166.965 187.762,165.965 190.5,166.5C 190.5,168.5 190.5,170.5 190.5,172.5 Z"/></g>
<g><path style="opacity:1" fill="#fcb183" d="M 180.5,175.5 C 180.477,183.212 180.644,190.879 181,198.5C 179.097,195.829 178.264,192.829 178.5,189.5C 178.5,186.167 178.5,182.833 178.5,179.5C 179.167,178.167 179.833,176.833 180.5,175.5 Z"/></g>
<g><path style="opacity:1" fill="#fab78c" d="M 252.5,178.5 C 253.451,179.919 253.784,181.585 253.5,183.5C 251.161,187.981 249.495,192.814 248.5,198C 249.022,198.95 249.689,199.784 250.5,200.5C 249.183,209.295 249.183,217.962 250.5,226.5C 250.955,229.203 251.622,231.87 252.5,234.5C 252.518,236.373 252.018,236.706 251,235.5C 248.347,231.197 247.18,226.531 247.5,221.5C 247.823,214.978 247.49,208.645 246.5,202.5C 246.294,198.102 246.627,193.768 247.5,189.5C 249.403,186.021 251.07,182.354 252.5,178.5 Z"/></g>
<g><path style="opacity:1" fill="#fb975a" d="M 290.5,202.5 C 287.826,209.454 286.826,216.788 287.5,224.5C 287.5,225.167 287.167,225.5 286.5,225.5C 286.5,224.5 286.5,223.5 286.5,222.5C 286.662,220.473 286.495,218.473 286,216.5C 283.133,214.249 280.8,211.583 279,208.5C 278.333,213.833 277.667,213.833 277,208.5C 276.066,209.858 275.232,211.192 274.5,212.5C 275.09,208.397 276.09,204.397 277.5,200.5C 277.232,198.901 277.566,197.568 278.5,196.5C 281.167,196.5 283.833,196.5 286.5,196.5C 286.504,194.158 287.337,192.158 289,190.5C 290.354,194.363 290.854,198.363 290.5,202.5 Z"/></g>
<g><path style="opacity:1" fill="#fb9153" d="M 339.5,190.5 C 334.558,195.944 329.391,201.277 324,206.5C 322.234,209.414 320.734,212.414 319.5,215.5C 318.833,215.5 318.167,215.5 317.5,215.5C 316.92,211.19 316.586,206.857 316.5,202.5C 316.183,199.428 316.516,196.428 317.5,193.5C 319.465,190.88 320.965,191.214 322,194.5C 324.563,193.741 327.063,192.741 329.5,191.5C 330.442,191.608 331.275,191.941 332,192.5C 334.022,189.681 336.522,189.014 339.5,190.5 Z"/></g>
<g><path style="opacity:1" fill="#fad9bd" d="M 278.5,196.5 C 277.566,197.568 277.232,198.901 277.5,200.5C 276.075,202.031 275.409,201.698 275.5,199.5C 275.5,198.167 275.5,196.833 275.5,195.5C 276.589,191.535 278.422,187.868 281,184.5C 280.098,188.402 279.265,192.402 278.5,196.5 Z"/></g>
<g><path style="opacity:1" fill="#f16f4d" d="M 200.5,193.5 C 198.777,195.218 196.777,196.551 194.5,197.5C 193.962,195.883 193.629,194.216 193.5,192.5C 196.782,191.461 199.948,190.128 203,188.5C 203.706,190.955 202.873,192.622 200.5,193.5 Z"/></g>
<g><path style="opacity:1" fill="#23241f" d="M 315.5,168.5 C 317.167,168.5 318.833,168.5 320.5,168.5C 320.325,170.621 320.659,172.621 321.5,174.5C 320.503,174.47 319.836,174.97 319.5,176C 320.58,177.455 320.58,178.955 319.5,180.5C 316.482,180.335 313.482,180.502 310.5,181C 309.584,181.278 308.918,181.778 308.5,182.5C 306.097,182.393 304.264,183.393 303,185.5C 302.451,194.095 306.284,196.762 314.5,193.5C 314.5,194.5 314.5,195.5 314.5,196.5C 316.071,210.113 316.738,223.779 316.5,237.5C 316.5,238.167 316.5,238.833 316.5,239.5C 312.337,246.239 306.337,248.572 298.5,246.5C 298.524,233.14 298.357,219.807 298,206.5C 298.914,207.654 299.747,207.487 300.5,206C 296.886,203.056 295.553,199.223 296.5,194.5C 298.199,194.34 299.866,194.506 301.5,195C 303.017,196.685 304.684,198.185 306.5,199.5C 307.521,198.998 307.688,198.332 307,197.5C 304.022,193.012 299.855,191.345 294.5,192.5C 294.599,189.763 294.265,187.096 293.5,184.5C 297.018,182.034 301.018,181.034 305.5,181.5C 309.335,179.421 312.669,176.588 315.5,173C 316.744,172.544 317.577,173.044 318,174.5C 319.009,172.975 319.509,171.308 319.5,169.5C 317.901,169.768 316.568,169.434 315.5,168.5 Z"/></g>
<g><path style="opacity:1" fill="#9fa4a9" d="M 200.5,193.5 C 201.497,193.47 202.164,193.97 202.5,195C 201.115,196.597 200.449,198.43 200.5,200.5C 200.167,200.5 199.833,200.5 199.5,200.5C 197.548,199.592 195.548,199.759 193.5,201C 191.529,204.81 188.529,207.31 184.5,208.5C 184.557,207.391 184.89,206.391 185.5,205.5C 187.858,203.471 190.192,201.471 192.5,199.5C 193.5,199.167 194.167,198.5 194.5,197.5C 196.777,196.551 198.777,195.218 200.5,193.5 Z"/></g>
<g><path style="opacity:1" fill="#fb995d" d="M 275.5,195.5 C 275.5,196.833 275.5,198.167 275.5,199.5C 274.037,202.203 273.204,205.203 273,208.5C 272.501,213.155 272.334,217.821 272.5,222.5C 271.834,218.647 271.167,214.647 270.5,210.5C 268.694,211.859 267.194,211.525 266,209.5C 265.333,210.167 264.667,210.833 264,211.5C 262.828,220.18 263.662,228.513 266.5,236.5C 266.427,238.027 267.094,239.027 268.5,239.5C 267.833,240.833 266.833,241.833 265.5,242.5C 265.5,241.833 265.5,241.167 265.5,240.5C 263.397,236.426 262.064,232.093 261.5,227.5C 262.076,216.254 263.076,204.921 264.5,193.5C 266.461,192.54 268.127,191.207 269.5,189.5C 272.116,191.002 274.116,193.002 275.5,195.5 Z"/></g>
<g><path style="opacity:1" fill="#fba879" d="M 167.5,174.5 C 167.177,181.022 167.51,187.355 168.5,193.5C 169.342,196.498 169.842,199.498 170,202.5C 167.283,198.97 165.783,194.97 165.5,190.5C 166.167,185.167 166.833,179.833 167.5,174.5 Z"/></g>
<g><path style="opacity:1" fill="#ecaa60" d="M 103.5,185.5 C 104.058,186.79 105.058,187.623 106.5,188C 124.227,195.703 142.227,202.536 160.5,208.5C 161.551,209.222 162.218,210.222 162.5,211.5C 159.189,211.091 156.189,209.924 153.5,208C 151.833,207.333 150.167,207.333 148.5,208C 154.149,210.603 159.816,213.103 165.5,215.5C 169.486,218.161 173.819,219.827 178.5,220.5C 181.473,222.147 184.14,224.147 186.5,226.5C 172.859,220.452 158.859,215.285 144.5,211C 129.238,202.87 113.905,195.036 98.5,187.5C 99.9303,186.463 101.597,185.796 103.5,185.5 Z"/></g>
<g><path style="opacity:1" fill="#f9965a" d="M 253.5,183.5 C 254.482,186.962 254.815,190.629 254.5,194.5C 255.791,194.737 256.791,194.404 257.5,193.5C 258.708,192.766 260.041,192.433 261.5,192.5C 262.764,194.772 262.598,197.105 261,199.5C 260.5,205.825 260.334,212.158 260.5,218.5C 259.676,214.688 259.176,210.688 259,206.5C 258.344,212.145 255.844,216.812 251.5,220.5C 250.534,222.396 250.201,224.396 250.5,226.5C 249.183,217.962 249.183,209.295 250.5,200.5C 249.689,199.784 249.022,198.95 248.5,198C 249.495,192.814 251.161,187.981 253.5,183.5 Z"/></g>
<g><path style="opacity:1" fill="#f66144" d="M 191.5,196.5 C 192.404,197.209 192.737,198.209 192.5,199.5C 190.192,201.471 187.858,203.471 185.5,205.5C 184.402,204.399 184.235,203.066 185,201.5C 186.77,199.258 188.937,197.592 191.5,196.5 Z"/></g>
<g><path style="opacity:1" fill="#c98336" d="M 98.5,187.5 C 113.905,195.036 129.238,202.87 144.5,211C 158.859,215.285 172.859,220.452 186.5,226.5C 189.516,227.273 191.85,228.939 193.5,231.5C 183.177,228.174 173.177,224.007 163.5,219C 156.157,216.66 148.824,214.326 141.5,212C 126.707,204.281 112.374,196.114 98.5,187.5 Z"/></g>
<g><path style="opacity:1" fill="#fa8b4b" d="M 205.5,174.5 C 205.335,177.85 205.502,181.183 206,184.5C 206.278,183.584 206.778,182.918 207.5,182.5C 206.257,191.217 206.257,199.883 207.5,208.5C 207.5,209.167 207.5,209.833 207.5,210.5C 206.057,209.665 205.057,208.332 204.5,206.5C 203.813,208.274 202.98,209.941 202,211.5C 201.768,210.263 201.268,209.263 200.5,208.5C 200.5,207.167 200.5,205.833 200.5,204.5C 200.5,203.167 200.5,201.833 200.5,200.5C 200.449,198.43 201.115,196.597 202.5,195C 202.164,193.97 201.497,193.47 200.5,193.5C 202.873,192.622 203.706,190.955 203,188.5C 199.948,190.128 196.782,191.461 193.5,192.5C 192.515,188.366 192.182,184.032 192.5,179.5C 192.5,178.5 192.5,177.5 192.5,176.5C 193.857,174.706 195.023,172.706 196,170.5C 198.217,171.937 200.217,173.603 202,175.5C 203.653,175.18 204.653,174.18 205,172.5C 205.464,173.094 205.631,173.761 205.5,174.5 Z"/></g>
<g><path style="opacity:1" fill="#fc8545" d="M 233.5,212.5 C 230.892,214.103 228.559,216.103 226.5,218.5C 225.017,215.567 223.683,212.567 222.5,209.5C 222.5,202.833 222.5,196.167 222.5,189.5C 223.309,187.708 223.809,185.708 224,183.5C 224.974,185.878 225.641,185.544 226,182.5C 226.71,183.973 227.876,184.64 229.5,184.5C 228.217,187.01 227.217,189.677 226.5,192.5C 228.124,192.64 229.29,191.973 230,190.5C 230.333,190.833 230.667,191.167 231,191.5C 231.174,198.63 232.007,205.63 233.5,212.5 Z"/></g>
<g><path style="opacity:1" fill="#fc8646" d="M 247.5,189.5 C 246.627,193.768 246.294,198.102 246.5,202.5C 246.34,204.153 245.674,205.486 244.5,206.5C 244.631,205.624 244.298,204.957 243.5,204.5C 240.805,206.178 238.139,207.844 235.5,209.5C 234.103,203.147 234.27,196.813 236,190.5C 236.667,191.167 237.333,191.833 238,192.5C 239.917,191.705 242.083,191.538 244.5,192C 245.264,189.931 245.764,187.764 246,185.5C 246.791,186.745 247.291,188.078 247.5,189.5 Z"/></g>
<g><path style="opacity:1" fill="#503e34" d="M 314.5,196.5 C 315.167,198.5 315.833,200.5 316.5,202.5C 316.586,206.857 316.92,211.19 317.5,215.5C 317.5,216.5 317.5,217.5 317.5,218.5C 317.823,225.022 317.49,231.355 316.5,237.5C 316.738,223.779 316.071,210.113 314.5,196.5 Z"/></g>
<g><path style="opacity:1" fill="#c5d6e1" d="M 199.5,200.5 C 199.617,202.484 198.95,204.15 197.5,205.5C 198.485,207.098 198.651,208.765 198,210.5C 195.822,210.471 193.655,209.971 191.5,209C 190.833,210.333 190.167,211.667 189.5,213C 185.726,214.261 182.726,215.761 180.5,217.5C 180.5,216.167 180.5,214.833 180.5,213.5C 181.737,212.035 182.737,210.368 183.5,208.5C 183.833,208.5 184.167,208.5 184.5,208.5C 188.529,207.31 191.529,204.81 193.5,201C 195.548,199.759 197.548,199.592 199.5,200.5 Z"/></g>
<g><path style="opacity:1" fill="#fa894a" d="M 342.5,194.5 C 345.241,196.975 347.241,199.975 348.5,203.5C 342.421,207.054 336.421,210.887 330.5,215C 328.821,215.395 327.155,215.228 325.5,214.5C 324.287,214.253 323.62,213.586 323.5,212.5C 326.87,206.621 331.203,201.455 336.5,197C 338.217,195.441 340.217,194.608 342.5,194.5 Z"/></g>
<g><path style="opacity:1" fill="#f66d47" d="M 244.5,206.5 C 244.229,208.43 243.229,209.764 241.5,210.5C 239.999,211.752 238.332,212.752 236.5,213.5C 235.766,212.292 235.433,210.959 235.5,209.5C 238.139,207.844 240.805,206.178 243.5,204.5C 244.298,204.957 244.631,205.624 244.5,206.5 Z"/></g>
<g><path style="opacity:1" fill="#f9b489" d="M 339.5,190.5 C 340.974,191.436 341.974,192.77 342.5,194.5C 340.217,194.608 338.217,195.441 336.5,197C 331.203,201.455 326.87,206.621 323.5,212.5C 322.596,213.209 322.263,214.209 322.5,215.5C 321.5,215.5 320.5,215.5 319.5,215.5C 320.734,212.414 322.234,209.414 324,206.5C 329.391,201.277 334.558,195.944 339.5,190.5 Z"/></g>
<g><path style="opacity:1" fill="#c98236" d="M 162.5,211.5 C 163.488,212.795 164.488,214.128 165.5,215.5C 159.816,213.103 154.149,210.603 148.5,208C 150.167,207.333 151.833,207.333 153.5,208C 156.189,209.924 159.189,211.091 162.5,211.5 Z"/></g>
<g><path style="opacity:1" fill="#faab7a" d="M 219.5,186.5 C 219.833,186.5 220.167,186.5 220.5,186.5C 220.334,190.846 220.501,195.179 221,199.5C 221.176,195.312 221.676,191.312 222.5,187.5C 222.5,188.167 222.5,188.833 222.5,189.5C 222.5,196.167 222.5,202.833 222.5,209.5C 222.737,210.791 222.404,211.791 221.5,212.5C 219.751,203.949 219.084,195.282 219.5,186.5 Z"/></g>
<g><path style="opacity:1" fill="#f6a173" d="M 348.5,203.5 C 349.906,203.973 350.573,204.973 350.5,206.5C 348.345,206.372 346.345,206.872 344.5,208C 340.765,210.853 337.098,213.687 333.5,216.5C 332.494,216.938 332.494,217.604 333.5,218.5C 330.103,216.733 326.436,215.733 322.5,215.5C 322.263,214.209 322.596,213.209 323.5,212.5C 323.62,213.586 324.287,214.253 325.5,214.5C 327.155,215.228 328.821,215.395 330.5,215C 336.421,210.887 342.421,207.054 348.5,203.5 Z"/></g>
<g><path style="opacity:1" fill="#eaab63" d="M 396.5,179.5 C 398.927,179.523 401.26,180.023 403.5,181C 422.422,188.53 441.422,195.863 460.5,203C 464.601,203.925 466.601,206.425 466.5,210.5C 464.388,212.771 461.721,214.104 458.5,214.5C 439.455,206.763 420.455,198.93 401.5,191C 402.308,190.692 402.975,190.192 403.5,189.5C 401.614,188.594 399.78,187.594 398,186.5C 397.768,187.737 397.268,188.737 396.5,189.5C 396.5,186.167 396.5,182.833 396.5,179.5 Z"/></g>
<g><path style="opacity:1" fill="#c98335" d="M 405.5,188.5 C 405.735,187.903 406.235,187.57 407,187.5C 424.552,193.568 441.719,200.402 458.5,208C 440.628,202.274 422.961,195.774 405.5,188.5 Z"/></g>
<g><path style="opacity:1" fill="#f65a3c" d="M 183.5,208.5 C 182.737,210.368 181.737,212.035 180.5,213.5C 179.662,213.842 179.328,214.508 179.5,215.5C 178.849,216.091 178.182,216.757 177.5,217.5C 176.394,215.716 176.394,213.882 177.5,212C 179.126,209.913 180.626,207.747 182,205.5C 183.039,206.244 183.539,207.244 183.5,208.5 Z"/></g>
<g><path style="opacity:1" fill="#ce8b49" d="M 458.5,214.5 C 449.827,217.923 440.827,220.589 431.5,222.5C 420.069,217.462 408.402,212.796 396.5,208.5C 396.5,202.167 396.5,195.833 396.5,189.5C 397.268,188.737 397.768,187.737 398,186.5C 399.78,187.594 401.614,188.594 403.5,189.5C 402.975,190.192 402.308,190.692 401.5,191C 420.455,198.93 439.455,206.763 458.5,214.5 Z"/></g>
<g><path style="opacity:1" fill="#eba95d" d="M 92.5,191.5 C 100.265,196.892 108.265,202.058 116.5,207C 130.537,212.839 144.203,219.339 157.5,226.5C 156.277,227.614 154.944,227.781 153.5,227C 143.546,220.689 132.879,216.023 121.5,213C 116.401,210.117 111.067,207.783 105.5,206C 101.833,203 98.1667,200 94.5,197C 92.9751,195.991 91.3084,195.491 89.5,195.5C 89.7376,193.596 90.7376,192.262 92.5,191.5 Z"/></g>
<g><path style="opacity:1" fill="#fb8241" d="M 219.5,186.5 C 219.084,195.282 219.751,203.949 221.5,212.5C 222.5,215.833 223.5,219.167 224.5,222.5C 222.192,224.325 220.359,226.658 219,229.5C 218.262,231.881 218.762,233.881 220.5,235.5C 214.178,236.424 209.011,234.09 205,228.5C 201.093,222.426 199.593,215.759 200.5,208.5C 201.268,209.263 201.768,210.263 202,211.5C 202.98,209.941 203.813,208.274 204.5,206.5C 205.057,208.332 206.057,209.665 207.5,210.5C 208.699,213.563 210.199,216.563 212,219.5C 210.537,213.291 209.87,206.958 210,200.5C 210.308,201.308 210.808,201.975 211.5,202.5C 212.279,199.934 213.779,197.934 216,196.5C 216.346,194.782 216.846,193.115 217.5,191.5C 217.291,190.914 216.957,190.414 216.5,190C 217.636,188.855 218.636,187.688 219.5,186.5 Z"/></g>
<g><path style="opacity:1" fill="#fbc49f" d="M 261.5,192.5 C 261.842,191.662 262.508,191.328 263.5,191.5C 264.338,191.842 264.672,192.508 264.5,193.5C 263.076,204.921 262.076,216.254 261.5,227.5C 260.597,224.609 260.264,221.609 260.5,218.5C 260.334,212.158 260.5,205.825 261,199.5C 262.598,197.105 262.764,194.772 261.5,192.5 Z"/></g>
<g><path style="opacity:1" fill="#f4935f" d="M 294.5,201.5 C 294.942,205.154 295.276,208.821 295.5,212.5C 294.833,212.5 294.167,212.5 293.5,212.5C 292.5,212.5 291.5,212.5 290.5,212.5C 290.34,210.801 290.506,209.134 291,207.5C 291.876,205.242 293.043,203.242 294.5,201.5 Z"/></g>
<g><path style="opacity:1" fill="#f97e3e" d="M 350.5,206.5 C 352.785,207.957 354.618,209.957 356,212.5C 357.166,215.927 356.332,218.593 353.5,220.5C 351.367,222.091 349.701,224.091 348.5,226.5C 345.668,225.395 343.668,223.395 342.5,220.5C 339.451,219.155 336.451,217.822 333.5,216.5C 337.098,213.687 340.765,210.853 344.5,208C 346.345,206.872 348.345,206.372 350.5,206.5 Z"/></g>
<g><path style="opacity:1" fill="#e1ebec" d="M 199.5,200.5 C 199.833,200.5 200.167,200.5 200.5,200.5C 200.5,201.833 200.5,203.167 200.5,204.5C 199.518,207.962 199.185,211.629 199.5,215.5C 194.404,215.912 189.404,216.912 184.5,218.5C 182.955,218.489 181.622,218.156 180.5,217.5C 182.726,215.761 185.726,214.261 189.5,213C 190.167,211.667 190.833,210.333 191.5,209C 193.655,209.971 195.822,210.471 198,210.5C 198.651,208.765 198.485,207.098 197.5,205.5C 198.95,204.15 199.617,202.484 199.5,200.5 Z"/></g>
<g><path style="opacity:1" fill="#f49054" d="M 246.5,202.5 C 247.49,208.645 247.823,214.978 247.5,221.5C 245.911,218.908 244.245,218.908 242.5,221.5C 241.504,227.463 241.171,233.463 241.5,239.5C 240.527,237.052 240.194,234.385 240.5,231.5C 240.5,228.5 240.5,225.5 240.5,222.5C 240.833,220.5 241.167,218.5 241.5,216.5C 241.954,214.259 241.954,212.259 241.5,210.5C 243.229,209.764 244.229,208.43 244.5,206.5C 245.674,205.486 246.34,204.153 246.5,202.5 Z"/></g>
<g><path style="opacity:1" fill="#fcc099" d="M 275.5,199.5 C 275.409,201.698 276.075,202.031 277.5,200.5C 276.09,204.397 275.09,208.397 274.5,212.5C 274.5,213.167 274.5,213.833 274.5,214.5C 273.833,217.167 273.167,219.833 272.5,222.5C 272.334,217.821 272.501,213.155 273,208.5C 273.204,205.203 274.037,202.203 275.5,199.5 Z"/></g>
<g><path style="opacity:1" fill="#f7b78b" d="M 292.5,194.5 C 293.924,196.515 294.59,198.848 294.5,201.5C 293.043,203.242 291.876,205.242 291,207.5C 290.506,209.134 290.34,210.801 290.5,212.5C 291.5,212.5 292.5,212.5 293.5,212.5C 292.952,214.532 291.619,215.532 289.5,215.5C 289.425,218.206 289.092,220.873 288.5,223.5C 288.5,224.167 288.167,224.5 287.5,224.5C 286.826,216.788 287.826,209.454 290.5,202.5C 292.04,200.162 292.706,197.495 292.5,194.5 Z"/></g>
<g><path style="opacity:1" fill="#c47c30" d="M 84.5,205.5 C 84.8333,205.5 85.1667,205.5 85.5,205.5C 87.2629,209.099 89.9295,211.932 93.5,214C 103.296,219.065 112.962,224.399 122.5,230C 119.756,229.981 117.089,229.314 114.5,228C 104.604,223.271 94.604,218.771 84.5,214.5C 84.5,211.5 84.5,208.5 84.5,205.5 Z"/></g>
<g><path style="opacity:1" fill="#fc8645" d="M 286.5,222.5 C 282.615,223.109 279.282,224.776 276.5,227.5C 275.883,227.389 275.383,227.056 275,226.5C 274.501,222.514 274.334,218.514 274.5,214.5C 274.5,213.833 274.5,213.167 274.5,212.5C 275.232,211.192 276.066,209.858 277,208.5C 277.667,213.833 278.333,213.833 279,208.5C 280.8,211.583 283.133,214.249 286,216.5C 286.495,218.473 286.662,220.473 286.5,222.5 Z"/></g>
<g><path style="opacity:1" fill="#c57e31" d="M 90.5,208.5 C 112.803,217.655 134.803,227.322 156.5,237.5C 147.622,236.632 138.955,234.798 130.5,232C 119.167,226 107.833,220 96.5,214C 94.0038,212.669 92.0038,210.836 90.5,208.5 Z"/></g>
<g><path style="opacity:1" fill="#b27335" d="M 467.5,214.5 C 467.822,220.358 467.489,226.025 466.5,231.5C 466.5,230.5 466.5,229.5 466.5,228.5C 465.167,228.5 463.833,228.5 462.5,228.5C 463.069,224.671 462.402,221.337 460.5,218.5C 462.663,216.917 464.996,215.584 467.5,214.5 Z"/></g>
<g><path style="opacity:1" fill="#fb945e" d="M 222.5,209.5 C 223.683,212.567 225.017,215.567 226.5,218.5C 226.263,219.791 226.596,220.791 227.5,221.5C 227.167,222.5 226.5,223.167 225.5,223.5C 225.5,222.833 225.167,222.5 224.5,222.5C 223.5,219.167 222.5,215.833 221.5,212.5C 222.404,211.791 222.737,210.791 222.5,209.5 Z"/></g>
<g><path style="opacity:1" fill="#ecac62" d="M 98.5,187.5 C 112.374,196.114 126.707,204.281 141.5,212C 148.824,214.326 156.157,216.66 163.5,219C 173.177,224.007 183.177,228.174 193.5,231.5C 200.906,234.637 208.239,237.97 215.5,241.5C 214.474,244.538 214.308,247.538 215,250.5C 211.655,244.825 206.822,240.992 200.5,239C 187.89,236.185 175.89,231.685 164.5,225.5C 163.707,226.355 164.04,227.189 165.5,228C 175.878,233.679 186.878,237.679 198.5,240C 201.167,241.333 203.833,242.667 206.5,244C 210.167,249 214.5,253.333 219.5,257C 232.846,261.179 245.513,266.679 257.5,273.5C 250.406,273.743 243.74,272.243 237.5,269C 189.606,247.378 141.606,226.378 93.5,206C 90.3596,205.009 88.0263,203.176 86.5,200.5C 86.7497,198.326 87.7497,196.659 89.5,195.5C 101.174,206.813 115.174,214.313 131.5,218C 138.446,220.806 145.112,224.139 151.5,228C 153.81,228.497 156.143,228.663 158.5,228.5C 158.714,226.856 158.38,225.356 157.5,224C 144.409,217.121 131.076,210.788 117.5,205C 111.696,201.595 106.03,197.928 100.5,194C 97.978,192.659 95.3113,191.826 92.5,191.5C 94.1475,189.674 96.1475,188.34 98.5,187.5 Z"/></g>
<g><path style="opacity:1" fill="#fc8443" d="M 272.5,222.5 C 272.674,224.861 273.007,227.194 273.5,229.5C 270.806,231.527 268.473,233.861 266.5,236.5C 263.662,228.513 262.828,220.18 264,211.5C 264.667,210.833 265.333,210.167 266,209.5C 267.194,211.525 268.694,211.859 270.5,210.5C 271.167,214.647 271.834,218.647 272.5,222.5 Z"/></g>
<g><path style="opacity:1" fill="#ecac62" d="M 396.5,208.5 C 408.402,212.796 420.069,217.462 431.5,222.5C 420.441,226.453 409.108,229.786 397.5,232.5C 390.745,230.291 384.078,227.791 377.5,225C 378.416,224.722 379.082,224.222 379.5,223.5C 381.05,222.559 382.716,221.893 384.5,221.5C 385.167,221.167 385.833,220.833 386.5,220.5C 388.062,220.267 389.395,219.6 390.5,218.5C 390.833,218.5 391.167,218.5 391.5,218.5C 396.215,222.016 401.548,223.85 407.5,224C 402.474,221.819 397.474,219.652 392.5,217.5C 392.833,216.5 393.5,215.833 394.5,215.5C 401.623,219.099 408.957,221.433 416.5,222.5C 410.737,219.521 404.737,217.021 398.5,215C 397.244,214.583 396.577,213.75 396.5,212.5C 396.5,211.167 396.5,209.833 396.5,208.5 Z"/></g>
<g><path style="opacity:1" fill="#b16d2a" d="M 85.5,205.5 C 87.3684,206.263 89.0351,207.263 90.5,208.5C 92.0038,210.836 94.0038,212.669 96.5,214C 107.833,220 119.167,226 130.5,232C 138.955,234.798 147.622,236.632 156.5,237.5C 158.703,237.604 160.703,238.27 162.5,239.5C 158.689,240.645 154.689,240.812 150.5,240C 144.432,238.194 138.432,236.527 132.5,235C 137.167,238.333 141.833,241.667 146.5,245C 161.911,246.47 176.078,251.303 189,259.5C 189.769,262.099 189.602,264.599 188.5,267C 181.058,268.408 174.391,266.741 168.5,262C 164.216,260.674 159.883,260.008 155.5,260C 157.901,262.062 160.567,263.729 163.5,265C 170.231,267.133 176.898,269.466 183.5,272C 193.12,271.034 202.787,270.368 212.5,270C 226.429,275.3 240.095,281.133 253.5,287.5C 254.386,286.675 254.719,285.675 254.5,284.5C 255.683,285.504 257.016,286.338 258.5,287C 263.167,287.667 267.833,287.667 272.5,287C 278.584,283.264 284.917,279.93 291.5,277C 294.478,276.304 297.478,275.804 300.5,275.5C 300.5,277.167 300.5,278.833 300.5,280.5C 298.076,281.03 295.743,281.864 293.5,283C 285.354,291.74 275.354,295.407 263.5,294C 260.344,293.063 257.511,291.563 255,289.5C 254.833,290 254.667,290.5 254.5,291C 256.541,293.692 259.208,295.692 262.5,297C 269.336,297.961 276.003,297.295 282.5,295C 287.723,292.443 292.39,289.109 296.5,285C 297.793,284.51 299.127,284.343 300.5,284.5C 300.665,288.182 300.499,291.848 300,295.5C 296.369,293.65 292.536,293.15 288.5,294C 279.833,297.667 271.167,301.333 262.5,305C 259.743,305.782 257.243,305.282 255,303.5C 255.418,307.059 257.585,308.726 261.5,308.5C 255.21,309.768 249.21,308.768 243.5,305.5C 243.611,304.883 243.944,304.383 244.5,304C 240.324,301.412 236.324,298.579 232.5,295.5C 228.837,294.173 225.17,292.84 221.5,291.5C 219.547,292.156 217.547,292.489 215.5,292.5C 215.5,291.5 215.5,290.5 215.5,289.5C 218.85,289.335 222.183,289.502 225.5,290C 228.006,291.299 230.673,292.299 233.5,293C 239.689,298.068 246.022,302.901 252.5,307.5C 253.583,306.635 253.749,305.635 253,304.5C 246.722,298.889 239.888,294.056 232.5,290C 225.155,287.332 217.822,284.665 210.5,282C 221.847,282.842 232.513,286.175 242.5,292C 245.692,294.692 249.025,297.192 252.5,299.5C 253.484,296.572 253.817,293.572 253.5,290.5C 239.897,284.79 226.23,278.956 212.5,273C 209.964,272.661 207.464,272.161 205,271.5C 200.486,273.349 195.986,275.016 191.5,276.5C 185.798,275.526 180.131,274.36 174.5,273C 170.495,270.578 166.162,268.911 161.5,268C 158.217,266.439 155.383,264.273 153,261.5C 152.175,259.299 152.675,257.466 154.5,256C 162.816,256.666 170.483,259.333 177.5,264C 180.659,265.561 183.826,265.728 187,264.5C 187.72,262.888 187.554,261.388 186.5,260C 179.011,256.983 171.678,253.983 164.5,251C 158.133,250.119 151.8,249.119 145.5,248C 141.167,245 136.833,242 132.5,239C 116.525,231.507 100.525,224.341 84.5,217.5C 84.5,216.5 84.5,215.5 84.5,214.5C 94.604,218.771 104.604,223.271 114.5,228C 117.089,229.314 119.756,229.981 122.5,230C 112.962,224.399 103.296,219.065 93.5,214C 89.9295,211.932 87.2629,209.099 85.5,205.5 Z"/></g>
<g><path style="opacity:1" fill="#c98336" d="M 92.5,191.5 C 95.3113,191.826 97.978,192.659 100.5,194C 106.03,197.928 111.696,201.595 117.5,205C 131.076,210.788 144.409,217.121 157.5,224C 158.38,225.356 158.714,226.856 158.5,228.5C 156.143,228.663 153.81,228.497 151.5,228C 145.112,224.139 138.446,220.806 131.5,218C 115.174,214.313 101.174,206.813 89.5,195.5C 91.3084,195.491 92.9751,195.991 94.5,197C 98.1667,200 101.833,203 105.5,206C 111.067,207.783 116.401,210.117 121.5,213C 132.879,216.023 143.546,220.689 153.5,227C 154.944,227.781 156.277,227.614 157.5,226.5C 144.203,219.339 130.537,212.839 116.5,207C 108.265,202.058 100.265,196.892 92.5,191.5 Z"/></g>
<g><path style="opacity:1" fill="#48443e" d="M 293.5,184.5 C 294.265,187.096 294.599,189.763 294.5,192.5C 299.855,191.345 304.022,193.012 307,197.5C 307.688,198.332 307.521,198.998 306.5,199.5C 304.684,198.185 303.017,196.685 301.5,195C 299.866,194.506 298.199,194.34 296.5,194.5C 295.553,199.223 296.886,203.056 300.5,206C 299.747,207.487 298.914,207.654 298,206.5C 298.357,219.807 298.524,233.14 298.5,246.5C 297.508,246.672 296.842,246.338 296.5,245.5C 296.5,242.5 296.5,239.5 296.5,236.5C 296.5,234.833 296.5,233.167 296.5,231.5C 296.813,227.958 296.479,224.625 295.5,221.5C 295.5,218.5 295.5,215.5 295.5,212.5C 295.276,208.821 294.942,205.154 294.5,201.5C 294.59,198.848 293.924,196.515 292.5,194.5C 292.41,192.304 292.077,190.137 291.5,188C 291.387,186.301 292.053,185.134 293.5,184.5 Z"/></g>
<g><path style="opacity:1" fill="#f7c48b" d="M 86.5,200.5 C 88.0263,203.176 90.3596,205.009 93.5,206C 141.606,226.378 189.606,247.378 237.5,269C 243.74,272.243 250.406,273.743 257.5,273.5C 259.415,273.784 261.081,273.451 262.5,272.5C 267.133,272.322 271.467,271.322 275.5,269.5C 276.167,269.5 276.833,269.5 277.5,269.5C 280.061,268.082 282.728,267.082 285.5,266.5C 285.833,266.5 286.167,266.5 286.5,266.5C 301.033,261.767 315.7,257.434 330.5,253.5C 335.045,252.202 339.378,250.536 343.5,248.5C 346.983,248.309 350.316,247.643 353.5,246.5C 357.228,245.319 360.895,243.985 364.5,242.5C 375.812,239.926 386.812,236.593 397.5,232.5C 409.108,229.786 420.441,226.453 431.5,222.5C 440.827,220.589 449.827,217.923 458.5,214.5C 461.721,214.104 464.388,212.771 466.5,210.5C 467.434,211.568 467.768,212.901 467.5,214.5C 464.996,215.584 462.663,216.917 460.5,218.5C 429.155,227.081 398.155,236.414 367.5,246.5C 355.802,248.921 344.468,252.254 333.5,256.5C 322.171,259.057 311.171,262.39 300.5,266.5C 289.273,268.89 278.273,272.057 267.5,276C 261.548,277.33 255.548,277.663 249.5,277C 243.812,274.82 238.146,272.653 232.5,270.5C 220.103,264.303 207.437,258.636 194.5,253.5C 193.609,252.89 192.609,252.557 191.5,252.5C 182.016,247.928 172.349,243.594 162.5,239.5C 160.703,238.27 158.703,237.604 156.5,237.5C 134.803,227.322 112.803,217.655 90.5,208.5C 89.0351,207.263 87.3684,206.263 85.5,205.5C 85.1667,205.5 84.8333,205.5 84.5,205.5C 85.0241,203.694 85.6908,202.028 86.5,200.5 Z"/></g>
<g><path style="opacity:1" fill="#dfecf0" d="M 240.5,222.5 C 240.5,225.5 240.5,228.5 240.5,231.5C 235.885,232.392 231.219,233.392 226.5,234.5C 224.667,234.415 223.334,233.748 222.5,232.5C 225.023,231.199 227.69,230.199 230.5,229.5C 231.706,227.516 231.706,225.516 230.5,223.5C 231,223.167 231.5,222.833 232,222.5C 233.946,224.962 236.446,226.296 239.5,226.5C 239.232,224.901 239.566,223.568 240.5,222.5 Z"/></g>
<g><path style="opacity:1" fill="#f2593d" d="M 224.5,222.5 C 225.167,222.5 225.5,222.833 225.5,223.5C 224.242,225.687 223.242,228.02 222.5,230.5C 221.833,232.167 221.167,233.833 220.5,235.5C 218.762,233.881 218.262,231.881 219,229.5C 220.359,226.658 222.192,224.325 224.5,222.5 Z"/></g>
<g><path style="opacity:1" fill="#e0ecf1" d="M 336.5,223.5 C 337.167,223.5 337.833,223.5 338.5,223.5C 339.167,223.833 339.833,224.167 340.5,224.5C 340.607,226.903 339.607,228.736 337.5,230C 332.44,233.036 327.107,235.203 321.5,236.5C 320.5,236.5 319.5,236.5 318.5,236.5C 318.211,232.894 318.544,229.394 319.5,226C 320.5,225.333 321.5,225.333 322.5,226C 324.605,229.401 326.272,229.234 327.5,225.5C 328.192,226.025 328.692,226.692 329,227.5C 329.219,226.062 329.719,224.729 330.5,223.5C 331.205,225.672 332.205,227.672 333.5,229.5C 335.69,228.252 336.023,226.586 334.5,224.5C 334.957,223.702 335.624,223.369 336.5,223.5 Z"/></g>
<g><path style="opacity:1" fill="#c1cfd9" d="M 241.5,216.5 C 241.167,218.5 240.833,220.5 240.5,222.5C 239.566,223.568 239.232,224.901 239.5,226.5C 236.446,226.296 233.946,224.962 232,222.5C 231.5,222.833 231,223.167 230.5,223.5C 231.706,225.516 231.706,227.516 230.5,229.5C 227.69,230.199 225.023,231.199 222.5,232.5C 222.5,231.833 222.5,231.167 222.5,230.5C 223.242,228.02 224.242,225.687 225.5,223.5C 226.5,223.167 227.167,222.5 227.5,221.5C 227.833,221.5 228.167,221.5 228.5,221.5C 231.841,222.157 233.841,220.824 234.5,217.5C 236.859,216.013 239.193,215.68 241.5,216.5 Z"/></g>
<g><path style="opacity:1" fill="#99a3a8" d="M 295.5,221.5 C 296.479,224.625 296.813,227.958 296.5,231.5C 294.952,231.179 294.285,230.179 294.5,228.5C 290.684,228.021 287.35,229.021 284.5,231.5C 285.641,232.425 285.641,233.259 284.5,234C 282.765,234.651 281.098,234.485 279.5,233.5C 276.044,233.79 274.044,235.624 273.5,239C 270.084,240.581 267.084,242.748 264.5,245.5C 264.557,244.391 264.89,243.391 265.5,242.5C 266.833,241.833 267.833,240.833 268.5,239.5C 270.833,237.833 272.833,235.833 274.5,233.5C 275.5,233.167 276.167,232.5 276.5,231.5C 279.806,229.511 283.139,227.511 286.5,225.5C 287.167,225.5 287.5,225.167 287.5,224.5C 288.167,224.5 288.5,224.167 288.5,223.5C 290.833,222.833 293.167,222.167 295.5,221.5 Z"/></g>
<g><path style="opacity:1" fill="#faa577" d="M 274.5,214.5 C 274.334,218.514 274.501,222.514 275,226.5C 275.383,227.056 275.883,227.389 276.5,227.5C 276.5,228.833 276.5,230.167 276.5,231.5C 276.167,232.5 275.5,233.167 274.5,233.5C 274.768,231.901 274.434,230.568 273.5,229.5C 273.007,227.194 272.674,224.861 272.5,222.5C 273.167,219.833 273.833,217.167 274.5,214.5 Z"/></g>
<g><path style="opacity:1" fill="#f76b47" d="M 286.5,222.5 C 286.5,223.5 286.5,224.5 286.5,225.5C 283.139,227.511 279.806,229.511 276.5,231.5C 276.5,230.167 276.5,228.833 276.5,227.5C 279.282,224.776 282.615,223.109 286.5,222.5 Z"/></g>
<g><path style="opacity:1" fill="#cddbe0" d="M 336.5,223.5 C 335.624,223.369 334.957,223.702 334.5,224.5C 336.023,226.586 335.69,228.252 333.5,229.5C 332.205,227.672 331.205,225.672 330.5,223.5C 329.719,224.729 329.219,226.062 329,227.5C 328.692,226.692 328.192,226.025 327.5,225.5C 326.272,229.234 324.605,229.401 322.5,226C 321.5,225.333 320.5,225.333 319.5,226C 318.544,229.394 318.211,232.894 318.5,236.5C 319.5,236.5 320.5,236.5 321.5,236.5C 319.78,237.308 318.113,238.308 316.5,239.5C 316.5,238.833 316.5,238.167 316.5,237.5C 317.49,231.355 317.823,225.022 317.5,218.5C 319.455,217.677 321.455,217.51 323.5,218C 322.289,218.893 322.289,219.726 323.5,220.5C 324.607,219.978 325.774,219.645 327,219.5C 330.248,220.92 333.414,222.253 336.5,223.5 Z"/></g>
<g><path style="opacity:1" fill="#c78236" d="M 392.5,217.5 C 397.474,219.652 402.474,221.819 407.5,224C 401.548,223.85 396.215,222.016 391.5,218.5C 391.5,217.833 391.833,217.5 392.5,217.5 Z"/></g>
<g><path style="opacity:1" fill="#c88235" d="M 396.5,212.5 C 396.577,213.75 397.244,214.583 398.5,215C 404.737,217.021 410.737,219.521 416.5,222.5C 408.957,221.433 401.623,219.099 394.5,215.5C 394.932,214.29 395.599,213.29 396.5,212.5 Z"/></g>
<g><path style="opacity:1" fill="#f66f48" d="M 333.5,216.5 C 336.451,217.822 339.451,219.155 342.5,220.5C 343.668,223.395 345.668,225.395 348.5,226.5C 345.238,228.179 342.571,227.512 340.5,224.5C 339.833,224.167 339.167,223.833 338.5,223.5C 337.139,221.473 335.473,219.806 333.5,218.5C 332.494,217.604 332.494,216.938 333.5,216.5 Z"/></g>
<g><path style="opacity:1" fill="#9aa5ac" d="M 317.5,215.5 C 318.167,215.5 318.833,215.5 319.5,215.5C 320.5,215.5 321.5,215.5 322.5,215.5C 326.436,215.733 330.103,216.733 333.5,218.5C 335.473,219.806 337.139,221.473 338.5,223.5C 337.833,223.5 337.167,223.5 336.5,223.5C 333.414,222.253 330.248,220.92 327,219.5C 325.774,219.645 324.607,219.978 323.5,220.5C 322.289,219.726 322.289,218.893 323.5,218C 321.455,217.51 319.455,217.677 317.5,218.5C 317.5,217.5 317.5,216.5 317.5,215.5 Z"/></g>
<g><path style="opacity:1" fill="#f66041" d="M 233.5,212.5 C 233.5,213.833 233.5,215.167 233.5,216.5C 231.5,217.833 229.833,219.5 228.5,221.5C 228.167,221.5 227.833,221.5 227.5,221.5C 226.596,220.791 226.263,219.791 226.5,218.5C 228.559,216.103 230.892,214.103 233.5,212.5 Z"/></g>
<g><path style="opacity:1" fill="#f6764e" d="M 293.5,212.5 C 294.167,212.5 294.833,212.5 295.5,212.5C 295.5,215.5 295.5,218.5 295.5,221.5C 293.167,222.167 290.833,222.833 288.5,223.5C 289.092,220.873 289.425,218.206 289.5,215.5C 291.619,215.532 292.952,214.532 293.5,212.5 Z"/></g>
<g><path style="opacity:1" fill="#9da1a7" d="M 241.5,210.5 C 241.954,212.259 241.954,214.259 241.5,216.5C 239.193,215.68 236.859,216.013 234.5,217.5C 233.841,220.824 231.841,222.157 228.5,221.5C 229.833,219.5 231.5,217.833 233.5,216.5C 234.833,215.833 235.833,214.833 236.5,213.5C 238.332,212.752 239.999,211.752 241.5,210.5 Z"/></g>
<g><path style="opacity:1" fill="#cd8945" d="M 379.5,223.5 C 379.082,224.222 378.416,224.722 377.5,225C 384.078,227.791 390.745,230.291 397.5,232.5C 386.812,236.593 375.812,239.926 364.5,242.5C 360.822,241.043 357.155,239.377 353.5,237.5C 357.738,234.805 362.405,232.972 367.5,232C 369.278,229.865 369.945,227.365 369.5,224.5C 372.86,224.384 376.193,224.051 379.5,223.5 Z"/></g>
<g><path style="opacity:1" fill="#995a26" d="M 460.5,218.5 C 462.402,221.337 463.069,224.671 462.5,228.5C 463.833,228.5 465.167,228.5 466.5,228.5C 466.5,229.5 466.5,230.5 466.5,231.5C 466.004,240.818 461.67,247.651 453.5,252C 424.904,260.81 396.237,269.31 367.5,277.5C 366.448,277.649 365.448,277.483 364.5,277C 365.942,276.623 366.942,275.79 367.5,274.5C 368.264,272.26 369.098,269.927 370,267.5C 370.667,268.167 371.333,268.833 372,269.5C 372.718,268.549 373.551,268.383 374.5,269C 373.122,270.713 371.455,272.047 369.5,273C 370.5,273.167 371.5,273.333 372.5,273.5C 377.85,270.496 383.517,267.996 389.5,266C 393.486,265.501 397.486,265.334 401.5,265.5C 401.5,264.167 401.5,262.833 401.5,261.5C 413.044,258.39 424.377,254.723 435.5,250.5C 435.5,249.167 435.5,247.833 435.5,246.5C 429.129,248.901 422.796,251.401 416.5,254C 411.516,255.33 406.516,256.496 401.5,257.5C 401.5,256.167 401.5,254.833 401.5,253.5C 406.17,252.779 410.837,251.946 415.5,251C 420.776,247.903 426.442,245.57 432.5,244C 434.559,242.815 434.726,241.648 433,240.5C 424.339,242.396 415.839,244.729 407.5,247.5C 407.167,246.833 406.833,246.167 406.5,245.5C 409.141,243.547 412.141,242.047 415.5,241C 421.307,240.287 426.974,238.954 432.5,237C 434.192,235.599 434.859,233.766 434.5,231.5C 423.696,235.21 412.696,238.543 401.5,241.5C 401.719,240.325 401.386,239.325 400.5,238.5C 389.317,243.924 378.317,249.591 367.5,255.5C 367.5,252.5 367.5,249.5 367.5,246.5C 398.155,236.414 429.155,227.081 460.5,218.5 Z"/></g>
<g><path style="opacity:1" fill="#c8d8e1" d="M 296.5,231.5 C 296.5,233.167 296.5,234.833 296.5,236.5C 295.127,236.343 293.793,236.51 292.5,237C 291.95,238.845 290.95,240.345 289.5,241.5C 289.167,240.833 288.833,240.167 288.5,239.5C 286.477,241.173 284.144,241.84 281.5,241.5C 281.719,242.675 281.386,243.675 280.5,244.5C 279.5,243.167 278.5,243.167 277.5,244.5C 276.41,243.273 275.076,242.44 273.5,242C 274.647,240.719 274.313,240.386 272.5,241C 271.736,243.069 271.236,245.236 271,247.5C 268.273,248.158 265.773,249.325 263.5,251C 264.056,251.383 264.389,251.883 264.5,252.5C 262.952,252.179 262.285,251.179 262.5,249.5C 262.66,247.847 263.326,246.514 264.5,245.5C 267.084,242.748 270.084,240.581 273.5,239C 274.044,235.624 276.044,233.79 279.5,233.5C 281.098,234.485 282.765,234.651 284.5,234C 285.641,233.259 285.641,232.425 284.5,231.5C 287.35,229.021 290.684,228.021 294.5,228.5C 294.285,230.179 294.952,231.179 296.5,231.5 Z"/></g>
<g><path style="opacity:1" fill="#f16446" d="M 273.5,229.5 C 274.434,230.568 274.768,231.901 274.5,233.5C 272.833,235.833 270.833,237.833 268.5,239.5C 267.094,239.027 266.427,238.027 266.5,236.5C 268.473,233.861 270.806,231.527 273.5,229.5 Z"/></g>
<g><path style="opacity:1" fill="#8a4d21" d="M 442.5,225.5 C 445.187,225.336 447.854,225.503 450.5,226C 452.648,228.075 452.982,230.408 451.5,233C 452,233.167 452.5,233.333 453,233.5C 455.59,231.727 458.423,230.727 461.5,230.5C 461.649,231.552 461.483,232.552 461,233.5C 452.976,237.577 444.809,241.577 436.5,245.5C 435.167,244.167 435.167,242.833 436.5,241.5C 442.963,238.972 442.963,238.305 436.5,239.5C 435.548,237.955 435.215,236.288 435.5,234.5C 440.52,234.883 444.853,233.383 448.5,230C 444.141,229.466 439.808,229.632 435.5,230.5C 435.5,229.167 435.5,227.833 435.5,226.5C 438.059,226.802 440.393,226.468 442.5,225.5 Z"/></g>
<g><path style="opacity:1" fill="#ebab62" d="M 353.5,237.5 C 357.155,239.377 360.822,241.043 364.5,242.5C 360.895,243.985 357.228,245.319 353.5,246.5C 351.167,244.5 348.833,242.5 346.5,240.5C 348.713,239.227 351.046,238.227 353.5,237.5 Z"/></g>
<g><path style="opacity:1" fill="#b17036" d="M 200.5,204.5 C 200.5,205.833 200.5,207.167 200.5,208.5C 199.593,215.759 201.093,222.426 205,228.5C 209.011,234.09 214.178,236.424 220.5,235.5C 221.167,233.833 221.833,232.167 222.5,230.5C 222.5,231.167 222.5,231.833 222.5,232.5C 223.334,233.748 224.667,234.415 226.5,234.5C 231.219,233.392 235.885,232.392 240.5,231.5C 240.194,234.385 240.527,237.052 241.5,239.5C 243.711,243.728 246.377,247.728 249.5,251.5C 239.738,247.69 229.738,244.69 219.5,242.5C 218.432,241.566 217.099,241.232 215.5,241.5C 208.239,237.97 200.906,234.637 193.5,231.5C 191.85,228.939 189.516,227.273 186.5,226.5C 184.14,224.147 181.473,222.147 178.5,220.5C 179.301,218.958 179.634,217.292 179.5,215.5C 179.328,214.508 179.662,213.842 180.5,213.5C 180.5,214.833 180.5,216.167 180.5,217.5C 181.622,218.156 182.955,218.489 184.5,218.5C 189.404,216.912 194.404,215.912 199.5,215.5C 199.185,211.629 199.518,207.962 200.5,204.5 Z"/></g>
<g><path style="opacity:1" fill="#ae6b2b" d="M 406.5,245.5 C 404.883,246.038 403.216,246.371 401.5,246.5C 401.5,244.833 401.5,243.167 401.5,241.5C 412.696,238.543 423.696,235.21 434.5,231.5C 434.859,233.766 434.192,235.599 432.5,237C 426.974,238.954 421.307,240.287 415.5,241C 412.141,242.047 409.141,243.547 406.5,245.5 Z"/></g>
<g><path style="opacity:1" fill="#f5593d" d="M 265.5,240.5 C 265.5,241.167 265.5,241.833 265.5,242.5C 264.89,243.391 264.557,244.391 264.5,245.5C 263.326,246.514 262.66,247.847 262.5,249.5C 261.662,249.842 261.328,250.508 261.5,251.5C 260.883,251.611 260.383,251.944 260,252.5C 258.813,250.956 258.48,249.289 259,247.5C 260.252,245.999 261.252,244.332 262,242.5C 262.816,241.177 263.983,240.511 265.5,240.5 Z"/></g>
<g><path style="opacity:1" fill="#ecab61" d="M 219.5,242.5 C 229.738,244.69 239.738,247.69 249.5,251.5C 253.393,254.795 257.726,257.628 262.5,260C 266.469,260.853 270.469,261.519 274.5,262C 277.971,264.072 281.638,265.572 285.5,266.5C 282.728,267.082 280.061,268.082 277.5,269.5C 263.42,263.408 249.086,257.575 234.5,252C 230.187,252.245 225.853,252.245 221.5,252C 215.896,249.463 215.229,246.296 219.5,242.5 Z"/></g>
<g><path style="opacity:1" fill="#fa8040" d="M 260.5,218.5 C 260.264,221.609 260.597,224.609 261.5,227.5C 262.064,232.093 263.397,236.426 265.5,240.5C 263.983,240.511 262.816,241.177 262,242.5C 261.252,244.332 260.252,245.999 259,247.5C 258.48,249.289 258.813,250.956 260,252.5C 260.383,251.944 260.883,251.611 261.5,251.5C 261.441,253.722 260.275,254.722 258,254.5C 255.438,252.782 252.605,251.782 249.5,251.5C 246.377,247.728 243.711,243.728 241.5,239.5C 241.171,233.463 241.504,227.463 242.5,221.5C 244.245,218.908 245.911,218.908 247.5,221.5C 247.18,226.531 248.347,231.197 251,235.5C 252.018,236.706 252.518,236.373 252.5,234.5C 251.622,231.87 250.955,229.203 250.5,226.5C 250.201,224.396 250.534,222.396 251.5,220.5C 255.844,216.812 258.344,212.145 259,206.5C 259.176,210.688 259.676,214.688 260.5,218.5 Z"/></g>
<g><path style="opacity:1" fill="#925422" d="M 401.5,241.5 C 401.5,243.167 401.5,244.833 401.5,246.5C 403.216,246.371 404.883,246.038 406.5,245.5C 406.833,246.167 407.167,246.833 407.5,247.5C 406.063,248.725 404.396,249.725 402.5,250.5C 401.614,251.325 401.281,252.325 401.5,253.5C 401.5,254.833 401.5,256.167 401.5,257.5C 401.5,258.833 401.5,260.167 401.5,261.5C 401.5,262.833 401.5,264.167 401.5,265.5C 397.486,265.334 393.486,265.501 389.5,266C 383.517,267.996 377.85,270.496 372.5,273.5C 371.5,273.333 370.5,273.167 369.5,273C 371.455,272.047 373.122,270.713 374.5,269C 373.551,268.383 372.718,268.549 372,269.5C 371.333,268.833 370.667,268.167 370,267.5C 369.098,269.927 368.264,272.26 367.5,274.5C 367.827,269.786 367.493,265.12 366.5,260.5C 363.713,262.227 360.713,263.394 357.5,264C 351.167,264.333 344.833,264.667 338.5,265C 337.099,265.41 335.766,265.91 334.5,266.5C 324.252,269.417 313.918,272.084 303.5,274.5C 301.431,274.176 301.098,273.342 302.5,272C 313.166,269.167 323.833,266.333 334.5,263.5C 341.621,261.82 348.955,260.987 356.5,261C 360.75,260.203 364.417,258.37 367.5,255.5C 378.317,249.591 389.317,243.924 400.5,238.5C 401.386,239.325 401.719,240.325 401.5,241.5 Z"/></g>
<g><path style="opacity:1" fill="#dcebf1" d="M 296.5,236.5 C 296.5,239.5 296.5,242.5 296.5,245.5C 288.233,247.662 279.9,249.828 271.5,252C 269.19,252.497 266.857,252.663 264.5,252.5C 264.389,251.883 264.056,251.383 263.5,251C 265.773,249.325 268.273,248.158 271,247.5C 271.236,245.236 271.736,243.069 272.5,241C 274.313,240.386 274.647,240.719 273.5,242C 275.076,242.44 276.41,243.273 277.5,244.5C 278.5,243.167 279.5,243.167 280.5,244.5C 281.386,243.675 281.719,242.675 281.5,241.5C 284.144,241.84 286.477,241.173 288.5,239.5C 288.833,240.167 289.167,240.833 289.5,241.5C 290.95,240.345 291.95,238.845 292.5,237C 293.793,236.51 295.127,236.343 296.5,236.5 Z"/></g>
<g><path style="opacity:1" fill="#eaab61" d="M 335.5,244.5 C 338.005,246.011 340.672,247.345 343.5,248.5C 339.378,250.536 335.045,252.202 330.5,253.5C 330.631,252.624 330.298,251.957 329.5,251.5C 326.292,250.391 323.292,249.058 320.5,247.5C 325.291,246.058 330.291,245.058 335.5,244.5 Z"/></g>
<g><path style="opacity:1" fill="#ce893d" d="M 346.5,240.5 C 348.833,242.5 351.167,244.5 353.5,246.5C 350.316,247.643 346.983,248.309 343.5,248.5C 340.672,247.345 338.005,246.011 335.5,244.5C 338.996,242.778 342.663,241.445 346.5,240.5 Z"/></g>
<g><path style="opacity:1" fill="#ad6b2b" d="M 401.5,253.5 C 401.281,252.325 401.614,251.325 402.5,250.5C 404.396,249.725 406.063,248.725 407.5,247.5C 415.839,244.729 424.339,242.396 433,240.5C 434.726,241.648 434.559,242.815 432.5,244C 426.442,245.57 420.776,247.903 415.5,251C 410.837,251.946 406.17,252.779 401.5,253.5 Z"/></g>
<g><path style="opacity:1" fill="#b36f2b" d="M 85.5,226.5 C 91.2968,227.821 96.9634,229.654 102.5,232C 115.973,237.734 129.306,244.067 142.5,251C 146.022,254.878 148.356,259.378 149.5,264.5C 147.847,264.34 146.514,263.674 145.5,262.5C 145.03,259.255 143.697,256.421 141.5,254C 126.884,246.8 112.218,239.8 97.5,233C 94.7658,232.79 92.2658,231.956 90,230.5C 89.5078,231.549 89.6744,232.549 90.5,233.5C 99.1913,235.897 107.191,239.73 114.5,245C 116.548,246.956 118.214,249.123 119.5,251.5C 111.404,248.287 103.404,244.787 95.5,241C 90.3621,237.37 87.0288,232.537 85.5,226.5 Z"/></g>
<g><path style="opacity:1" fill="#c67e31" d="M 145.5,262.5 C 136.598,259.382 127.931,255.715 119.5,251.5C 118.214,249.123 116.548,246.956 114.5,245C 107.191,239.73 99.1913,235.897 90.5,233.5C 89.6744,232.549 89.5078,231.549 90,230.5C 92.2658,231.956 94.7658,232.79 97.5,233C 112.218,239.8 126.884,246.8 141.5,254C 143.697,256.421 145.03,259.255 145.5,262.5 Z"/></g>
<g><path style="opacity:1" fill="#af6d2c" d="M 367.5,246.5 C 367.5,249.5 367.5,252.5 367.5,255.5C 364.417,258.37 360.75,260.203 356.5,261C 348.955,260.987 341.621,261.82 334.5,263.5C 334.802,260.941 334.468,258.607 333.5,256.5C 344.468,252.254 355.802,248.921 367.5,246.5 Z"/></g>
<g><path style="opacity:1" fill="#d08d4a" d="M 320.5,247.5 C 323.292,249.058 326.292,250.391 329.5,251.5C 330.298,251.957 330.631,252.624 330.5,253.5C 315.7,257.434 301.033,261.767 286.5,266.5C 283.888,264.855 281.221,263.188 278.5,261.5C 289.909,257.633 301.243,253.466 312.5,249C 315.168,248.433 317.834,247.933 320.5,247.5 Z"/></g>
<g><path style="opacity:1" fill="#ae6d34" d="M 353.5,220.5 C 353.369,221.376 353.702,222.043 354.5,222.5C 359.333,224.243 364.333,224.91 369.5,224.5C 369.945,227.365 369.278,229.865 367.5,232C 362.405,232.972 357.738,234.805 353.5,237.5C 351.046,238.227 348.713,239.227 346.5,240.5C 342.663,241.445 338.996,242.778 335.5,244.5C 330.291,245.058 325.291,246.058 320.5,247.5C 317.834,247.933 315.168,248.433 312.5,249C 301.243,253.466 289.909,257.633 278.5,261.5C 281.221,263.188 283.888,264.855 286.5,266.5C 286.167,266.5 285.833,266.5 285.5,266.5C 281.638,265.572 277.971,264.072 274.5,262C 270.469,261.519 266.469,260.853 262.5,260C 257.726,257.628 253.393,254.795 249.5,251.5C 252.605,251.782 255.438,252.782 258,254.5C 260.275,254.722 261.441,253.722 261.5,251.5C 261.328,250.508 261.662,249.842 262.5,249.5C 262.285,251.179 262.952,252.179 264.5,252.5C 266.857,252.663 269.19,252.497 271.5,252C 279.9,249.828 288.233,247.662 296.5,245.5C 296.842,246.338 297.508,246.672 298.5,246.5C 306.337,248.572 312.337,246.239 316.5,239.5C 318.113,238.308 319.78,237.308 321.5,236.5C 327.107,235.203 332.44,233.036 337.5,230C 339.607,228.736 340.607,226.903 340.5,224.5C 342.571,227.512 345.238,228.179 348.5,226.5C 349.701,224.091 351.367,222.091 353.5,220.5 Z"/></g>
<g><path style="opacity:1" fill="#ad6b2b" d="M 401.5,261.5 C 401.5,260.167 401.5,258.833 401.5,257.5C 406.516,256.496 411.516,255.33 416.5,254C 422.796,251.401 429.129,248.901 435.5,246.5C 435.5,247.833 435.5,249.167 435.5,250.5C 424.377,254.723 413.044,258.39 401.5,261.5 Z"/></g>
<g><path style="opacity:1" fill="#c57e32" d="M 194.5,253.5 C 207.437,258.636 220.103,264.303 232.5,270.5C 221.503,268.168 210.503,265.668 199.5,263C 196.634,260.434 194.968,257.267 194.5,253.5 Z"/></g>
<g><path style="opacity:1" fill="#c98336" d="M 215.5,241.5 C 217.099,241.232 218.432,241.566 219.5,242.5C 215.229,246.296 215.896,249.463 221.5,252C 225.853,252.245 230.187,252.245 234.5,252C 249.086,257.575 263.42,263.408 277.5,269.5C 276.833,269.5 276.167,269.5 275.5,269.5C 261.984,265.161 248.651,260.328 235.5,255C 230.093,254.565 224.76,254.232 219.5,254C 220.551,255.385 221.884,256.385 223.5,257C 228.256,258.022 232.923,259.356 237.5,261C 245.448,265.703 253.781,269.537 262.5,272.5C 261.081,273.451 259.415,273.784 257.5,273.5C 245.513,266.679 232.846,261.179 219.5,257C 214.5,253.333 210.167,249 206.5,244C 203.833,242.667 201.167,241.333 198.5,240C 186.878,237.679 175.878,233.679 165.5,228C 164.04,227.189 163.707,226.355 164.5,225.5C 175.89,231.685 187.89,236.185 200.5,239C 206.822,240.992 211.655,244.825 215,250.5C 214.308,247.538 214.474,244.538 215.5,241.5 Z"/></g>
<g><path style="opacity:1" fill="#c57d2f" d="M 162.5,239.5 C 172.349,243.594 182.016,247.928 191.5,252.5C 192.257,257.277 194.257,261.443 197.5,265C 208.035,266.761 218.369,269.427 228.5,273C 237.238,276.743 245.904,280.576 254.5,284.5C 254.719,285.675 254.386,286.675 253.5,287.5C 240.095,281.133 226.429,275.3 212.5,270C 202.787,270.368 193.12,271.034 183.5,272C 176.898,269.466 170.231,267.133 163.5,265C 160.567,263.729 157.901,262.062 155.5,260C 159.883,260.008 164.216,260.674 168.5,262C 174.391,266.741 181.058,268.408 188.5,267C 189.602,264.599 189.769,262.099 189,259.5C 176.078,251.303 161.911,246.47 146.5,245C 141.833,241.667 137.167,238.333 132.5,235C 138.432,236.527 144.432,238.194 150.5,240C 154.689,240.812 158.689,240.645 162.5,239.5 Z"/></g>
<g><path style="opacity:1" fill="#ecab61" d="M 275.5,269.5 C 271.467,271.322 267.133,272.322 262.5,272.5C 253.781,269.537 245.448,265.703 237.5,261C 232.923,259.356 228.256,258.022 223.5,257C 221.884,256.385 220.551,255.385 219.5,254C 224.76,254.232 230.093,254.565 235.5,255C 248.651,260.328 261.984,265.161 275.5,269.5 Z"/></g>
<g><path style="opacity:1" fill="#995a25" d="M 333.5,256.5 C 334.468,258.607 334.802,260.941 334.5,263.5C 323.833,266.333 313.166,269.167 302.5,272C 301.098,273.342 301.431,274.176 303.5,274.5C 313.918,272.084 324.252,269.417 334.5,266.5C 334.336,269.187 334.503,271.854 335,274.5C 341.62,268.102 349.453,265.602 358.5,267C 361.133,270.799 361.133,274.633 358.5,278.5C 358.957,279.298 359.624,279.631 360.5,279.5C 327.875,290.149 294.875,299.816 261.5,308.5C 257.585,308.726 255.418,307.059 255,303.5C 257.243,305.282 259.743,305.782 262.5,305C 271.167,301.333 279.833,297.667 288.5,294C 292.536,293.15 296.369,293.65 300,295.5C 300.499,291.848 300.665,288.182 300.5,284.5C 299.127,284.343 297.793,284.51 296.5,285C 292.39,289.109 287.723,292.443 282.5,295C 276.003,297.295 269.336,297.961 262.5,297C 259.208,295.692 256.541,293.692 254.5,291C 254.667,290.5 254.833,290 255,289.5C 257.511,291.563 260.344,293.063 263.5,294C 275.354,295.407 285.354,291.74 293.5,283C 295.743,281.864 298.076,281.03 300.5,280.5C 300.5,278.833 300.5,277.167 300.5,275.5C 297.478,275.804 294.478,276.304 291.5,277C 284.917,279.93 278.584,283.264 272.5,287C 267.833,287.667 263.167,287.667 258.5,287C 257.016,286.338 255.683,285.504 254.5,284.5C 254.47,283.503 254.97,282.836 256,282.5C 260.658,284.439 265.491,284.939 270.5,284C 275.086,282.036 279.419,279.702 283.5,277C 288.887,274.423 294.554,272.923 300.5,272.5C 300.5,270.5 300.5,268.5 300.5,266.5C 311.171,262.39 322.171,259.057 333.5,256.5 Z"/></g>
<g><path style="opacity:1" fill="#ad6b2c" d="M 367.5,274.5 C 366.942,275.79 365.942,276.623 364.5,277C 365.448,277.483 366.448,277.649 367.5,277.5C 365.401,278.612 363.067,279.279 360.5,279.5C 359.624,279.631 358.957,279.298 358.5,278.5C 361.133,274.633 361.133,270.799 358.5,267C 349.453,265.602 341.62,268.102 335,274.5C 334.503,271.854 334.336,269.187 334.5,266.5C 335.766,265.91 337.099,265.41 338.5,265C 344.833,264.667 351.167,264.333 357.5,264C 360.713,263.394 363.713,262.227 366.5,260.5C 367.493,265.12 367.827,269.786 367.5,274.5 Z"/></g>
<g><path style="opacity:1" fill="#c57d31" d="M 84.5,217.5 C 100.525,224.341 116.525,231.507 132.5,239C 136.833,242 141.167,245 145.5,248C 151.8,249.119 158.133,250.119 164.5,251C 171.678,253.983 179.011,256.983 186.5,260C 187.554,261.388 187.72,262.888 187,264.5C 183.826,265.728 180.659,265.561 177.5,264C 170.483,259.333 162.816,256.666 154.5,256C 152.675,257.466 152.175,259.299 153,261.5C 155.383,264.273 158.217,266.439 161.5,268C 166.162,268.911 170.495,270.578 174.5,273C 180.131,274.36 185.798,275.526 191.5,276.5C 195.986,275.016 200.486,273.349 205,271.5C 207.464,272.161 209.964,272.661 212.5,273C 226.23,278.956 239.897,284.79 253.5,290.5C 253.817,293.572 253.484,296.572 252.5,299.5C 249.025,297.192 245.692,294.692 242.5,292C 232.513,286.175 221.847,282.842 210.5,282C 217.822,284.665 225.155,287.332 232.5,290C 239.888,294.056 246.722,298.889 253,304.5C 253.749,305.635 253.583,306.635 252.5,307.5C 246.022,302.901 239.689,298.068 233.5,293C 230.673,292.299 228.006,291.299 225.5,290C 222.183,289.502 218.85,289.335 215.5,289.5C 215.5,290.5 215.5,291.5 215.5,292.5C 217.547,292.489 219.547,292.156 221.5,291.5C 225.17,292.84 228.837,294.173 232.5,295.5C 236.324,298.579 240.324,301.412 244.5,304C 243.944,304.383 243.611,304.883 243.5,305.5C 211.924,292.204 180.591,278.537 149.5,264.5C 148.356,259.378 146.022,254.878 142.5,251C 129.306,244.067 115.973,237.734 102.5,232C 96.9634,229.654 91.2968,227.821 85.5,226.5C 84.5975,223.609 84.2641,220.609 84.5,217.5 Z"/></g>
<g><path style="opacity:1" fill="#ae6c2b" d="M 334.5,280.5 C 334.5,280.167 334.5,279.833 334.5,279.5C 340.733,272.885 348.4,269.885 357.5,270.5C 357.753,272.827 357.086,274.827 355.5,276.5C 348.68,277.712 342.68,280.545 337.5,285C 336.552,285.483 335.552,285.649 334.5,285.5C 334.5,283.833 334.5,282.167 334.5,280.5 Z"/></g>
<g><path style="opacity:1" fill="#b16d2c" d="M 191.5,252.5 C 192.609,252.557 193.609,252.89 194.5,253.5C 194.968,257.267 196.634,260.434 199.5,263C 210.503,265.668 221.503,268.168 232.5,270.5C 238.146,272.653 243.812,274.82 249.5,277C 255.548,277.663 261.548,277.33 267.5,276C 278.273,272.057 289.273,268.89 300.5,266.5C 300.5,268.5 300.5,270.5 300.5,272.5C 294.554,272.923 288.887,274.423 283.5,277C 279.419,279.702 275.086,282.036 270.5,284C 265.491,284.939 260.658,284.439 256,282.5C 254.97,282.836 254.47,283.503 254.5,284.5C 245.904,280.576 237.238,276.743 228.5,273C 218.369,269.427 208.035,266.761 197.5,265C 194.257,261.443 192.257,257.277 191.5,252.5 Z"/></g>
<g><path style="opacity:1" fill="#894c21" d="M 334.5,279.5 C 334.5,279.833 334.5,280.167 334.5,280.5C 331.177,282.996 327.51,284.663 323.5,285.5C 319.44,284.89 315.606,283.556 312,281.5C 308.184,282.307 304.35,282.974 300.5,283.5C 300.5,282.5 300.5,281.5 300.5,280.5C 306.58,277.68 312.58,277.846 318.5,281C 324.682,282.178 329.848,280.345 334,275.5C 334.49,276.793 334.657,278.127 334.5,279.5 Z"/></g>
</svg>
