<?xml version="1.0" encoding="UTF-8"?>
<!DOCTYPE svg PUBLIC "-//W3C//DTD SVG 1.1//EN" "http://www.w3.org/Graphics/SVG/1.1/DTD/svg11.dtd">
<svg xmlns="http://www.w3.org/2000/svg" version="1.1" width="267px" height="189px" style="shape-rendering:geometricPrecision; text-rendering:geometricPrecision; image-rendering:optimizeQuality; fill-rule:evenodd; clip-rule:evenodd" xmlns:xlink="http://www.w3.org/1999/xlink">
<g><path style="opacity:1" fill="#fefefe" d="M -0.5,-0.5 C 88.5,-0.5 177.5,-0.5 266.5,-0.5C 266.5,62.5 266.5,125.5 266.5,188.5C 177.5,188.5 88.5,188.5 -0.5,188.5C -0.5,125.5 -0.5,62.5 -0.5,-0.5 Z"/></g>
<g><path style="opacity:1" fill="#df7d2c" d="M 245.5,92.5 C 243.826,101.992 238.16,107.158 228.5,108C 224.81,111.905 220.477,114.905 215.5,117C 207.287,120.201 198.953,122.701 190.5,124.5C 192.294,122.203 194.294,120.037 196.5,118C 199.167,118.333 201.833,118.667 204.5,119C 206.5,116.667 208.5,114.333 210.5,112C 213.254,111.728 215.921,111.228 218.5,110.5C 219.601,111.598 220.934,111.765 222.5,111C 228.443,106.555 234.443,102.388 240.5,98.5C 243.734,88.5511 241.067,86.8844 232.5,93.5C 229.934,97.357 226.934,100.69 223.5,103.5C 224.205,100.756 224.205,98.089 223.5,95.5C 220.761,93.1492 218.095,90.8159 215.5,88.5C 210.433,84.7709 205.099,81.4376 199.5,78.5C 182.454,65.8078 163.787,55.9744 143.5,49C 139.198,47.994 135.198,48.494 131.5,50.5C 130.867,43.5982 133.534,38.4315 139.5,35C 153.313,33.225 165.313,37.225 175.5,47C 183.227,50.4645 191.227,53.1312 199.5,55C 204.445,57.9453 209.112,61.2786 213.5,65C 224.138,67.6553 233.304,72.822 241,80.5C 243.912,83.9872 245.412,87.9872 245.5,92.5 Z"/></g>
<g><path style="opacity:1" fill="#f29d3d" d="M 215.5,88.5 C 213.653,83.9876 210.32,81.321 205.5,80.5C 205.649,79.448 205.483,78.448 205,77.5C 196.041,70.0351 186.207,64.0351 175.5,59.5C 175.719,58.325 175.386,57.325 174.5,56.5C 169.73,55.6175 165.73,53.4508 162.5,50C 154.973,49.7381 147.973,47.7381 141.5,44C 139.968,41.67 140.302,39.67 142.5,38C 146.167,37.3333 149.833,37.3333 153.5,38C 154.973,38.7096 155.64,39.8762 155.5,41.5C 159.241,40.5985 161.241,41.9319 161.5,45.5C 165.797,44.7495 169.13,46.0829 171.5,49.5C 174.613,50.3805 177.613,51.3805 180.5,52.5C 180.5,53.5 180.5,54.5 180.5,55.5C 187.636,56.8671 194.636,58.7004 201.5,61C 205.238,63.197 208.571,65.8637 211.5,69C 219.76,72.0872 227.76,75.7539 235.5,80C 236.804,80.804 237.471,81.9707 237.5,83.5C 234.596,90.2454 229.596,92.7454 222.5,91C 220.183,90.876 217.849,90.0427 215.5,88.5 Z"/></g>
<g><path style="opacity:1" fill="#25170f" d="M 113.5,78.5 C 115.57,84.9329 113.237,87.4329 106.5,86C 105.944,85.6174 105.611,85.1174 105.5,84.5C 104.549,83.0813 104.216,81.4147 104.5,79.5C 107.214,76.0661 110.214,75.7327 113.5,78.5 Z"/></g>
<g><path style="opacity:1" fill="#c11c19" d="M 199.5,78.5 C 205.099,81.4376 210.433,84.7709 215.5,88.5C 218.095,90.8159 220.761,93.1492 223.5,95.5C 224.205,98.089 224.205,100.756 223.5,103.5C 221.588,105.657 219.921,107.991 218.5,110.5C 215.921,111.228 213.254,111.728 210.5,112C 208.5,114.333 206.5,116.667 204.5,119C 201.833,118.667 199.167,118.333 196.5,118C 194.294,120.037 192.294,122.203 190.5,124.5C 189.5,124.5 188.5,124.5 187.5,124.5C 182.586,124.287 177.753,123.62 173,122.5C 167.872,123.592 162.706,124.426 157.5,125C 152.859,130.793 147.192,131.959 140.5,128.5C 133.974,131.967 126.974,133.301 119.5,132.5C 119.5,132.167 119.5,131.833 119.5,131.5C 122.833,131.5 126.167,131.5 129.5,131.5C 129.5,130.167 129.5,128.833 129.5,127.5C 128.325,127.719 127.325,127.386 126.5,126.5C 131.036,124.316 133.536,125.65 134,130.5C 134.814,128.098 134.647,125.765 133.5,123.5C 131.503,121.668 129.503,120.001 127.5,118.5C 127.5,118.167 127.5,117.833 127.5,117.5C 131.581,112.826 131.248,108.493 126.5,104.5C 128.937,104.244 131.271,103.577 133.5,102.5C 137.894,108.063 143.061,112.73 149,116.5C 150.549,113.688 151.382,110.688 151.5,107.5C 152.947,108.622 153.947,110.122 154.5,112C 161.242,115.941 168.242,116.441 175.5,113.5C 174.199,115.672 173.199,118.005 172.5,120.5C 177.062,121.179 181.562,122.179 186,123.5C 190.008,122.078 193.175,119.578 195.5,116C 198.643,115.731 201.643,116.064 204.5,117C 206.926,113.436 208.259,109.436 208.5,105C 211.773,101.405 212.94,97.2387 212,92.5C 211.802,94.3817 211.302,96.0484 210.5,97.5C 210.425,94.7938 210.092,92.1272 209.5,89.5C 206.5,89.5 203.5,89.5 200.5,89.5C 198.282,86.156 195.115,84.8227 191,85.5C 187.296,85.1063 184.129,86.1063 181.5,88.5C 179.007,87.2264 176.341,86.5597 173.5,86.5C 172.833,86.5 172.5,86.1667 172.5,85.5C 172.216,83.5853 172.549,81.9187 173.5,80.5C 173.5,82.1667 173.5,83.8333 173.5,85.5C 176.805,84.7148 179.805,83.2148 182.5,81C 187.633,79.3357 192.8,79.1691 198,80.5C 199.03,80.1639 199.53,79.4972 199.5,78.5 Z"/></g>
<g><path style="opacity:1" fill="#f4e4aa" d="M 113.5,78.5 C 116.754,78.2069 119.754,78.8736 122.5,80.5C 123.548,82.9327 124.214,82.9327 124.5,80.5C 125.434,81.5676 125.768,82.901 125.5,84.5C 114.849,84.323 107.183,88.9897 102.5,98.5C 102.863,99.1835 103.196,99.8501 103.5,100.5C 101.106,99.9853 98.7722,99.3186 96.5,98.5C 96.1667,97.8333 95.8333,97.1667 95.5,96.5C 94.6993,94.9582 94.366,93.2915 94.5,91.5C 94.6036,89.2972 95.2702,87.2972 96.5,85.5C 99.0986,83.5207 101.765,81.5207 104.5,79.5C 104.216,81.4147 104.549,83.0813 105.5,84.5C 105.611,85.1174 105.944,85.6174 106.5,86C 113.237,87.4329 115.57,84.9329 113.5,78.5 Z"/></g>
<g><path style="opacity:1" fill="#52b63f" d="M 159.5,78.5 C 162.406,78.9565 165.072,79.9565 167.5,81.5C 169.142,82.803 170.809,84.1363 172.5,85.5C 172.5,86.1667 172.833,86.5 173.5,86.5C 173.768,88.099 173.434,89.4324 172.5,90.5C 172.565,90.0618 172.399,89.7284 172,89.5C 170.211,91.229 168.044,91.8957 165.5,91.5C 162.561,89.7687 159.394,88.102 156,86.5C 155.666,84.1527 155.833,81.8194 156.5,79.5C 157.791,79.7373 158.791,79.404 159.5,78.5 Z"/></g>
<g><path style="opacity:1" fill="#ec4d3f" d="M 200.5,89.5 C 199.4,90.6049 198.733,91.9382 198.5,93.5C 196.61,93.2965 195.11,93.9632 194,95.5C 192.885,94.0001 192.052,92.3334 191.5,90.5C 190.667,90.1667 189.833,89.8333 189,89.5C 187.107,90.0077 185.607,91.0077 184.5,92.5C 183.853,90.8595 182.853,89.5261 181.5,88.5C 184.129,86.1063 187.296,85.1063 191,85.5C 195.115,84.8227 198.282,86.156 200.5,89.5 Z"/></g>
<g><path style="opacity:1" fill="#32110a" d="M 200.5,89.5 C 203.5,89.5 206.5,89.5 209.5,89.5C 210.092,92.1272 210.425,94.7938 210.5,97.5C 210.068,98.7095 209.401,99.7095 208.5,100.5C 207.292,101.234 205.959,101.567 204.5,101.5C 202.833,100.833 201.167,100.167 199.5,99.5C 199.167,97.5 198.833,95.5 198.5,93.5C 198.733,91.9382 199.4,90.6049 200.5,89.5 Z"/></g>
<g><path style="opacity:1" fill="#0da63e" d="M 158.5,77.5 C 158.833,77.5 159.167,77.5 159.5,77.5C 159.5,77.8333 159.5,78.1667 159.5,78.5C 158.791,79.404 157.791,79.7373 156.5,79.5C 155.833,81.8194 155.666,84.1527 156,86.5C 159.394,88.102 162.561,89.7687 165.5,91.5C 165.5,91.8333 165.5,92.1667 165.5,92.5C 161.577,95.2936 157.243,97.2936 152.5,98.5C 151.952,96.4677 150.619,95.4677 148.5,95.5C 147.13,89.3257 144.797,88.9924 141.5,94.5C 140.311,95.4287 138.978,95.762 137.5,95.5C 137.719,94.325 137.386,93.325 136.5,92.5C 134.465,93.5965 133.132,95.2632 132.5,97.5C 128.721,95.1351 126.388,91.8018 125.5,87.5C 128.21,87.8806 130.543,88.7139 132.5,90C 134.255,87.0699 135.422,83.9033 136,80.5C 136.912,82.6585 137.745,84.8252 138.5,87C 140.167,87.6667 141.833,87.6667 143.5,87C 142.645,84.5644 141.979,82.0644 141.5,79.5C 146.98,77.7173 152.647,77.0506 158.5,77.5 Z"/></g>
<g><path style="opacity:1" fill="#362212" d="M 172.5,90.5 C 172.389,91.1174 172.056,91.6174 171.5,92C 169.527,92.4955 167.527,92.6621 165.5,92.5C 165.5,92.1667 165.5,91.8333 165.5,91.5C 168.044,91.8957 170.211,91.229 172,89.5C 172.399,89.7284 172.565,90.0618 172.5,90.5 Z"/></g>
<g><path style="opacity:1" fill="#25b03e" d="M 126.5,67.5 C 133.303,69.383 138.303,73.383 141.5,79.5C 141.979,82.0644 142.645,84.5644 143.5,87C 141.833,87.6667 140.167,87.6667 138.5,87C 137.745,84.8252 136.912,82.6585 136,80.5C 135.422,83.9033 134.255,87.0699 132.5,90C 130.543,88.7139 128.21,87.8806 125.5,87.5C 126.388,91.8018 128.721,95.1351 132.5,97.5C 133.132,95.2632 134.465,93.5965 136.5,92.5C 137.386,93.325 137.719,94.325 137.5,95.5C 138.978,95.762 140.311,95.4287 141.5,94.5C 144.797,88.9924 147.13,89.3257 148.5,95.5C 150.619,95.4677 151.952,96.4677 152.5,98.5C 151.597,101.391 151.264,104.391 151.5,107.5C 151.382,110.688 150.549,113.688 149,116.5C 143.061,112.73 137.894,108.063 133.5,102.5C 131.271,103.577 128.937,104.244 126.5,104.5C 124.621,105.341 122.621,105.675 120.5,105.5C 114.465,105.195 108.799,103.528 103.5,100.5C 103.196,99.8501 102.863,99.1835 102.5,98.5C 107.183,88.9897 114.849,84.323 125.5,84.5C 125.768,82.901 125.434,81.5676 124.5,80.5C 124.073,76.1756 123.739,71.8422 123.5,67.5C 124.5,67.5 125.5,67.5 126.5,67.5 Z"/></g>
<g><path style="opacity:1" fill="#f9e7ad" d="M 173.5,86.5 C 176.341,86.5597 179.007,87.2264 181.5,88.5C 182.853,89.5261 183.853,90.8595 184.5,92.5C 186.222,95.9196 186.889,99.5863 186.5,103.5C 184.937,104.945 183.604,106.611 182.5,108.5C 180.305,110.424 177.972,112.091 175.5,113.5C 168.242,116.441 161.242,115.941 154.5,112C 153.947,110.122 152.947,108.622 151.5,107.5C 151.264,104.391 151.597,101.391 152.5,98.5C 157.243,97.2936 161.577,95.2936 165.5,92.5C 167.527,92.6621 169.527,92.4955 171.5,92C 172.056,91.6174 172.389,91.1174 172.5,90.5C 173.434,89.4324 173.768,88.099 173.5,86.5 Z"/></g>
<g><path style="opacity:1" fill="#d22123" d="M 202.5,91.5 C 209.004,91.1377 210.671,93.6377 207.5,99C 200.745,99.7558 199.078,97.2558 202.5,91.5 Z"/></g>
<g><path style="opacity:1" fill="#f79722" d="M 218.5,110.5 C 219.921,107.991 221.588,105.657 223.5,103.5C 226.934,100.69 229.934,97.357 232.5,93.5C 241.067,86.8844 243.734,88.5511 240.5,98.5C 234.443,102.388 228.443,106.555 222.5,111C 220.934,111.765 219.601,111.598 218.5,110.5 Z"/></g>
<g><path style="opacity:1" fill="#f1735e" d="M 198.5,93.5 C 198.833,95.5 199.167,97.5 199.5,99.5C 198.167,99.5 196.833,99.5 195.5,99.5C 195.22,102.388 196.553,103.888 199.5,104C 197.833,104.833 196.167,105.667 194.5,106.5C 193.833,104.833 193.167,103.167 192.5,101.5C 190.821,103.104 188.821,103.771 186.5,103.5C 186.889,99.5863 186.222,95.9196 184.5,92.5C 185.607,91.0077 187.107,90.0077 189,89.5C 189.833,89.8333 190.667,90.1667 191.5,90.5C 192.052,92.3334 192.885,94.0001 194,95.5C 195.11,93.9632 196.61,93.2965 198.5,93.5 Z"/></g>
<g><path style="opacity:1" fill="#dd2922" d="M 95.5,96.5 C 95.8333,97.1667 96.1667,97.8333 96.5,98.5C 96.4397,103.975 98.6064,105.309 103,102.5C 104.666,107.825 102.832,109.325 97.5,107C 93.3707,103.875 92.704,100.375 95.5,96.5 Z"/></g>
<g><path style="opacity:1" fill="#dd2721" d="M 199.5,99.5 C 201.167,100.167 202.833,100.833 204.5,101.5C 200.519,106.832 195.186,110.166 188.5,111.5C 187.024,109.429 185.024,108.429 182.5,108.5C 183.604,106.611 184.937,104.945 186.5,103.5C 188.821,103.771 190.821,103.104 192.5,101.5C 193.167,103.167 193.833,104.833 194.5,106.5C 196.167,105.667 197.833,104.833 199.5,104C 196.553,103.888 195.22,102.388 195.5,99.5C 196.833,99.5 198.167,99.5 199.5,99.5 Z"/></g>
<g><path style="opacity:1" fill="#ec5744" d="M 94.5,91.5 C 94.366,93.2915 94.6993,94.9582 95.5,96.5C 92.704,100.375 93.3707,103.875 97.5,107C 102.832,109.325 104.666,107.825 103,102.5C 98.6064,105.309 96.4397,103.975 96.5,98.5C 98.7722,99.3186 101.106,99.9853 103.5,100.5C 108.799,103.528 114.465,105.195 120.5,105.5C 120.5,106.167 120.167,106.5 119.5,106.5C 115.009,105.885 111.009,106.885 107.5,109.5C 99.147,111.312 93.8136,107.979 91.5,99.5C 92.5148,96.7237 93.5148,94.0571 94.5,91.5 Z"/></g>
<g><path style="opacity:1" fill="#261c16" d="M 159.5,112.5 C 158.504,112.586 157.671,112.252 157,111.5C 154.995,104.51 157.495,101.676 164.5,103C 168.8,107.761 167.967,111.261 162,113.5C 160.93,113.472 160.097,113.139 159.5,112.5 Z"/></g>
<g><path style="opacity:1" fill="#1e120a" d="M 85.5,107.5 C 87.1675,109.479 87.8342,111.812 87.5,114.5C 86.3636,119.175 83.3636,121.008 78.5,120C 73.928,117.695 72.5947,114.195 74.5,109.5C 77.5947,106.371 81.2614,105.705 85.5,107.5 Z"/></g>
<g><path style="opacity:1" fill="#29160f" d="M 126.5,104.5 C 131.248,108.493 131.581,112.826 127.5,117.5C 118.672,118.158 116.005,114.492 119.5,106.5C 120.167,106.5 120.5,106.167 120.5,105.5C 122.621,105.675 124.621,105.341 126.5,104.5 Z"/></g>
<g><path style="opacity:1" fill="#eee2b2" d="M 159.5,112.5 C 156.079,107.295 157.413,104.795 163.5,105C 166.821,109.836 165.488,112.336 159.5,112.5 Z"/></g>
<g><path style="opacity:1" fill="#bc1617" d="M 208.5,100.5 C 208.179,102.048 207.179,102.715 205.5,102.5C 205.822,104.722 205.155,106.556 203.5,108C 195.02,113.996 185.686,115.829 175.5,113.5C 177.972,112.091 180.305,110.424 182.5,108.5C 185.024,108.429 187.024,109.429 188.5,111.5C 195.186,110.166 200.519,106.832 204.5,101.5C 205.959,101.567 207.292,101.234 208.5,100.5 Z"/></g>
<g><path style="opacity:1" fill="#aa3a35" d="M 77.5,109.5 C 79.2884,108.378 81.2884,108.211 83.5,109C 84.2524,109.671 84.5858,110.504 84.5,111.5C 82.2543,110.545 79.921,109.878 77.5,109.5 Z"/></g>
<g><path style="opacity:1" fill="#fbe8ae" d="M 74.5,109.5 C 72.5947,114.195 73.928,117.695 78.5,120C 83.3636,121.008 86.3636,119.175 87.5,114.5C 88.4959,114.414 89.3292,114.748 90,115.5C 91.1315,124.399 87.6315,130.899 79.5,135C 71.3051,138.64 63.3051,138.307 55.5,134C 54.8366,132.482 53.8366,131.315 52.5,130.5C 52.3359,127.813 52.5026,125.146 53,122.5C 55.7969,118.701 58.9636,115.201 62.5,112C 66.253,110.011 70.253,109.178 74.5,109.5 Z"/></g>
<g><path style="opacity:1" fill="#f4e5b0" d="M 77.5,109.5 C 79.921,109.878 82.2543,110.545 84.5,111.5C 86.1503,117.346 83.817,119.513 77.5,118C 74.8555,115.05 74.8555,112.217 77.5,109.5 Z"/></g>
<g><path style="opacity:1" fill="#ae1c1b" d="M 122.5,107.5 C 128.207,108.244 129.54,110.91 126.5,115.5C 126.224,112.281 124.891,109.615 122.5,107.5 Z"/></g>
<g><path style="opacity:1" fill="#f2e5ae" d="M 122.5,107.5 C 124.891,109.615 126.224,112.281 126.5,115.5C 121.155,117.33 118.988,115.33 120,109.5C 120.708,108.619 121.542,107.953 122.5,107.5 Z"/></g>
<g><path style="opacity:1" fill="#dc2c1e" d="M 175.5,113.5 C 185.686,115.829 195.02,113.996 203.5,108C 205.155,106.556 205.822,104.722 205.5,102.5C 207.179,102.715 208.179,102.048 208.5,100.5C 209.401,99.7095 210.068,98.7095 210.5,97.5C 211.302,96.0484 211.802,94.3817 212,92.5C 212.94,97.2387 211.773,101.405 208.5,105C 208.259,109.436 206.926,113.436 204.5,117C 201.643,116.064 198.643,115.731 195.5,116C 193.175,119.578 190.008,122.078 186,123.5C 181.562,122.179 177.062,121.179 172.5,120.5C 173.199,118.005 174.199,115.672 175.5,113.5 Z"/></g>
<g><path style="opacity:1" fill="#f9e7ac" d="M 119.5,106.5 C 116.005,114.492 118.672,118.158 127.5,117.5C 127.5,117.833 127.5,118.167 127.5,118.5C 125.6,120.619 123.934,122.953 122.5,125.5C 118.957,127.438 115.29,129.105 111.5,130.5C 108.303,130.595 105.303,129.928 102.5,128.5C 103.6,127.395 104.267,126.062 104.5,124.5C 106.348,120.649 105.348,117.649 101.5,115.5C 102.478,112.522 104.478,110.522 107.5,109.5C 111.009,106.885 115.009,105.885 119.5,106.5 Z"/></g>
<g><path style="opacity:1" fill="#1a0c09" d="M 101.5,115.5 C 105.348,117.649 106.348,120.649 104.5,124.5C 104.759,120.763 103.093,118.43 99.5,117.5C 96.6333,117.369 94.9666,118.703 94.5,121.5C 94.178,123.722 94.8446,125.556 96.5,127C 94.5911,127.448 93.4244,126.615 93,124.5C 91.8903,117.776 94.7236,114.776 101.5,115.5 Z"/></g>
<g><path style="opacity:1" fill="#f1936e" d="M 99.5,117.5 C 99.5,118.833 99.5,120.167 99.5,121.5C 97.8333,121.5 96.1667,121.5 94.5,121.5C 94.9666,118.703 96.6333,117.369 99.5,117.5 Z"/></g>
<g><path style="opacity:1" fill="#e8ddbc" d="M 99.5,117.5 C 103.093,118.43 104.759,120.763 104.5,124.5C 103.395,125.6 102.062,126.267 100.5,126.5C 99.962,124.883 99.6287,123.216 99.5,121.5C 99.5,120.167 99.5,118.833 99.5,117.5 Z"/></g>
<g><path style="opacity:1" fill="#ee5b4a" d="M 127.5,118.5 C 129.503,120.001 131.503,121.668 133.5,123.5C 134.647,125.765 134.814,128.098 134,130.5C 133.536,125.65 131.036,124.316 126.5,126.5C 127.325,127.386 128.325,127.719 129.5,127.5C 129.5,128.833 129.5,130.167 129.5,131.5C 126.167,131.5 122.833,131.5 119.5,131.5C 122.358,130.834 125.358,130.167 128.5,129.5C 125.978,128.697 123.978,127.364 122.5,125.5C 123.934,122.953 125.6,120.619 127.5,118.5 Z"/></g>
<g><path style="opacity:1" fill="#cd241c" d="M 199.5,78.5 C 199.53,79.4972 199.03,80.1639 198,80.5C 192.8,79.1691 187.633,79.3357 182.5,81C 179.805,83.2148 176.805,84.7148 173.5,85.5C 173.5,83.8333 173.5,82.1667 173.5,80.5C 173.68,74.3447 170.68,71.0113 164.5,70.5C 163.319,63.1542 158.986,58.9875 151.5,58C 146.845,57.5008 142.179,57.3342 137.5,57.5C 128.149,55.8045 122.483,59.8045 120.5,69.5C 121.73,72.5848 122.73,75.7515 123.5,79C 123.43,79.7648 123.097,80.2648 122.5,80.5C 119.754,78.8736 116.754,78.2069 113.5,78.5C 110.214,75.7327 107.214,76.0661 104.5,79.5C 101.765,81.5207 99.0986,83.5207 96.5,85.5C 94.7446,86.0722 93.0779,86.9055 91.5,88C 88.5143,91.6116 86.5143,95.6116 85.5,100C 85.7551,102.156 86.4218,104.156 87.5,106C 87.1639,107.03 86.4972,107.53 85.5,107.5C 81.2614,105.705 77.5947,106.371 74.5,109.5C 70.253,109.178 66.253,110.011 62.5,112C 58.9636,115.201 55.7969,118.701 53,122.5C 52.5026,125.146 52.3359,127.813 52.5,130.5C 50.1643,128.609 47.4976,128.109 44.5,129C 42.5743,129.422 41.5743,130.589 41.5,132.5C 40.7784,132.082 40.2784,131.416 40,130.5C 39.4115,132.863 37.9115,133.863 35.5,133.5C 34.3778,134.947 32.8778,135.947 31,136.5C 30.3645,137.966 29.5312,139.3 28.5,140.5C 29.2421,141.287 30.0754,141.953 31,142.5C 36.101,140.966 41.2676,140.633 46.5,141.5C 46.1667,141.833 45.8333,142.167 45.5,142.5C 44.5539,142.013 43.5539,141.68 42.5,141.5C 37.0887,144.046 31.4221,144.879 25.5,144C 27.8075,143.646 28.1408,142.646 26.5,141C 27.8561,139.433 28.5228,137.6 28.5,135.5C 61.5041,105.506 95.8375,77.1726 131.5,50.5C 135.198,48.494 139.198,47.994 143.5,49C 163.787,55.9744 182.454,65.8078 199.5,78.5 Z"/></g>
<g><path style="opacity:1" fill="#f1e0ae" d="M 105.5,84.5 C 105.314,78.296 107.814,76.9626 113,80.5C 113.711,82.3668 113.211,83.8668 111.5,85C 109.455,85.4901 107.455,85.3235 105.5,84.5 Z"/></g>
<g><path style="opacity:1" fill="#a71b17" d="M 167.5,81.5 C 165.072,79.9565 162.406,78.9565 159.5,78.5C 159.5,78.1667 159.5,77.8333 159.5,77.5C 161.279,73.5535 164.279,72.0535 168.5,73C 170.314,75.4815 170.98,78.3148 170.5,81.5C 169.5,81.5 168.5,81.5 167.5,81.5 Z"/></g>
<g><path style="opacity:1" fill="#200a03" d="M 164.5,70.5 C 170.68,71.0113 173.68,74.3447 173.5,80.5C 172.549,81.9187 172.216,83.5853 172.5,85.5C 170.809,84.1363 169.142,82.803 167.5,81.5C 168.5,81.5 169.5,81.5 170.5,81.5C 170.98,78.3148 170.314,75.4815 168.5,73C 164.279,72.0535 161.279,73.5535 159.5,77.5C 159.167,77.5 158.833,77.5 158.5,77.5C 159.068,73.9326 161.068,71.5993 164.5,70.5 Z"/></g>
<g><path style="opacity:1" fill="#fa8f6b" d="M 177.5,68.5 C 182.021,71.5095 186.687,74.3429 191.5,77C 184.203,78.5418 179.537,75.7085 177.5,68.5 Z"/></g>
<g><path style="opacity:1" fill="#f39367" d="M 161.5,60.5 C 161.56,59.9569 161.893,59.6236 162.5,59.5C 165.577,61.9068 168.91,63.9068 172.5,65.5C 170.833,66.8333 169.167,66.8333 167.5,65.5C 165.481,63.8103 163.481,62.1436 161.5,60.5 Z"/></g>
<g><path style="opacity:1" fill="#e9523d" d="M 137.5,57.5 C 132.61,59.3856 128.943,62.7189 126.5,67.5C 125.5,67.5 124.5,67.5 123.5,67.5C 123.739,71.8422 124.073,76.1756 124.5,80.5C 124.214,82.9327 123.548,82.9327 122.5,80.5C 123.097,80.2648 123.43,79.7648 123.5,79C 122.73,75.7515 121.73,72.5848 120.5,69.5C 122.483,59.8045 128.149,55.8045 137.5,57.5 Z"/></g>
<g><path style="opacity:1" fill="#f8e9af" d="M 137.5,57.5 C 142.179,57.3342 146.845,57.5008 151.5,58C 158.986,58.9875 163.319,63.1542 164.5,70.5C 161.068,71.5993 159.068,73.9326 158.5,77.5C 152.647,77.0506 146.98,77.7173 141.5,79.5C 138.303,73.383 133.303,69.383 126.5,67.5C 128.943,62.7189 132.61,59.3856 137.5,57.5 Z"/></g>
<g><path style="opacity:1" fill="#241105" d="M 104.5,124.5 C 104.267,126.062 103.6,127.395 102.5,128.5C 100.801,128.66 99.1341,128.494 97.5,128C 98.7375,127.768 99.7375,127.268 100.5,126.5C 102.062,126.267 103.395,125.6 104.5,124.5 Z"/></g>
<g><path style="opacity:1" fill="#f3835c" d="M 35.5,133.5 C 34.2334,134.087 33.2334,134.087 32.5,133.5C 34.9837,131.517 37.3171,129.35 39.5,127C 40.1667,126.333 40.8333,126.333 41.5,127C 39.2941,129.037 37.2941,131.203 35.5,133.5 Z"/></g>
<g><path style="opacity:1" fill="#f49627" d="M 178.5,124.5 C 176.636,126.218 174.303,127.385 171.5,128C 166.446,128.953 161.446,130.12 156.5,131.5C 155.584,131.457 154.917,131.124 154.5,130.5C 155.343,128.827 156.676,127.66 158.5,127C 164.113,126.954 169.446,125.787 174.5,123.5C 175.925,123.623 177.258,123.957 178.5,124.5 Z"/></g>
<g><path style="opacity:1" fill="#f4836f" d="M 122.5,125.5 C 123.978,127.364 125.978,128.697 128.5,129.5C 125.358,130.167 122.358,130.834 119.5,131.5C 119.5,131.833 119.5,132.167 119.5,132.5C 117.784,132.629 116.117,132.962 114.5,133.5C 113.5,132.5 112.5,131.5 111.5,130.5C 115.29,129.105 118.957,127.438 122.5,125.5 Z"/></g>
<g><path style="opacity:1" fill="#95140f" d="M 187.5,124.5 C 187.158,125.338 186.492,125.672 185.5,125.5C 183.05,125.702 180.717,125.369 178.5,124.5C 177.258,123.957 175.925,123.623 174.5,123.5C 169.446,125.787 164.113,126.954 158.5,127C 156.676,127.66 155.343,128.827 154.5,130.5C 151.609,131.403 148.609,131.736 145.5,131.5C 136.92,133.114 128.253,134.281 119.5,135C 114.439,137.259 109.105,138.092 103.5,137.5C 107.363,136.673 111.363,135.839 115.5,135C 114.944,134.617 114.611,134.117 114.5,133.5C 116.117,132.962 117.784,132.629 119.5,132.5C 126.974,133.301 133.974,131.967 140.5,128.5C 147.192,131.959 152.859,130.793 157.5,125C 162.706,124.426 167.872,123.592 173,122.5C 177.753,123.62 182.586,124.287 187.5,124.5 Z"/></g>
<g><path style="opacity:1" fill="#dc7d30" d="M 178.5,124.5 C 180.717,125.369 183.05,125.702 185.5,125.5C 182.443,127.095 179.11,128.262 175.5,129C 163.214,131.491 150.88,133.657 138.5,135.5C 140.877,134.113 143.543,133.279 146.5,133C 145.944,132.617 145.611,132.117 145.5,131.5C 148.609,131.736 151.609,131.403 154.5,130.5C 154.917,131.124 155.584,131.457 156.5,131.5C 161.446,130.12 166.446,128.953 171.5,128C 174.303,127.385 176.636,126.218 178.5,124.5 Z"/></g>
<g><path style="opacity:1" fill="#2c0d03" d="M 52.5,130.5 C 53.8343,138 50.8343,140.833 43.5,139C 41.771,137.211 41.1043,135.044 41.5,132.5C 41.5743,130.589 42.5743,129.422 44.5,129C 47.4976,128.109 50.1643,128.609 52.5,130.5 Z"/></g>
<g><path style="opacity:1" fill="#90180e" d="M 103.5,137.5 C 103.082,138.222 102.416,138.722 101.5,139C 94.5831,139.2 87.9165,140.367 81.5,142.5C 76.2521,140.569 71.5855,141.402 67.5,145C 60.1568,144.73 52.8235,144.563 45.5,144.5C 51.0176,143.236 56.6842,143.236 62.5,144.5C 64.5,144 66.5,143.5 68.5,143C 69.8333,142.333 69.8333,141.667 68.5,141C 76.7031,141.012 84.7031,139.845 92.5,137.5C 96.1801,138.828 99.8467,138.828 103.5,137.5 Z"/></g>
<g><path style="opacity:1" fill="#c2201b" d="M 96.5,85.5 C 95.2702,87.2972 94.6036,89.2972 94.5,91.5C 93.5148,94.0571 92.5148,96.7237 91.5,99.5C 93.8136,107.979 99.147,111.312 107.5,109.5C 104.478,110.522 102.478,112.522 101.5,115.5C 94.7236,114.776 91.8903,117.776 93,124.5C 93.4244,126.615 94.5911,127.448 96.5,127C 94.8446,125.556 94.178,123.722 94.5,121.5C 96.1667,121.5 97.8333,121.5 99.5,121.5C 99.6287,123.216 99.962,124.883 100.5,126.5C 99.7375,127.268 98.7375,127.768 97.5,128C 99.1341,128.494 100.801,128.66 102.5,128.5C 105.303,129.928 108.303,130.595 111.5,130.5C 112.5,131.5 113.5,132.5 114.5,133.5C 114.611,134.117 114.944,134.617 115.5,135C 111.363,135.839 107.363,136.673 103.5,137.5C 99.8467,138.828 96.1801,138.828 92.5,137.5C 84.7031,139.845 76.7031,141.012 68.5,141C 69.8333,141.667 69.8333,142.333 68.5,143C 66.5,143.5 64.5,144 62.5,144.5C 56.6842,143.236 51.0176,143.236 45.5,144.5C 43.5,146.167 41.5,147.833 39.5,149.5C 38.1667,149.5 36.8333,149.5 35.5,149.5C 35.3893,148.883 35.056,148.383 34.5,148C 29.6521,147.886 24.9854,147.053 20.5,145.5C 21.9949,141.327 24.6616,137.994 28.5,135.5C 28.5228,137.6 27.8561,139.433 26.5,141C 28.1408,142.646 27.8075,143.646 25.5,144C 31.4221,144.879 37.0887,144.046 42.5,141.5C 43.5539,141.68 44.5539,142.013 45.5,142.5C 45.8333,142.167 46.1667,141.833 46.5,141.5C 41.2676,140.633 36.101,140.966 31,142.5C 30.0754,141.953 29.2421,141.287 28.5,140.5C 29.5312,139.3 30.3645,137.966 31,136.5C 32.8778,135.947 34.3778,134.947 35.5,133.5C 37.9115,133.863 39.4115,132.863 40,130.5C 40.2784,131.416 40.7784,132.082 41.5,132.5C 41.1043,135.044 41.771,137.211 43.5,139C 50.8343,140.833 53.8343,138 52.5,130.5C 53.8366,131.315 54.8366,132.482 55.5,134C 63.3051,138.307 71.3051,138.64 79.5,135C 87.6315,130.899 91.1315,124.399 90,115.5C 89.3292,114.748 88.4959,114.414 87.5,114.5C 87.8342,111.812 87.1675,109.479 85.5,107.5C 86.4972,107.53 87.1639,107.03 87.5,106C 86.4218,104.156 85.7551,102.156 85.5,100C 86.5143,95.6116 88.5143,91.6116 91.5,88C 93.0779,86.9055 94.7446,86.0722 96.5,85.5 Z"/></g>
<g><path style="opacity:1" fill="#af0c15" d="M 44.5,130.5 C 46.5,130.5 48.5,130.5 50.5,130.5C 50.5,132.833 50.5,135.167 50.5,137.5C 43.4453,138.701 41.4453,136.367 44.5,130.5 Z"/></g>
<g><path style="opacity:1" fill="#e98929" d="M 145.5,131.5 C 145.611,132.117 145.944,132.617 146.5,133C 143.543,133.279 140.877,134.113 138.5,135.5C 105.898,141.869 72.8977,146.536 39.5,149.5C 41.5,147.833 43.5,146.167 45.5,144.5C 52.8235,144.563 60.1568,144.73 67.5,145C 71.5855,141.402 76.2521,140.569 81.5,142.5C 87.9165,140.367 94.5831,139.2 101.5,139C 102.416,138.722 103.082,138.222 103.5,137.5C 109.105,138.092 114.439,137.259 119.5,135C 128.253,134.281 136.92,133.114 145.5,131.5 Z"/></g>
<g><path style="opacity:1" fill="#fbd699" d="M 245.5,92.5 C 248.721,99.2435 247.721,105.41 242.5,111C 235.393,114.567 228.227,118.067 221,121.5C 159.206,139.213 96.0392,150.213 31.5,154.5C 27.3341,154.659 23.3341,153.992 19.5,152.5C 17.8269,150.239 18.1602,148.572 20.5,147.5C 20.4142,148.496 20.7476,149.329 21.5,150C 26.2519,150.773 30.9185,150.607 35.5,149.5C 36.8333,149.5 38.1667,149.5 39.5,149.5C 72.8977,146.536 105.898,141.869 138.5,135.5C 150.88,133.657 163.214,131.491 175.5,129C 179.11,128.262 182.443,127.095 185.5,125.5C 186.492,125.672 187.158,125.338 187.5,124.5C 188.5,124.5 189.5,124.5 190.5,124.5C 198.953,122.701 207.287,120.201 215.5,117C 220.477,114.905 224.81,111.905 228.5,108C 238.16,107.158 243.826,101.992 245.5,92.5 Z"/></g>
<g><path style="opacity:1" fill="#e68c38" d="M 20.5,145.5 C 24.9854,147.053 29.6521,147.886 34.5,148C 35.056,148.383 35.3893,148.883 35.5,149.5C 30.9185,150.607 26.2519,150.773 21.5,150C 20.7476,149.329 20.4142,148.496 20.5,147.5C 20.5,146.833 20.5,146.167 20.5,145.5 Z"/></g>
</svg>
